<svg width="356" height="109" viewBox="0 0 356 109" fill="none" xmlns="http://www.w3.org/2000/svg">
<g clip-path="url(#clip0_1_1132)">
<rect width="8" height="60" rx="4" transform="matrix(-1 0 0 1 356 0)" fill="#0D5974"/>
<rect width="8" height="59" rx="4" transform="matrix(-1 0 0 1 344 1)" fill="#0D5974"/>
<rect width="8" height="58" rx="4" transform="matrix(-1 0 0 1 332 2)" fill="#0D5974"/>
<rect width="8" height="57" rx="4" transform="matrix(-1 0 0 1 320 3)" fill="#0D5974"/>
<rect width="8" height="56" rx="4" transform="matrix(-1 0 0 1 308 4)" fill="#0D5974"/>
<rect width="8" height="55" rx="4" transform="matrix(-1 0 0 1 296 5)" fill="#0D5974"/>
<rect width="8" height="54" rx="4" transform="matrix(-1 0 0 1 284 6)" fill="#0D5974"/>
<rect width="8" height="53" rx="4" transform="matrix(-1 0 0 1 272 7)" fill="#0D5974"/>
<rect width="8" height="52" rx="4" transform="matrix(-1 0 0 1 260 8)" fill="#0D5974"/>
<rect width="8" height="51" rx="4" transform="matrix(-1 0 0 1 248 9)" fill="#0D5974"/>
<rect width="8" height="50" rx="4" transform="matrix(-1 0 0 1 236 10)" fill="#444B53"/>
<rect width="8" height="49" rx="4" transform="matrix(-1 0 0 1 224 11)" fill="#444B53"/>
<rect width="8" height="48" rx="4" transform="matrix(-1 0 0 1 212 12)" fill="#444B53"/>
<rect width="8" height="47" rx="4" transform="matrix(-1 0 0 1 200 13)" fill="#444B53"/>
<rect width="8" height="46" rx="4" transform="matrix(-1 0 0 1 188 14)" fill="#444B53"/>
<rect width="8" height="45" rx="4" transform="matrix(-1 0 0 1 176 15)" fill="#444B53"/>
<rect width="8" height="44" rx="4" transform="matrix(-1 0 0 1 164 16)" fill="#444B53"/>
<path d="M152 21C152 18.7909 150.209 17 148 17C145.791 17 144 18.7909 144 21V40H152V21Z" fill="#08B7F6"/>
<path d="M140 22C140 19.7909 138.209 18 136 18C133.791 18 132 19.7909 132 22V40H140V22Z" fill="#444B53"/>
<path d="M128 23C128 20.7909 126.209 19 124 19C121.791 19 120 20.7909 120 23V40H128V23Z" fill="#444B53"/>
<path d="M116 24C116 21.7909 114.209 20 112 20C109.791 20 108 21.7909 108 24V40H116V24Z" fill="#2D3137"/>
<path d="M104 25C104 22.7909 102.209 21 100 21C97.7909 21 96 22.7909 96 25V40H104V25Z" fill="#2D3137"/>
<path d="M92 26C92 23.7909 90.2091 22 88 22C85.7909 22 84 23.7909 84 26V40H92V26Z" fill="#2D3137"/>
<path d="M80 27C80 24.7909 78.2091 23 76 23C73.7909 23 72 24.7909 72 27V40H80V27Z" fill="#2D3137"/>
<path d="M68 28C68 25.7909 66.2091 24 64 24C61.7909 24 60 25.7909 60 28V40H68V28Z" fill="#2D3137"/>
<path d="M56 29C56 26.7909 54.2091 25 52 25C49.7909 25 48 26.7909 48 29V40H56V29Z" fill="#2D3137"/>
<path d="M44 30C44 27.7909 42.2091 26 40 26C37.7909 26 36 27.7909 36 30V40H44V30Z" fill="#2D3137"/>
<path d="M32 31C32 28.7909 30.2091 27 28 27C25.7909 27 24 28.7909 24 31V40H32V31Z" fill="#2D3137"/>
<path d="M20 32C20 29.7909 18.2091 28 16 28C13.7909 28 12 29.7909 12 32V40H20V32Z" fill="#2D3137"/>
<path d="M8 33C8 30.7909 6.20914 29 4 29C1.79086 29 0 30.7909 0 33V40H8V33Z" fill="#2D3137"/>
<path d="M8 49H0V56C0 58.2091 1.79086 60 4 60C6.20914 60 8 58.2091 8 56V49Z" fill="#2D3137"/>
<path d="M104 49H96V56C96 58.2091 97.7909 60 100 60C102.209 60 104 58.2091 104 56V49Z" fill="#2D3137"/>
<path d="M56 49H48V56C48 58.2091 49.7909 60 52 60C54.2091 60 56 58.2091 56 56V49Z" fill="#2D3137"/>
<path d="M152 49H144V56C144 58.2091 145.791 60 148 60C150.209 60 152 58.2091 152 56V49Z" fill="#18B5FB"/>
<path d="M32 49H24V56C24 58.2091 25.7909 60 28 60C30.2091 60 32 58.2091 32 56V49Z" fill="#2D3137"/>
<path d="M128 49H120V56C120 58.2091 121.791 60 124 60C126.209 60 128 58.2091 128 56V49Z" fill="#444B53"/>
<path d="M80 49H72V56C72 58.2091 73.7909 60 76 60C78.2091 60 80 58.2091 80 56V49Z" fill="#2D3137"/>
<path d="M20 49H12V56C12 58.2091 13.7909 60 16 60C18.2091 60 20 58.2091 20 56V49Z" fill="#2D3137"/>
<path d="M116 49H108V56C108 58.2091 109.791 60 112 60C114.209 60 116 58.2091 116 56V49Z" fill="#2D3137"/>
<path d="M68 49H60V56C60 58.2091 61.7909 60 64 60C66.2091 60 68 58.2091 68 56V49Z" fill="#2D3137"/>
<path d="M44 49H36V56C36 58.2091 37.7909 60 40 60C42.2091 60 44 58.2091 44 56V49Z" fill="#2D3137"/>
<path d="M140 49H132V56C132 58.2091 133.791 60 136 60C138.209 60 140 58.2091 140 56V49Z" fill="#444B53"/>
<path d="M92 49H84V56C84 58.2091 85.7909 60 88 60C90.2091 60 92 58.2091 92 56V49Z" fill="#2D3137"/>
<g filter="url(#filter0_d_1_1132)">
<path d="M51.2188 103.773V105H45.5312V103.773H51.2188ZM45.8281 93.625V105H44.3203V93.625H45.8281ZM52.3438 100.867V100.688C52.3438 100.078 52.4323 99.513 52.6094 98.9922C52.7865 98.4661 53.0417 98.0104 53.375 97.625C53.7083 97.2344 54.112 96.9323 54.5859 96.7188C55.0599 96.5 55.5911 96.3906 56.1797 96.3906C56.7734 96.3906 57.3073 96.5 57.7812 96.7188C58.2604 96.9323 58.6667 97.2344 59 97.625C59.3385 98.0104 59.5964 98.4661 59.7734 98.9922C59.9505 99.513 60.0391 100.078 60.0391 100.688V100.867C60.0391 101.477 59.9505 102.042 59.7734 102.562C59.5964 103.083 59.3385 103.539 59 103.93C58.6667 104.315 58.263 104.617 57.7891 104.836C57.3203 105.049 56.7891 105.156 56.1953 105.156C55.6016 105.156 55.0677 105.049 54.5938 104.836C54.1198 104.617 53.7135 104.315 53.375 103.93C53.0417 103.539 52.7865 103.083 52.6094 102.562C52.4323 102.042 52.3438 101.477 52.3438 100.867ZM53.7891 100.688V100.867C53.7891 101.289 53.8385 101.688 53.9375 102.062C54.0365 102.432 54.1849 102.76 54.3828 103.047C54.5859 103.333 54.8385 103.56 55.1406 103.727C55.4427 103.888 55.7943 103.969 56.1953 103.969C56.5911 103.969 56.9375 103.888 57.2344 103.727C57.5365 103.56 57.7865 103.333 57.9844 103.047C58.1823 102.76 58.3307 102.432 58.4297 102.062C58.5339 101.688 58.5859 101.289 58.5859 100.867V100.688C58.5859 100.271 58.5339 99.8776 58.4297 99.5078C58.3307 99.1328 58.1797 98.8021 57.9766 98.5156C57.7786 98.224 57.5286 97.9948 57.2266 97.8281C56.9297 97.6615 56.5807 97.5781 56.1797 97.5781C55.7839 97.5781 55.4349 97.6615 55.1328 97.8281C54.8359 97.9948 54.5859 98.224 54.3828 98.5156C54.1849 98.8021 54.0365 99.1328 53.9375 99.5078C53.8385 99.8776 53.7891 100.271 53.7891 100.688ZM63.9922 103.5L66.1641 96.5469H67.1172L66.9297 97.9297L64.7188 105H63.7891L63.9922 103.5ZM62.5312 96.5469L64.3828 103.578L64.5156 105H63.5391L61.0859 96.5469H62.5312ZM69.1953 103.523L70.9609 96.5469H72.3984L69.9453 105H68.9766L69.1953 103.523ZM67.3281 96.5469L69.4531 103.383L69.6953 105H68.7734L66.5 97.9141L66.3125 96.5469H67.3281Z" fill="white"/>
</g>
<g filter="url(#filter1_d_1_1132)">
<path d="M150.797 93.625H152.258L155.984 102.898L159.703 93.625H161.172L156.547 105H155.406L150.797 93.625ZM150.32 93.625H151.609L151.82 100.562V105H150.32V93.625ZM160.352 93.625H161.641V105H160.141V100.562L160.352 93.625ZM167.578 105.156C166.99 105.156 166.456 105.057 165.977 104.859C165.503 104.656 165.094 104.372 164.75 104.008C164.411 103.643 164.151 103.211 163.969 102.711C163.786 102.211 163.695 101.664 163.695 101.07V100.742C163.695 100.055 163.797 99.4427 164 98.9062C164.203 98.3646 164.479 97.9062 164.828 97.5312C165.177 97.1562 165.573 96.8724 166.016 96.6797C166.458 96.487 166.917 96.3906 167.391 96.3906C167.995 96.3906 168.516 96.4948 168.953 96.7031C169.396 96.9115 169.758 97.2031 170.039 97.5781C170.32 97.9479 170.529 98.3854 170.664 98.8906C170.799 99.3906 170.867 99.9375 170.867 100.531V101.18H164.555V100H169.422V99.8906C169.401 99.5156 169.323 99.151 169.188 98.7969C169.057 98.4427 168.849 98.151 168.562 97.9219C168.276 97.6927 167.885 97.5781 167.391 97.5781C167.062 97.5781 166.76 97.6484 166.484 97.7891C166.208 97.9245 165.971 98.1276 165.773 98.3984C165.576 98.6693 165.422 99 165.312 99.3906C165.203 99.7812 165.148 100.232 165.148 100.742V101.07C165.148 101.471 165.203 101.849 165.312 102.203C165.427 102.552 165.591 102.859 165.805 103.125C166.023 103.391 166.286 103.599 166.594 103.75C166.906 103.901 167.26 103.977 167.656 103.977C168.167 103.977 168.599 103.872 168.953 103.664C169.307 103.456 169.617 103.177 169.883 102.828L170.758 103.523C170.576 103.799 170.344 104.062 170.062 104.312C169.781 104.562 169.435 104.766 169.023 104.922C168.617 105.078 168.135 105.156 167.578 105.156ZM177.883 103.359V93H179.336V105H178.008L177.883 103.359ZM172.195 100.867V100.703C172.195 100.057 172.273 99.4714 172.43 98.9453C172.591 98.4141 172.818 97.9583 173.109 97.5781C173.406 97.1979 173.758 96.9062 174.164 96.7031C174.576 96.4948 175.034 96.3906 175.539 96.3906C176.07 96.3906 176.534 96.4844 176.93 96.6719C177.331 96.8542 177.669 97.1224 177.945 97.4766C178.227 97.8255 178.448 98.2474 178.609 98.7422C178.771 99.237 178.883 99.7969 178.945 100.422V101.141C178.888 101.76 178.776 102.318 178.609 102.812C178.448 103.307 178.227 103.729 177.945 104.078C177.669 104.427 177.331 104.695 176.93 104.883C176.529 105.065 176.06 105.156 175.523 105.156C175.029 105.156 174.576 105.049 174.164 104.836C173.758 104.622 173.406 104.323 173.109 103.938C172.818 103.552 172.591 103.099 172.43 102.578C172.273 102.052 172.195 101.482 172.195 100.867ZM173.648 100.703V100.867C173.648 101.289 173.69 101.685 173.773 102.055C173.862 102.424 173.997 102.75 174.18 103.031C174.362 103.312 174.594 103.534 174.875 103.695C175.156 103.852 175.492 103.93 175.883 103.93C176.362 103.93 176.755 103.828 177.062 103.625C177.375 103.422 177.625 103.154 177.812 102.82C178 102.487 178.146 102.125 178.25 101.734V99.8516C178.188 99.5651 178.096 99.2891 177.977 99.0234C177.862 98.7526 177.711 98.513 177.523 98.3047C177.341 98.0911 177.115 97.9219 176.844 97.7969C176.578 97.6719 176.263 97.6094 175.898 97.6094C175.503 97.6094 175.161 97.6927 174.875 97.8594C174.594 98.0208 174.362 98.2448 174.18 98.5312C173.997 98.8125 173.862 99.1406 173.773 99.5156C173.69 99.8854 173.648 100.281 173.648 100.703ZM183.156 96.5469V105H181.703V96.5469H183.156ZM181.594 94.3047C181.594 94.0703 181.664 93.8724 181.805 93.7109C181.951 93.5495 182.164 93.4688 182.445 93.4688C182.721 93.4688 182.932 93.5495 183.078 93.7109C183.229 93.8724 183.305 94.0703 183.305 94.3047C183.305 94.5286 183.229 94.7214 183.078 94.8828C182.932 95.0391 182.721 95.1172 182.445 95.1172C182.164 95.1172 181.951 95.0391 181.805 94.8828C181.664 94.7214 181.594 94.5286 181.594 94.3047ZM190.648 103.047V96.5469H192.102V105H190.719L190.648 103.047ZM190.922 101.266L191.523 101.25C191.523 101.812 191.464 102.333 191.344 102.812C191.229 103.286 191.042 103.698 190.781 104.047C190.521 104.396 190.18 104.669 189.758 104.867C189.336 105.06 188.823 105.156 188.219 105.156C187.807 105.156 187.43 105.096 187.086 104.977C186.747 104.857 186.456 104.672 186.211 104.422C185.966 104.172 185.776 103.846 185.641 103.445C185.51 103.044 185.445 102.562 185.445 102V96.5469H186.891V102.016C186.891 102.396 186.932 102.711 187.016 102.961C187.104 103.206 187.221 103.401 187.367 103.547C187.518 103.688 187.685 103.786 187.867 103.844C188.055 103.901 188.247 103.93 188.445 103.93C189.06 103.93 189.547 103.812 189.906 103.578C190.266 103.339 190.523 103.018 190.68 102.617C190.841 102.211 190.922 101.76 190.922 101.266ZM195.742 98.2266V105H194.289V96.5469H195.664L195.742 98.2266ZM195.445 100.453L194.773 100.43C194.779 99.8516 194.854 99.3177 195 98.8281C195.146 98.3333 195.362 97.9036 195.648 97.5391C195.935 97.1745 196.292 96.8932 196.719 96.6953C197.146 96.4922 197.641 96.3906 198.203 96.3906C198.599 96.3906 198.964 96.4479 199.297 96.5625C199.63 96.6719 199.919 96.8464 200.164 97.0859C200.409 97.3255 200.599 97.6328 200.734 98.0078C200.87 98.3828 200.938 98.8359 200.938 99.3672V105H199.492V99.4375C199.492 98.9948 199.417 98.6406 199.266 98.375C199.12 98.1094 198.911 97.9167 198.641 97.7969C198.37 97.6719 198.052 97.6094 197.688 97.6094C197.26 97.6094 196.904 97.6849 196.617 97.8359C196.331 97.987 196.102 98.1953 195.93 98.4609C195.758 98.7266 195.633 99.0312 195.555 99.375C195.482 99.7135 195.445 100.073 195.445 100.453ZM200.922 99.6562L199.953 99.9531C199.958 99.4896 200.034 99.0443 200.18 98.6172C200.331 98.1901 200.547 97.8099 200.828 97.4766C201.115 97.1432 201.466 96.8802 201.883 96.6875C202.299 96.4896 202.776 96.3906 203.312 96.3906C203.766 96.3906 204.167 96.4505 204.516 96.5703C204.87 96.6901 205.167 96.875 205.406 97.125C205.651 97.3698 205.836 97.6849 205.961 98.0703C206.086 98.4557 206.148 98.9141 206.148 99.4453V105H204.695V99.4297C204.695 98.9557 204.62 98.5885 204.469 98.3281C204.323 98.0625 204.115 97.8776 203.844 97.7734C203.578 97.6641 203.26 97.6094 202.891 97.6094C202.573 97.6094 202.292 97.6641 202.047 97.7734C201.802 97.8828 201.596 98.0339 201.43 98.2266C201.263 98.4141 201.135 98.6302 201.047 98.875C200.964 99.1198 200.922 99.3802 200.922 99.6562Z" fill="white"/>
</g>
<g filter="url(#filter2_d_1_1132)">
<path d="M289.75 98.5156V99.7422H283.594V98.5156H289.75ZM283.828 93.625V105H282.32V93.625H283.828ZM291.062 93.625V105H289.562V93.625H291.062ZM295.094 96.5469V105H293.641V96.5469H295.094ZM293.531 94.3047C293.531 94.0703 293.602 93.8724 293.742 93.7109C293.888 93.5495 294.102 93.4688 294.383 93.4688C294.659 93.4688 294.87 93.5495 295.016 93.7109C295.167 93.8724 295.242 94.0703 295.242 94.3047C295.242 94.5286 295.167 94.7214 295.016 94.8828C294.87 95.0391 294.659 95.1172 294.383 95.1172C294.102 95.1172 293.888 95.0391 293.742 94.8828C293.602 94.7214 293.531 94.5286 293.531 94.3047ZM302.891 96.5469H304.203V104.82C304.203 105.565 304.052 106.201 303.75 106.727C303.448 107.253 303.026 107.651 302.484 107.922C301.948 108.198 301.328 108.336 300.625 108.336C300.333 108.336 299.99 108.289 299.594 108.195C299.203 108.107 298.818 107.953 298.438 107.734C298.062 107.521 297.747 107.232 297.492 106.867L298.25 106.008C298.604 106.435 298.974 106.732 299.359 106.898C299.75 107.065 300.135 107.148 300.516 107.148C300.974 107.148 301.37 107.062 301.703 106.891C302.036 106.719 302.294 106.464 302.477 106.125C302.664 105.792 302.758 105.38 302.758 104.891V98.4062L302.891 96.5469ZM297.07 100.867V100.703C297.07 100.057 297.146 99.4714 297.297 98.9453C297.453 98.4141 297.674 97.9583 297.961 97.5781C298.253 97.1979 298.604 96.9062 299.016 96.7031C299.427 96.4948 299.891 96.3906 300.406 96.3906C300.938 96.3906 301.401 96.4844 301.797 96.6719C302.198 96.8542 302.536 97.1224 302.812 97.4766C303.094 97.8255 303.315 98.2474 303.477 98.7422C303.638 99.237 303.75 99.7969 303.812 100.422V101.141C303.755 101.76 303.643 102.318 303.477 102.812C303.315 103.307 303.094 103.729 302.812 104.078C302.536 104.427 302.198 104.695 301.797 104.883C301.396 105.065 300.927 105.156 300.391 105.156C299.885 105.156 299.427 105.049 299.016 104.836C298.609 104.622 298.26 104.323 297.969 103.938C297.677 103.552 297.453 103.099 297.297 102.578C297.146 102.052 297.07 101.482 297.07 100.867ZM298.516 100.703V100.867C298.516 101.289 298.557 101.685 298.641 102.055C298.729 102.424 298.862 102.75 299.039 103.031C299.221 103.312 299.453 103.534 299.734 103.695C300.016 103.852 300.352 103.93 300.742 103.93C301.221 103.93 301.617 103.828 301.93 103.625C302.242 103.422 302.49 103.154 302.672 102.82C302.859 102.487 303.005 102.125 303.109 101.734V99.8516C303.052 99.5651 302.964 99.2891 302.844 99.0234C302.729 98.7526 302.578 98.513 302.391 98.3047C302.208 98.0911 301.982 97.9219 301.711 97.7969C301.44 97.6719 301.122 97.6094 300.758 97.6094C300.362 97.6094 300.021 97.6927 299.734 97.8594C299.453 98.0208 299.221 98.2448 299.039 98.5312C298.862 98.8125 298.729 99.1406 298.641 99.5156C298.557 99.8854 298.516 100.281 298.516 100.703ZM307.844 93V105H306.398V93H307.844ZM307.5 100.453L306.898 100.43C306.904 99.8516 306.99 99.3177 307.156 98.8281C307.323 98.3333 307.557 97.9036 307.859 97.5391C308.161 97.1745 308.521 96.8932 308.938 96.6953C309.359 96.4922 309.826 96.3906 310.336 96.3906C310.753 96.3906 311.128 96.4479 311.461 96.5625C311.794 96.6719 312.078 96.849 312.312 97.0938C312.552 97.3385 312.734 97.6562 312.859 98.0469C312.984 98.4323 313.047 98.9036 313.047 99.4609V105H311.594V99.4453C311.594 99.0026 311.529 98.6484 311.398 98.3828C311.268 98.112 311.078 97.9167 310.828 97.7969C310.578 97.6719 310.271 97.6094 309.906 97.6094C309.547 97.6094 309.219 97.6849 308.922 97.8359C308.63 97.987 308.378 98.1953 308.164 98.4609C307.956 98.7266 307.792 99.0312 307.672 99.375C307.557 99.7135 307.5 100.073 307.5 100.453Z" fill="white"/>
</g>
<rect y="76" width="116" height="5" rx="2.5" fill="#30343B"/>
<rect y="42" width="152" height="5" fill="#18B5FB"/>
<rect x="120" y="76" width="116" height="5" rx="2.5" fill="#3B5158"/>
<rect x="240" y="76" width="116" height="5" rx="2.5" fill="#0D5974"/>
<g filter="url(#filter3_d_1_1132)">
<path fill-rule="evenodd" clip-rule="evenodd" d="M144.645 77.9409C144.645 76.457 145.478 75.4273 145.478 75.4273L147.995 65.3453L150.519 75.4359C150.519 75.4359 151.376 76.6644 151.376 77.9409C151.376 79.9886 149.838 81.3047 147.993 81.3047C146.149 81.3047 144.645 79.7853 144.645 77.9409Z" fill="#08B7F6"/>
<path fill-rule="evenodd" clip-rule="evenodd" d="M144.645 77.9409C144.645 76.457 145.478 75.4273 145.478 75.4273L147.995 65.3453C147.995 65.3453 147.995 81.3047 147.993 81.3047C146.149 81.3047 144.645 79.7853 144.645 77.9409Z" fill="#08B7F6"/>
<path fill-rule="evenodd" clip-rule="evenodd" d="M151.341 77.9409C151.341 76.457 150.508 75.4273 150.508 75.4273L147.991 65.3453C147.991 65.3453 147.991 81.3047 147.993 81.3047C149.837 81.3047 151.341 79.7853 151.341 77.9409Z" fill="#0192C6"/>
<rect x="145.48" y="75" width="5" height="5" rx="2.5" fill="url(#paint0_linear_1_1132)"/>
</g>
</g>
<defs>
<filter id="filter0_d_1_1132" x="38.3203" y="90.625" width="40.0781" height="23.5312" filterUnits="userSpaceOnUse" color-interpolation-filters="sRGB">
<feFlood flood-opacity="0" result="BackgroundImageFix"/>
<feColorMatrix in="SourceAlpha" type="matrix" values="0 0 0 0 0 0 0 0 0 0 0 0 0 0 0 0 0 0 127 0" result="hardAlpha"/>
<feOffset dy="3"/>
<feGaussianBlur stdDeviation="3"/>
<feColorMatrix type="matrix" values="0 0 0 0 0 0 0 0 0 0 0 0 0 0 0 0 0 0 0.465527 0"/>
<feBlend mode="normal" in2="BackgroundImageFix" result="effect1_dropShadow_1_1132"/>
<feBlend mode="normal" in="SourceGraphic" in2="effect1_dropShadow_1_1132" result="shape"/>
</filter>
<filter id="filter1_d_1_1132" x="144.32" y="90" width="67.8281" height="24.1562" filterUnits="userSpaceOnUse" color-interpolation-filters="sRGB">
<feFlood flood-opacity="0" result="BackgroundImageFix"/>
<feColorMatrix in="SourceAlpha" type="matrix" values="0 0 0 0 0 0 0 0 0 0 0 0 0 0 0 0 0 0 127 0" result="hardAlpha"/>
<feOffset dy="3"/>
<feGaussianBlur stdDeviation="3"/>
<feColorMatrix type="matrix" values="0 0 0 0 0 0 0 0 0 0 0 0 0 0 0 0 0 0 0.465527 0"/>
<feBlend mode="normal" in2="BackgroundImageFix" result="effect1_dropShadow_1_1132"/>
<feBlend mode="normal" in="SourceGraphic" in2="effect1_dropShadow_1_1132" result="shape"/>
</filter>
<filter id="filter2_d_1_1132" x="276.32" y="90" width="42.7266" height="27.3359" filterUnits="userSpaceOnUse" color-interpolation-filters="sRGB">
<feFlood flood-opacity="0" result="BackgroundImageFix"/>
<feColorMatrix in="SourceAlpha" type="matrix" values="0 0 0 0 0 0 0 0 0 0 0 0 0 0 0 0 0 0 127 0" result="hardAlpha"/>
<feOffset dy="3"/>
<feGaussianBlur stdDeviation="3"/>
<feColorMatrix type="matrix" values="0 0 0 0 0 0 0 0 0 0 0 0 0 0 0 0 0 0 0.465527 0"/>
<feBlend mode="normal" in2="BackgroundImageFix" result="effect1_dropShadow_1_1132"/>
<feBlend mode="normal" in="SourceGraphic" in2="effect1_dropShadow_1_1132" result="shape"/>
</filter>
<filter id="filter3_d_1_1132" x="142.645" y="63.3452" width="10.7312" height="19.9595" filterUnits="userSpaceOnUse" color-interpolation-filters="sRGB">
<feFlood flood-opacity="0" result="BackgroundImageFix"/>
<feColorMatrix in="SourceAlpha" type="matrix" values="0 0 0 0 0 0 0 0 0 0 0 0 0 0 0 0 0 0 127 0" result="hardAlpha"/>
<feOffset/>
<feGaussianBlur stdDeviation="1"/>
<feColorMatrix type="matrix" values="0 0 0 0 0 0 0 0 0 0 0 0 0 0 0 0 0 0 1 0"/>
<feBlend mode="normal" in2="BackgroundImageFix" result="effect1_dropShadow_1_1132"/>
<feBlend mode="normal" in="SourceGraphic" in2="effect1_dropShadow_1_1132" result="shape"/>
</filter>
<linearGradient id="paint0_linear_1_1132" x1="145.48" y1="80" x2="150.48" y2="80" gradientUnits="userSpaceOnUse">
<stop stop-color="#0091C5"/>
<stop offset="1" stop-color="#41CDFF"/>
</linearGradient>
<clipPath id="clip0_1_1132">
<rect width="356" height="109" fill="white"/>
</clipPath>
</defs>
</svg>
