<svg width="828" height="115" viewBox="0 0 828 115" fill="none" xmlns="http://www.w3.org/2000/svg">
<g clip-path="url(#clip0_1_7847)">
<rect x="680" width="4" height="60" rx="2" fill="#0D5974"/>
<rect x="800" width="4" height="60" rx="2" fill="#0D5974"/>
<rect x="688" width="4" height="60" rx="2" fill="#0D5974"/>
<rect x="808" width="4" height="60" rx="2" fill="#0D5974"/>
<rect x="696" width="4" height="60" rx="2" fill="#0D5974"/>
<rect x="816" width="4" height="60" rx="2" fill="#0D5974"/>
<rect x="824" width="4" height="60" rx="2" fill="#0D5974"/>
<rect x="712" width="4" height="60" rx="2" fill="#0D5974"/>
<rect x="728" width="4" height="60" rx="2" fill="#0D5974"/>
<rect x="704" width="4" height="60" rx="2" fill="#0D5974"/>
<rect x="720" width="4" height="60" rx="2" fill="#0D5974"/>
<rect x="736" width="4" height="60" rx="2" fill="#0D5974"/>
<rect width="4" height="60" rx="2" transform="matrix(-1 0 0 1 676 0)" fill="#0D5974"/>
<rect width="4" height="60" rx="2" transform="matrix(-1 0 0 1 796 0)" fill="#0D5974"/>
<rect width="4" height="60" rx="2" transform="matrix(-1 0 0 1 668 0)" fill="#0D5974"/>
<rect x="432" width="4" height="22" rx="2" fill="#707A86"/>
<rect x="480" width="4" height="22" rx="2" fill="#707A86"/>
<rect x="536" width="4" height="22" rx="2" fill="#707A86"/>
<rect x="536" y="38" width="4" height="22" rx="2" fill="#707A86"/>
<rect x="480" y="38" width="4" height="22" rx="2" fill="#707A86"/>
<rect x="432" y="38" width="4" height="22" rx="2" fill="#707A86"/>
<rect x="592" width="4" height="60" rx="2" fill="#707A86"/>
<rect x="440" width="4" height="22" rx="2" fill="#707A86"/>
<rect x="488" width="4" height="22" rx="2" fill="#707A86"/>
<rect x="544" width="4" height="22" rx="2" fill="#707A86"/>
<rect x="544" y="38" width="4" height="22" rx="2" fill="#707A86"/>
<rect x="488" y="38" width="4" height="22" rx="2" fill="#707A86"/>
<rect x="440" y="38" width="4" height="22" rx="2" fill="#707A86"/>
<rect x="600" width="4" height="60" rx="2" fill="#707A86"/>
<rect x="448" width="4" height="22" rx="2" fill="#707A86"/>
<rect x="496" width="4" height="22" rx="2" fill="#707A86"/>
<rect x="552" width="4" height="22" rx="2" fill="#707A86"/>
<rect x="552" y="38" width="4" height="22" rx="2" fill="#707A86"/>
<rect x="496" y="38" width="4" height="22" rx="2" fill="#707A86"/>
<rect x="448" y="38" width="4" height="22" rx="2" fill="#707A86"/>
<rect x="608" width="4" height="60" rx="2" fill="#707A86"/>
<rect x="456" width="4" height="22" rx="2" fill="#707A86"/>
<rect x="504" width="4" height="22" rx="2" fill="#707A86"/>
<rect x="560" width="4" height="22" rx="2" fill="#707A86"/>
<rect x="560" y="38" width="4" height="22" rx="2" fill="#707A86"/>
<rect x="512" width="4" height="22" rx="2" fill="#707A86"/>
<rect x="568" width="4" height="22" rx="2" fill="#08B7F6"/>
<rect x="568" y="38" width="4" height="22" rx="2" fill="#08B7F6"/>
<rect x="504" y="38" width="4" height="22" rx="2" fill="#707A86"/>
<rect x="512" y="38" width="4" height="22" rx="2" fill="#707A86"/>
<rect x="456" y="38" width="4" height="22" rx="2" fill="#707A86"/>
<rect x="616" width="4" height="60" rx="2" fill="#707A86"/>
<rect width="4" height="22" rx="2" transform="matrix(-1 0 0 1 428 0)" fill="#707A86"/>
<rect width="4" height="22" rx="2" transform="matrix(-1 0 0 1 476 0)" fill="#707A86"/>
<rect width="4" height="22" rx="2" transform="matrix(-1 0 0 1 532 0)" fill="#707A86"/>
<rect width="4" height="22" rx="2" transform="matrix(-1 0 0 1 532 38)" fill="#707A86"/>
<rect width="4" height="22" rx="2" transform="matrix(-1 0 0 1 476 38)" fill="#707A86"/>
<rect width="4" height="22" rx="2" transform="matrix(-1 0 0 1 428 38)" fill="#707A86"/>
<rect width="4" height="60" rx="2" transform="matrix(-1 0 0 1 588 0)" fill="#707A86"/>
<rect width="4" height="22" rx="2" transform="matrix(-1 0 0 1 420 0)" fill="#707A86"/>
<rect width="4" height="22" rx="2" transform="matrix(-1 0 0 1 468 0)" fill="#707A86"/>
<rect width="4" height="22" rx="2" transform="matrix(-1 0 0 1 524 0)" fill="#707A86"/>
<rect width="4" height="22" rx="2" transform="matrix(-1 0 0 1 524 38)" fill="#707A86"/>
<rect width="4" height="22" rx="2" transform="matrix(-1 0 0 1 468 38)" fill="#707A86"/>
<rect width="4" height="22" rx="2" transform="matrix(-1 0 0 1 420 38)" fill="#707A86"/>
<rect width="4" height="60" rx="2" transform="matrix(-1 0 0 1 580 0)" fill="#707A86"/>
<rect width="4" height="60" rx="2" transform="matrix(-1 0 0 1 788 0)" fill="#0D5974"/>
<rect width="4" height="60" rx="2" transform="matrix(-1 0 0 1 652 0)" fill="#0D5974"/>
<rect width="4" height="60" rx="2" transform="matrix(-1 0 0 1 772 0)" fill="#0D5974"/>
<rect width="4" height="60" rx="2" transform="matrix(-1 0 0 1 636 0)" fill="#0D5974"/>
<rect width="4" height="60" rx="2" transform="matrix(-1 0 0 1 756 0)" fill="#0D5974"/>
<rect width="4" height="60" rx="2" transform="matrix(-1 0 0 1 660 0)" fill="#0D5974"/>
<rect width="4" height="60" rx="2" transform="matrix(-1 0 0 1 780 0)" fill="#0D5974"/>
<rect width="4" height="60" rx="2" transform="matrix(-1 0 0 1 644 0)" fill="#0D5974"/>
<rect width="4" height="60" rx="2" transform="matrix(-1 0 0 1 764 0)" fill="#0D5974"/>
<rect width="4" height="60" rx="2" transform="matrix(-1 0 0 1 628 0)" fill="#0D5974"/>
<rect x="264" width="4" height="22" rx="2" fill="#444B53"/>
<rect x="264" y="38" width="4" height="22" rx="2" fill="#444B53"/>
<rect x="384" width="4" height="22" rx="2" fill="#444B53"/>
<rect x="384" y="38" width="4" height="22" rx="2" fill="#444B53"/>
<rect x="272" width="4" height="22" rx="2" fill="#444B53"/>
<rect x="272" y="38" width="4" height="22" rx="2" fill="#444B53"/>
<rect x="392" width="4" height="22" rx="2" fill="#444B53"/>
<rect x="392" y="38" width="4" height="22" rx="2" fill="#444B53"/>
<rect x="280" width="4" height="22" rx="2" fill="#444B53"/>
<rect x="280" y="38" width="4" height="22" rx="2" fill="#444B53"/>
<rect x="400" width="4" height="22" rx="2" fill="#444B53"/>
<rect x="400" y="38" width="4" height="22" rx="2" fill="#444B53"/>
<rect x="296" width="4" height="22" rx="2" fill="#444B53"/>
<rect x="296" y="38" width="4" height="22" rx="2" fill="#444B53"/>
<rect x="312" width="4" height="22" rx="2" fill="#444B53"/>
<rect x="312" y="38" width="4" height="22" rx="2" fill="#444B53"/>
<rect x="288" width="4" height="22" rx="2" fill="#444B53"/>
<rect x="288" y="38" width="4" height="22" rx="2" fill="#444B53"/>
<rect x="304" width="4" height="22" rx="2" fill="#444B53"/>
<rect x="304" y="38" width="4" height="22" rx="2" fill="#444B53"/>
<rect x="320" width="4" height="22" rx="2" fill="#444B53"/>
<rect x="320" y="38" width="4" height="22" rx="2" fill="#444B53"/>
<rect width="4" height="22" rx="2" transform="matrix(-1 0 0 1 260 0)" fill="#444B53"/>
<rect width="4" height="22" rx="2" transform="matrix(-1 0 0 1 260 38)" fill="#444B53"/>
<rect width="4" height="22" rx="2" transform="matrix(-1 0 0 1 380 0)" fill="#444B53"/>
<rect width="4" height="22" rx="2" transform="matrix(-1 0 0 1 380 38)" fill="#444B53"/>
<rect width="4" height="22" rx="2" transform="matrix(-1 0 0 1 252 0)" fill="#444B53"/>
<rect width="4" height="22" rx="2" transform="matrix(-1 0 0 1 252 38)" fill="#444B53"/>
<rect width="4" height="22" rx="2" transform="matrix(-1 0 0 1 372 0)" fill="#444B53"/>
<rect width="4" height="22" rx="2" transform="matrix(-1 0 0 1 372 38)" fill="#444B53"/>
<rect width="4" height="22" rx="2" transform="matrix(-1 0 0 1 236 0)" fill="#444B53"/>
<rect width="4" height="22" rx="2" transform="matrix(-1 0 0 1 236 38)" fill="#444B53"/>
<rect width="4" height="22" rx="2" transform="matrix(-1 0 0 1 356 0)" fill="#444B53"/>
<rect width="4" height="22" rx="2" transform="matrix(-1 0 0 1 356 38)" fill="#444B53"/>
<rect width="4" height="22" rx="2" transform="matrix(-1 0 0 1 220 0)" fill="#444B53"/>
<rect width="4" height="22" rx="2" transform="matrix(-1 0 0 1 220 38)" fill="#444B53"/>
<rect width="4" height="22" rx="2" transform="matrix(-1 0 0 1 340 0)" fill="#444B53"/>
<rect width="4" height="22" rx="2" transform="matrix(-1 0 0 1 340 38)" fill="#444B53"/>
<rect width="4" height="22" rx="2" transform="matrix(-1 0 0 1 244 0)" fill="#444B53"/>
<rect width="4" height="22" rx="2" transform="matrix(-1 0 0 1 244 38)" fill="#444B53"/>
<rect width="4" height="22" rx="2" transform="matrix(-1 0 0 1 364 0)" fill="#444B53"/>
<rect width="4" height="22" rx="2" transform="matrix(-1 0 0 1 364 38)" fill="#444B53"/>
<rect width="4" height="22" rx="2" transform="matrix(-1 0 0 1 228 0)" fill="#444B53"/>
<rect width="4" height="22" rx="2" transform="matrix(-1 0 0 1 228 38)" fill="#444B53"/>
<rect width="4" height="22" rx="2" transform="matrix(-1 0 0 1 348 0)" fill="#444B53"/>
<rect width="4" height="22" rx="2" transform="matrix(-1 0 0 1 348 38)" fill="#444B53"/>
<rect width="4" height="22" rx="2" transform="matrix(-1 0 0 1 212 0)" fill="#444B53"/>
<rect width="4" height="22" rx="2" transform="matrix(-1 0 0 1 412 0)" fill="#444B53"/>
<rect width="4" height="22" rx="2" transform="matrix(-1 0 0 1 212 38)" fill="#444B53"/>
<rect width="4" height="22" rx="2" transform="matrix(-1 0 0 1 412 38)" fill="#444B53"/>
<rect width="4" height="22" rx="2" transform="matrix(-1 0 0 1 332 0)" fill="#444B53"/>
<rect width="4" height="22" rx="2" transform="matrix(-1 0 0 1 332 38)" fill="#444B53"/>
<rect x="56" width="4" height="22" rx="2" fill="#2D3137"/>
<rect x="56" y="38" width="4" height="22" rx="2" fill="#2D3137"/>
<rect x="176" width="4" height="22" rx="2" fill="#2D3137"/>
<rect x="176" y="38" width="4" height="22" rx="2" fill="#2D3137"/>
<rect x="64" width="4" height="22" rx="2" fill="#2D3137"/>
<rect x="64" y="38" width="4" height="22" rx="2" fill="#2D3137"/>
<rect x="184" width="4" height="22" rx="2" fill="#2D3137"/>
<rect x="184" y="38" width="4" height="22" rx="2" fill="#2D3137"/>
<rect x="72" width="4" height="22" rx="2" fill="#2D3137"/>
<rect x="72" y="38" width="4" height="22" rx="2" fill="#2D3137"/>
<rect x="192" width="4" height="22" rx="2" fill="#2D3137"/>
<rect x="192" y="38" width="4" height="22" rx="2" fill="#2D3137"/>
<rect x="88" width="4" height="22" rx="2" fill="#2D3137"/>
<rect x="88" y="38" width="4" height="22" rx="2" fill="#2D3137"/>
<rect x="104" width="4" height="22" rx="2" fill="#2D3137"/>
<rect x="104" y="38" width="4" height="22" rx="2" fill="#2D3137"/>
<rect x="80" width="4" height="22" rx="2" fill="#2D3137"/>
<rect x="80" y="38" width="4" height="22" rx="2" fill="#2D3137"/>
<rect x="96" width="4" height="22" rx="2" fill="#2D3137"/>
<rect x="96" y="38" width="4" height="22" rx="2" fill="#2D3137"/>
<rect x="112" width="4" height="22" rx="2" fill="#2D3137"/>
<rect x="112" y="38" width="4" height="22" rx="2" fill="#2D3137"/>
<rect width="4" height="22" rx="2" transform="matrix(-1 0 0 1 52 0)" fill="#2D3137"/>
<rect width="4" height="22" rx="2" transform="matrix(-1 0 0 1 52 38)" fill="#2D3137"/>
<rect width="4" height="22" rx="2" transform="matrix(-1 0 0 1 172 0)" fill="#2D3137"/>
<rect width="4" height="22" rx="2" transform="matrix(-1 0 0 1 172 38)" fill="#2D3137"/>
<rect width="4" height="22" rx="2" transform="matrix(-1 0 0 1 44 0)" fill="#2D3137"/>
<rect width="4" height="22" rx="2" transform="matrix(-1 0 0 1 44 38)" fill="#2D3137"/>
<rect width="4" height="22" rx="2" transform="matrix(-1 0 0 1 164 0)" fill="#2D3137"/>
<rect width="4" height="22" rx="2" transform="matrix(-1 0 0 1 164 38)" fill="#2D3137"/>
<rect width="4" height="22" rx="2" transform="matrix(-1 0 0 1 28 0)" fill="#2D3137"/>
<rect width="4" height="22" rx="2" transform="matrix(-1 0 0 1 28 38)" fill="#2D3137"/>
<rect width="4" height="22" rx="2" transform="matrix(-1 0 0 1 148 0)" fill="#2D3137"/>
<rect width="4" height="22" rx="2" transform="matrix(-1 0 0 1 148 38)" fill="#2D3137"/>
<rect width="4" height="22" rx="2" transform="matrix(-1 0 0 1 12 0)" fill="#2D3137"/>
<rect width="4" height="22" rx="2" transform="matrix(-1 0 0 1 12 38)" fill="#2D3137"/>
<rect width="4" height="22" rx="2" transform="matrix(-1 0 0 1 132 0)" fill="#2D3137"/>
<rect width="4" height="22" rx="2" transform="matrix(-1 0 0 1 132 38)" fill="#2D3137"/>
<rect width="4" height="22" rx="2" transform="matrix(-1 0 0 1 36 0)" fill="#2D3137"/>
<rect width="4" height="22" rx="2" transform="matrix(-1 0 0 1 36 38)" fill="#2D3137"/>
<rect width="4" height="22" rx="2" transform="matrix(-1 0 0 1 156 0)" fill="#2D3137"/>
<rect width="4" height="22" rx="2" transform="matrix(-1 0 0 1 204 0)" fill="#2D3137"/>
<rect width="4" height="22" rx="2" transform="matrix(-1 0 0 1 204 38)" fill="#2D3137"/>
<rect width="4" height="22" rx="2" transform="matrix(-1 0 0 1 156 38)" fill="#2D3137"/>
<rect width="4" height="22" rx="2" transform="matrix(-1 0 0 1 20 0)" fill="#2D3137"/>
<rect width="4" height="22" rx="2" transform="matrix(-1 0 0 1 20 38)" fill="#2D3137"/>
<rect width="4" height="22" rx="2" transform="matrix(-1 0 0 1 140 0)" fill="#2D3137"/>
<rect width="4" height="22" rx="2" transform="matrix(-1 0 0 1 140 38)" fill="#2D3137"/>
<rect width="4" height="22" rx="2" transform="matrix(-1 0 0 1 4 0)" fill="#2D3137"/>
<rect width="4" height="22" rx="2" transform="matrix(-1 0 0 1 4 38)" fill="#2D3137"/>
<rect width="4" height="22" rx="2" transform="matrix(-1 0 0 1 124 0)" fill="#2D3137"/>
<rect width="4" height="22" rx="2" transform="matrix(-1 0 0 1 124 38)" fill="#2D3137"/>
<rect width="4" height="60" rx="2" transform="matrix(-1 0 0 1 748 0)" fill="#0D5974"/>
<g filter="url(#filter0_d_1_7847)">
<rect width="572" height="6" transform="matrix(-1 0 0 1 572 27)" fill="#08B7F6"/>
</g>
<g filter="url(#filter1_d_1_7847)">
<path d="M708.078 104.953V105.672C708.078 106.526 707.971 107.292 707.758 107.969C707.544 108.646 707.237 109.221 706.836 109.695C706.435 110.169 705.953 110.531 705.391 110.781C704.833 111.031 704.208 111.156 703.516 111.156C702.844 111.156 702.227 111.031 701.664 110.781C701.107 110.531 700.622 110.169 700.211 109.695C699.805 109.221 699.49 108.646 699.266 107.969C699.042 107.292 698.93 106.526 698.93 105.672V104.953C698.93 104.099 699.039 103.336 699.258 102.664C699.482 101.987 699.797 101.411 700.203 100.938C700.609 100.458 701.091 100.094 701.648 99.8438C702.211 99.5938 702.828 99.4688 703.5 99.4688C704.193 99.4688 704.818 99.5938 705.375 99.8438C705.938 100.094 706.419 100.458 706.82 100.938C707.227 101.411 707.536 101.987 707.75 102.664C707.969 103.336 708.078 104.099 708.078 104.953ZM706.586 105.672V104.938C706.586 104.26 706.516 103.661 706.375 103.141C706.24 102.62 706.039 102.182 705.773 101.828C705.508 101.474 705.182 101.206 704.797 101.023C704.417 100.841 703.984 100.75 703.5 100.75C703.031 100.75 702.607 100.841 702.227 101.023C701.852 101.206 701.529 101.474 701.258 101.828C700.992 102.182 700.786 102.62 700.641 103.141C700.495 103.661 700.422 104.26 700.422 104.938V105.672C700.422 106.354 700.495 106.958 700.641 107.484C700.786 108.005 700.995 108.445 701.266 108.805C701.542 109.159 701.867 109.427 702.242 109.609C702.622 109.792 703.047 109.883 703.516 109.883C704.005 109.883 704.44 109.792 704.82 109.609C705.201 109.427 705.521 109.159 705.781 108.805C706.047 108.445 706.247 108.005 706.383 107.484C706.518 106.958 706.586 106.354 706.586 105.672ZM711.562 104.172V114.25H710.109V102.547H711.438L711.562 104.172ZM717.258 106.703V106.867C717.258 107.482 717.185 108.052 717.039 108.578C716.893 109.099 716.68 109.552 716.398 109.938C716.122 110.323 715.781 110.622 715.375 110.836C714.969 111.049 714.503 111.156 713.977 111.156C713.44 111.156 712.966 111.068 712.555 110.891C712.143 110.714 711.794 110.456 711.508 110.117C711.221 109.779 710.992 109.372 710.82 108.898C710.654 108.424 710.539 107.891 710.477 107.297V106.422C710.539 105.797 710.656 105.237 710.828 104.742C711 104.247 711.227 103.826 711.508 103.477C711.794 103.122 712.141 102.854 712.547 102.672C712.953 102.484 713.422 102.391 713.953 102.391C714.484 102.391 714.956 102.495 715.367 102.703C715.779 102.906 716.125 103.198 716.406 103.578C716.688 103.958 716.898 104.414 717.039 104.945C717.185 105.471 717.258 106.057 717.258 106.703ZM715.805 106.867V106.703C715.805 106.281 715.76 105.885 715.672 105.516C715.583 105.141 715.445 104.812 715.258 104.531C715.076 104.245 714.841 104.021 714.555 103.859C714.268 103.693 713.927 103.609 713.531 103.609C713.167 103.609 712.849 103.672 712.578 103.797C712.312 103.922 712.086 104.091 711.898 104.305C711.711 104.513 711.557 104.753 711.438 105.023C711.323 105.289 711.237 105.565 711.18 105.852V107.875C711.284 108.24 711.43 108.583 711.617 108.906C711.805 109.224 712.055 109.482 712.367 109.68C712.68 109.872 713.073 109.969 713.547 109.969C713.938 109.969 714.273 109.888 714.555 109.727C714.841 109.56 715.076 109.333 715.258 109.047C715.445 108.76 715.583 108.432 715.672 108.062C715.76 107.688 715.805 107.289 715.805 106.867ZM722.641 102.547V103.656H718.07V102.547H722.641ZM719.617 100.492H721.062V108.906C721.062 109.193 721.107 109.409 721.195 109.555C721.284 109.701 721.398 109.797 721.539 109.844C721.68 109.891 721.831 109.914 721.992 109.914C722.112 109.914 722.237 109.904 722.367 109.883C722.503 109.857 722.604 109.836 722.672 109.82L722.68 111C722.565 111.036 722.414 111.07 722.227 111.102C722.044 111.138 721.823 111.156 721.562 111.156C721.208 111.156 720.883 111.086 720.586 110.945C720.289 110.805 720.052 110.57 719.875 110.242C719.703 109.909 719.617 109.461 719.617 108.898V100.492ZM725.906 102.547V111H724.453V102.547H725.906ZM724.344 100.305C724.344 100.07 724.414 99.8724 724.555 99.7109C724.701 99.5495 724.914 99.4688 725.195 99.4688C725.471 99.4688 725.682 99.5495 725.828 99.7109C725.979 99.8724 726.055 100.07 726.055 100.305C726.055 100.529 725.979 100.721 725.828 100.883C725.682 101.039 725.471 101.117 725.195 101.117C724.914 101.117 724.701 101.039 724.555 100.883C724.414 100.721 724.344 100.529 724.344 100.305ZM729.664 104.227V111H728.211V102.547H729.586L729.664 104.227ZM729.367 106.453L728.695 106.43C728.701 105.852 728.776 105.318 728.922 104.828C729.068 104.333 729.284 103.904 729.57 103.539C729.857 103.174 730.214 102.893 730.641 102.695C731.068 102.492 731.562 102.391 732.125 102.391C732.521 102.391 732.885 102.448 733.219 102.562C733.552 102.672 733.841 102.846 734.086 103.086C734.331 103.326 734.521 103.633 734.656 104.008C734.792 104.383 734.859 104.836 734.859 105.367V111H733.414V105.438C733.414 104.995 733.339 104.641 733.188 104.375C733.042 104.109 732.833 103.917 732.562 103.797C732.292 103.672 731.974 103.609 731.609 103.609C731.182 103.609 730.826 103.685 730.539 103.836C730.253 103.987 730.023 104.195 729.852 104.461C729.68 104.727 729.555 105.031 729.477 105.375C729.404 105.714 729.367 106.073 729.367 106.453ZM734.844 105.656L733.875 105.953C733.88 105.49 733.956 105.044 734.102 104.617C734.253 104.19 734.469 103.81 734.75 103.477C735.036 103.143 735.388 102.88 735.805 102.688C736.221 102.49 736.698 102.391 737.234 102.391C737.688 102.391 738.089 102.451 738.438 102.57C738.792 102.69 739.089 102.875 739.328 103.125C739.573 103.37 739.758 103.685 739.883 104.07C740.008 104.456 740.07 104.914 740.07 105.445V111H738.617V105.43C738.617 104.956 738.542 104.589 738.391 104.328C738.245 104.062 738.036 103.878 737.766 103.773C737.5 103.664 737.182 103.609 736.812 103.609C736.495 103.609 736.214 103.664 735.969 103.773C735.724 103.883 735.518 104.034 735.352 104.227C735.185 104.414 735.057 104.63 734.969 104.875C734.885 105.12 734.844 105.38 734.844 105.656ZM747.242 109.555V105.203C747.242 104.87 747.174 104.581 747.039 104.336C746.909 104.086 746.711 103.893 746.445 103.758C746.18 103.622 745.852 103.555 745.461 103.555C745.096 103.555 744.776 103.617 744.5 103.742C744.229 103.867 744.016 104.031 743.859 104.234C743.708 104.438 743.633 104.656 743.633 104.891H742.188C742.188 104.589 742.266 104.289 742.422 103.992C742.578 103.695 742.802 103.427 743.094 103.188C743.391 102.943 743.745 102.75 744.156 102.609C744.573 102.464 745.036 102.391 745.547 102.391C746.161 102.391 746.703 102.495 747.172 102.703C747.646 102.911 748.016 103.227 748.281 103.648C748.552 104.065 748.688 104.589 748.688 105.219V109.156C748.688 109.438 748.711 109.737 748.758 110.055C748.81 110.372 748.885 110.646 748.984 110.875V111H747.477C747.404 110.833 747.346 110.612 747.305 110.336C747.263 110.055 747.242 109.794 747.242 109.555ZM747.492 105.875L747.508 106.891H746.047C745.635 106.891 745.268 106.924 744.945 106.992C744.622 107.055 744.352 107.151 744.133 107.281C743.914 107.411 743.747 107.576 743.633 107.773C743.518 107.966 743.461 108.193 743.461 108.453C743.461 108.719 743.521 108.961 743.641 109.18C743.76 109.398 743.94 109.573 744.18 109.703C744.424 109.828 744.724 109.891 745.078 109.891C745.521 109.891 745.911 109.797 746.25 109.609C746.589 109.422 746.857 109.193 747.055 108.922C747.258 108.651 747.367 108.388 747.383 108.133L748 108.828C747.964 109.047 747.865 109.289 747.703 109.555C747.542 109.82 747.326 110.076 747.055 110.32C746.789 110.56 746.471 110.76 746.102 110.922C745.737 111.078 745.326 111.156 744.867 111.156C744.294 111.156 743.792 111.044 743.359 110.82C742.932 110.596 742.599 110.297 742.359 109.922C742.125 109.542 742.008 109.117 742.008 108.648C742.008 108.195 742.096 107.797 742.273 107.453C742.451 107.104 742.706 106.815 743.039 106.586C743.372 106.352 743.773 106.174 744.242 106.055C744.711 105.935 745.234 105.875 745.812 105.875H747.492ZM752.531 99V111H751.078V99H752.531Z" fill="white"/>
</g>
<g filter="url(#filter2_d_1_7847)">
<path d="M502.07 99.625V111H500.555L494.828 102.227V111H493.32V99.625H494.828L500.578 108.422V99.625H502.07ZM504.141 106.867V106.688C504.141 106.078 504.229 105.513 504.406 104.992C504.583 104.466 504.839 104.01 505.172 103.625C505.505 103.234 505.909 102.932 506.383 102.719C506.857 102.5 507.388 102.391 507.977 102.391C508.57 102.391 509.104 102.5 509.578 102.719C510.057 102.932 510.464 103.234 510.797 103.625C511.135 104.01 511.393 104.466 511.57 104.992C511.747 105.513 511.836 106.078 511.836 106.688V106.867C511.836 107.477 511.747 108.042 511.57 108.562C511.393 109.083 511.135 109.539 510.797 109.93C510.464 110.315 510.06 110.617 509.586 110.836C509.117 111.049 508.586 111.156 507.992 111.156C507.398 111.156 506.865 111.049 506.391 110.836C505.917 110.617 505.51 110.315 505.172 109.93C504.839 109.539 504.583 109.083 504.406 108.562C504.229 108.042 504.141 107.477 504.141 106.867ZM505.586 106.688V106.867C505.586 107.289 505.635 107.688 505.734 108.062C505.833 108.432 505.982 108.76 506.18 109.047C506.383 109.333 506.635 109.56 506.938 109.727C507.24 109.888 507.591 109.969 507.992 109.969C508.388 109.969 508.734 109.888 509.031 109.727C509.333 109.56 509.583 109.333 509.781 109.047C509.979 108.76 510.128 108.432 510.227 108.062C510.331 107.688 510.383 107.289 510.383 106.867V106.688C510.383 106.271 510.331 105.878 510.227 105.508C510.128 105.133 509.977 104.802 509.773 104.516C509.576 104.224 509.326 103.995 509.023 103.828C508.727 103.661 508.378 103.578 507.977 103.578C507.581 103.578 507.232 103.661 506.93 103.828C506.633 103.995 506.383 104.224 506.18 104.516C505.982 104.802 505.833 105.133 505.734 105.508C505.635 105.878 505.586 106.271 505.586 106.688ZM515.094 103.875V111H513.648V102.547H515.055L515.094 103.875ZM517.734 102.5L517.727 103.844C517.607 103.818 517.492 103.802 517.383 103.797C517.279 103.786 517.159 103.781 517.023 103.781C516.69 103.781 516.396 103.833 516.141 103.938C515.885 104.042 515.669 104.188 515.492 104.375C515.315 104.562 515.174 104.786 515.07 105.047C514.971 105.302 514.906 105.583 514.875 105.891L514.469 106.125C514.469 105.615 514.518 105.135 514.617 104.688C514.721 104.24 514.88 103.844 515.094 103.5C515.307 103.151 515.578 102.88 515.906 102.688C516.24 102.49 516.635 102.391 517.094 102.391C517.198 102.391 517.318 102.404 517.453 102.43C517.589 102.451 517.682 102.474 517.734 102.5ZM520.508 104.227V111H519.055V102.547H520.43L520.508 104.227ZM520.211 106.453L519.539 106.43C519.544 105.852 519.62 105.318 519.766 104.828C519.911 104.333 520.128 103.904 520.414 103.539C520.701 103.174 521.057 102.893 521.484 102.695C521.911 102.492 522.406 102.391 522.969 102.391C523.365 102.391 523.729 102.448 524.062 102.562C524.396 102.672 524.685 102.846 524.93 103.086C525.174 103.326 525.365 103.633 525.5 104.008C525.635 104.383 525.703 104.836 525.703 105.367V111H524.258V105.438C524.258 104.995 524.182 104.641 524.031 104.375C523.885 104.109 523.677 103.917 523.406 103.797C523.135 103.672 522.818 103.609 522.453 103.609C522.026 103.609 521.669 103.685 521.383 103.836C521.096 103.987 520.867 104.195 520.695 104.461C520.523 104.727 520.398 105.031 520.32 105.375C520.247 105.714 520.211 106.073 520.211 106.453ZM525.688 105.656L524.719 105.953C524.724 105.49 524.799 105.044 524.945 104.617C525.096 104.19 525.312 103.81 525.594 103.477C525.88 103.143 526.232 102.88 526.648 102.688C527.065 102.49 527.542 102.391 528.078 102.391C528.531 102.391 528.932 102.451 529.281 102.57C529.635 102.69 529.932 102.875 530.172 103.125C530.417 103.37 530.602 103.685 530.727 104.07C530.852 104.456 530.914 104.914 530.914 105.445V111H529.461V105.43C529.461 104.956 529.385 104.589 529.234 104.328C529.089 104.062 528.88 103.878 528.609 103.773C528.344 103.664 528.026 103.609 527.656 103.609C527.339 103.609 527.057 103.664 526.812 103.773C526.568 103.883 526.362 104.034 526.195 104.227C526.029 104.414 525.901 104.63 525.812 104.875C525.729 105.12 525.688 105.38 525.688 105.656ZM538.086 109.555V105.203C538.086 104.87 538.018 104.581 537.883 104.336C537.753 104.086 537.555 103.893 537.289 103.758C537.023 103.622 536.695 103.555 536.305 103.555C535.94 103.555 535.62 103.617 535.344 103.742C535.073 103.867 534.859 104.031 534.703 104.234C534.552 104.438 534.477 104.656 534.477 104.891H533.031C533.031 104.589 533.109 104.289 533.266 103.992C533.422 103.695 533.646 103.427 533.938 103.188C534.234 102.943 534.589 102.75 535 102.609C535.417 102.464 535.88 102.391 536.391 102.391C537.005 102.391 537.547 102.495 538.016 102.703C538.49 102.911 538.859 103.227 539.125 103.648C539.396 104.065 539.531 104.589 539.531 105.219V109.156C539.531 109.438 539.555 109.737 539.602 110.055C539.654 110.372 539.729 110.646 539.828 110.875V111H538.32C538.247 110.833 538.19 110.612 538.148 110.336C538.107 110.055 538.086 109.794 538.086 109.555ZM538.336 105.875L538.352 106.891H536.891C536.479 106.891 536.112 106.924 535.789 106.992C535.466 107.055 535.195 107.151 534.977 107.281C534.758 107.411 534.591 107.576 534.477 107.773C534.362 107.966 534.305 108.193 534.305 108.453C534.305 108.719 534.365 108.961 534.484 109.18C534.604 109.398 534.784 109.573 535.023 109.703C535.268 109.828 535.568 109.891 535.922 109.891C536.365 109.891 536.755 109.797 537.094 109.609C537.432 109.422 537.701 109.193 537.898 108.922C538.102 108.651 538.211 108.388 538.227 108.133L538.844 108.828C538.807 109.047 538.708 109.289 538.547 109.555C538.385 109.82 538.169 110.076 537.898 110.32C537.633 110.56 537.315 110.76 536.945 110.922C536.581 111.078 536.169 111.156 535.711 111.156C535.138 111.156 534.635 111.044 534.203 110.82C533.776 110.596 533.443 110.297 533.203 109.922C532.969 109.542 532.852 109.117 532.852 108.648C532.852 108.195 532.94 107.797 533.117 107.453C533.294 107.104 533.549 106.815 533.883 106.586C534.216 106.352 534.617 106.174 535.086 106.055C535.555 105.935 536.078 105.875 536.656 105.875H538.336ZM543.375 99V111H541.922V99H543.375Z" fill="white"/>
</g>
<g filter="url(#filter3_d_1_7847)">
<path d="M248.797 99.625H250.258L253.984 108.898L257.703 99.625H259.172L254.547 111H253.406L248.797 99.625ZM248.32 99.625H249.609L249.82 106.562V111H248.32V99.625ZM258.352 99.625H259.641V111H258.141V106.562L258.352 99.625ZM261.688 106.867V106.688C261.688 106.078 261.776 105.513 261.953 104.992C262.13 104.466 262.385 104.01 262.719 103.625C263.052 103.234 263.456 102.932 263.93 102.719C264.404 102.5 264.935 102.391 265.523 102.391C266.117 102.391 266.651 102.5 267.125 102.719C267.604 102.932 268.01 103.234 268.344 103.625C268.682 104.01 268.94 104.466 269.117 104.992C269.294 105.513 269.383 106.078 269.383 106.688V106.867C269.383 107.477 269.294 108.042 269.117 108.562C268.94 109.083 268.682 109.539 268.344 109.93C268.01 110.315 267.607 110.617 267.133 110.836C266.664 111.049 266.133 111.156 265.539 111.156C264.945 111.156 264.411 111.049 263.938 110.836C263.464 110.617 263.057 110.315 262.719 109.93C262.385 109.539 262.13 109.083 261.953 108.562C261.776 108.042 261.688 107.477 261.688 106.867ZM263.133 106.688V106.867C263.133 107.289 263.182 107.688 263.281 108.062C263.38 108.432 263.529 108.76 263.727 109.047C263.93 109.333 264.182 109.56 264.484 109.727C264.786 109.888 265.138 109.969 265.539 109.969C265.935 109.969 266.281 109.888 266.578 109.727C266.88 109.56 267.13 109.333 267.328 109.047C267.526 108.76 267.674 108.432 267.773 108.062C267.878 107.688 267.93 107.289 267.93 106.867V106.688C267.93 106.271 267.878 105.878 267.773 105.508C267.674 105.133 267.523 104.802 267.32 104.516C267.122 104.224 266.872 103.995 266.57 103.828C266.273 103.661 265.924 103.578 265.523 103.578C265.128 103.578 264.779 103.661 264.477 103.828C264.18 103.995 263.93 104.224 263.727 104.516C263.529 104.802 263.38 105.133 263.281 105.508C263.182 105.878 263.133 106.271 263.133 106.688ZM276.523 109.359V99H277.977V111H276.648L276.523 109.359ZM270.836 106.867V106.703C270.836 106.057 270.914 105.471 271.07 104.945C271.232 104.414 271.458 103.958 271.75 103.578C272.047 103.198 272.398 102.906 272.805 102.703C273.216 102.495 273.674 102.391 274.18 102.391C274.711 102.391 275.174 102.484 275.57 102.672C275.971 102.854 276.31 103.122 276.586 103.477C276.867 103.826 277.089 104.247 277.25 104.742C277.411 105.237 277.523 105.797 277.586 106.422V107.141C277.529 107.76 277.417 108.318 277.25 108.812C277.089 109.307 276.867 109.729 276.586 110.078C276.31 110.427 275.971 110.695 275.57 110.883C275.169 111.065 274.701 111.156 274.164 111.156C273.669 111.156 273.216 111.049 272.805 110.836C272.398 110.622 272.047 110.323 271.75 109.938C271.458 109.552 271.232 109.099 271.07 108.578C270.914 108.052 270.836 107.482 270.836 106.867ZM272.289 106.703V106.867C272.289 107.289 272.331 107.685 272.414 108.055C272.503 108.424 272.638 108.75 272.82 109.031C273.003 109.312 273.234 109.534 273.516 109.695C273.797 109.852 274.133 109.93 274.523 109.93C275.003 109.93 275.396 109.828 275.703 109.625C276.016 109.422 276.266 109.154 276.453 108.82C276.641 108.487 276.786 108.125 276.891 107.734V105.852C276.828 105.565 276.737 105.289 276.617 105.023C276.503 104.753 276.352 104.513 276.164 104.305C275.982 104.091 275.755 103.922 275.484 103.797C275.219 103.672 274.904 103.609 274.539 103.609C274.143 103.609 273.802 103.693 273.516 103.859C273.234 104.021 273.003 104.245 272.82 104.531C272.638 104.812 272.503 105.141 272.414 105.516C272.331 105.885 272.289 106.281 272.289 106.703ZM283.734 111.156C283.146 111.156 282.612 111.057 282.133 110.859C281.659 110.656 281.25 110.372 280.906 110.008C280.568 109.643 280.307 109.211 280.125 108.711C279.943 108.211 279.852 107.664 279.852 107.07V106.742C279.852 106.055 279.953 105.443 280.156 104.906C280.359 104.365 280.635 103.906 280.984 103.531C281.333 103.156 281.729 102.872 282.172 102.68C282.615 102.487 283.073 102.391 283.547 102.391C284.151 102.391 284.672 102.495 285.109 102.703C285.552 102.911 285.914 103.203 286.195 103.578C286.477 103.948 286.685 104.385 286.82 104.891C286.956 105.391 287.023 105.938 287.023 106.531V107.18H280.711V106H285.578V105.891C285.557 105.516 285.479 105.151 285.344 104.797C285.214 104.443 285.005 104.151 284.719 103.922C284.432 103.693 284.042 103.578 283.547 103.578C283.219 103.578 282.917 103.648 282.641 103.789C282.365 103.924 282.128 104.128 281.93 104.398C281.732 104.669 281.578 105 281.469 105.391C281.359 105.781 281.305 106.232 281.305 106.742V107.07C281.305 107.471 281.359 107.849 281.469 108.203C281.583 108.552 281.747 108.859 281.961 109.125C282.18 109.391 282.443 109.599 282.75 109.75C283.062 109.901 283.417 109.977 283.812 109.977C284.323 109.977 284.755 109.872 285.109 109.664C285.464 109.456 285.773 109.177 286.039 108.828L286.914 109.523C286.732 109.799 286.5 110.062 286.219 110.312C285.938 110.562 285.591 110.766 285.18 110.922C284.773 111.078 284.292 111.156 283.734 111.156ZM290.156 103.875V111H288.711V102.547H290.117L290.156 103.875ZM292.797 102.5L292.789 103.844C292.669 103.818 292.555 103.802 292.445 103.797C292.341 103.786 292.221 103.781 292.086 103.781C291.753 103.781 291.458 103.833 291.203 103.938C290.948 104.042 290.732 104.188 290.555 104.375C290.378 104.562 290.237 104.786 290.133 105.047C290.034 105.302 289.969 105.583 289.938 105.891L289.531 106.125C289.531 105.615 289.581 105.135 289.68 104.688C289.784 104.24 289.943 103.844 290.156 103.5C290.37 103.151 290.641 102.88 290.969 102.688C291.302 102.49 291.698 102.391 292.156 102.391C292.26 102.391 292.38 102.404 292.516 102.43C292.651 102.451 292.745 102.474 292.797 102.5ZM298.805 109.555V105.203C298.805 104.87 298.737 104.581 298.602 104.336C298.471 104.086 298.273 103.893 298.008 103.758C297.742 103.622 297.414 103.555 297.023 103.555C296.659 103.555 296.339 103.617 296.062 103.742C295.792 103.867 295.578 104.031 295.422 104.234C295.271 104.438 295.195 104.656 295.195 104.891H293.75C293.75 104.589 293.828 104.289 293.984 103.992C294.141 103.695 294.365 103.427 294.656 103.188C294.953 102.943 295.307 102.75 295.719 102.609C296.135 102.464 296.599 102.391 297.109 102.391C297.724 102.391 298.266 102.495 298.734 102.703C299.208 102.911 299.578 103.227 299.844 103.648C300.115 104.065 300.25 104.589 300.25 105.219V109.156C300.25 109.438 300.273 109.737 300.32 110.055C300.372 110.372 300.448 110.646 300.547 110.875V111H299.039C298.966 110.833 298.909 110.612 298.867 110.336C298.826 110.055 298.805 109.794 298.805 109.555ZM299.055 105.875L299.07 106.891H297.609C297.198 106.891 296.831 106.924 296.508 106.992C296.185 107.055 295.914 107.151 295.695 107.281C295.477 107.411 295.31 107.576 295.195 107.773C295.081 107.966 295.023 108.193 295.023 108.453C295.023 108.719 295.083 108.961 295.203 109.18C295.323 109.398 295.503 109.573 295.742 109.703C295.987 109.828 296.286 109.891 296.641 109.891C297.083 109.891 297.474 109.797 297.812 109.609C298.151 109.422 298.419 109.193 298.617 108.922C298.82 108.651 298.93 108.388 298.945 108.133L299.562 108.828C299.526 109.047 299.427 109.289 299.266 109.555C299.104 109.82 298.888 110.076 298.617 110.32C298.352 110.56 298.034 110.76 297.664 110.922C297.299 111.078 296.888 111.156 296.43 111.156C295.857 111.156 295.354 111.044 294.922 110.82C294.495 110.596 294.161 110.297 293.922 109.922C293.688 109.542 293.57 109.117 293.57 108.648C293.57 108.195 293.659 107.797 293.836 107.453C294.013 107.104 294.268 106.815 294.602 106.586C294.935 106.352 295.336 106.174 295.805 106.055C296.273 105.935 296.797 105.875 297.375 105.875H299.055ZM306.062 102.547V103.656H301.492V102.547H306.062ZM303.039 100.492H304.484V108.906C304.484 109.193 304.529 109.409 304.617 109.555C304.706 109.701 304.82 109.797 304.961 109.844C305.102 109.891 305.253 109.914 305.414 109.914C305.534 109.914 305.659 109.904 305.789 109.883C305.924 109.857 306.026 109.836 306.094 109.82L306.102 111C305.987 111.036 305.836 111.07 305.648 111.102C305.466 111.138 305.245 111.156 304.984 111.156C304.63 111.156 304.305 111.086 304.008 110.945C303.711 110.805 303.474 110.57 303.297 110.242C303.125 109.909 303.039 109.461 303.039 108.898V100.492ZM311.266 111.156C310.677 111.156 310.143 111.057 309.664 110.859C309.19 110.656 308.781 110.372 308.438 110.008C308.099 109.643 307.839 109.211 307.656 108.711C307.474 108.211 307.383 107.664 307.383 107.07V106.742C307.383 106.055 307.484 105.443 307.688 104.906C307.891 104.365 308.167 103.906 308.516 103.531C308.865 103.156 309.26 102.872 309.703 102.68C310.146 102.487 310.604 102.391 311.078 102.391C311.682 102.391 312.203 102.495 312.641 102.703C313.083 102.911 313.445 103.203 313.727 103.578C314.008 103.948 314.216 104.385 314.352 104.891C314.487 105.391 314.555 105.938 314.555 106.531V107.18H308.242V106H313.109V105.891C313.089 105.516 313.01 105.151 312.875 104.797C312.745 104.443 312.536 104.151 312.25 103.922C311.964 103.693 311.573 103.578 311.078 103.578C310.75 103.578 310.448 103.648 310.172 103.789C309.896 103.924 309.659 104.128 309.461 104.398C309.263 104.669 309.109 105 309 105.391C308.891 105.781 308.836 106.232 308.836 106.742V107.07C308.836 107.471 308.891 107.849 309 108.203C309.115 108.552 309.279 108.859 309.492 109.125C309.711 109.391 309.974 109.599 310.281 109.75C310.594 109.901 310.948 109.977 311.344 109.977C311.854 109.977 312.286 109.872 312.641 109.664C312.995 109.456 313.305 109.177 313.57 108.828L314.445 109.523C314.263 109.799 314.031 110.062 313.75 110.312C313.469 110.562 313.122 110.766 312.711 110.922C312.305 111.078 311.823 111.156 311.266 111.156ZM317.812 99V111H316.359V99H317.812ZM322.508 110.125L324.859 102.547H326.406L323.016 112.305C322.938 112.513 322.833 112.737 322.703 112.977C322.578 113.221 322.417 113.453 322.219 113.672C322.021 113.891 321.781 114.068 321.5 114.203C321.224 114.344 320.893 114.414 320.508 114.414C320.393 114.414 320.247 114.398 320.07 114.367C319.893 114.336 319.768 114.31 319.695 114.289L319.688 113.117C319.729 113.122 319.794 113.128 319.883 113.133C319.977 113.143 320.042 113.148 320.078 113.148C320.406 113.148 320.685 113.104 320.914 113.016C321.143 112.932 321.336 112.789 321.492 112.586C321.654 112.388 321.792 112.115 321.906 111.766L322.508 110.125ZM320.781 102.547L322.977 109.109L323.352 110.633L322.312 111.164L319.203 102.547H320.781ZM333.406 99.625V111H331.898V99.625H333.406ZM338.172 104.742V105.977H333.078V104.742H338.172ZM338.945 99.625V100.859H333.078V99.625H338.945ZM345.242 109.555V105.203C345.242 104.87 345.174 104.581 345.039 104.336C344.909 104.086 344.711 103.893 344.445 103.758C344.18 103.622 343.852 103.555 343.461 103.555C343.096 103.555 342.776 103.617 342.5 103.742C342.229 103.867 342.016 104.031 341.859 104.234C341.708 104.438 341.633 104.656 341.633 104.891H340.188C340.188 104.589 340.266 104.289 340.422 103.992C340.578 103.695 340.802 103.427 341.094 103.188C341.391 102.943 341.745 102.75 342.156 102.609C342.573 102.464 343.036 102.391 343.547 102.391C344.161 102.391 344.703 102.495 345.172 102.703C345.646 102.911 346.016 103.227 346.281 103.648C346.552 104.065 346.688 104.589 346.688 105.219V109.156C346.688 109.438 346.711 109.737 346.758 110.055C346.81 110.372 346.885 110.646 346.984 110.875V111H345.477C345.404 110.833 345.346 110.612 345.305 110.336C345.263 110.055 345.242 109.794 345.242 109.555ZM345.492 105.875L345.508 106.891H344.047C343.635 106.891 343.268 106.924 342.945 106.992C342.622 107.055 342.352 107.151 342.133 107.281C341.914 107.411 341.747 107.576 341.633 107.773C341.518 107.966 341.461 108.193 341.461 108.453C341.461 108.719 341.521 108.961 341.641 109.18C341.76 109.398 341.94 109.573 342.18 109.703C342.424 109.828 342.724 109.891 343.078 109.891C343.521 109.891 343.911 109.797 344.25 109.609C344.589 109.422 344.857 109.193 345.055 108.922C345.258 108.651 345.367 108.388 345.383 108.133L346 108.828C345.964 109.047 345.865 109.289 345.703 109.555C345.542 109.82 345.326 110.076 345.055 110.32C344.789 110.56 344.471 110.76 344.102 110.922C343.737 111.078 343.326 111.156 342.867 111.156C342.294 111.156 341.792 111.044 341.359 110.82C340.932 110.596 340.599 110.297 340.359 109.922C340.125 109.542 340.008 109.117 340.008 108.648C340.008 108.195 340.096 107.797 340.273 107.453C340.451 107.104 340.706 106.815 341.039 106.586C341.372 106.352 341.773 106.174 342.242 106.055C342.711 105.935 343.234 105.875 343.812 105.875H345.492ZM354.133 109.047V102.547H355.586V111H354.203L354.133 109.047ZM354.406 107.266L355.008 107.25C355.008 107.812 354.948 108.333 354.828 108.812C354.714 109.286 354.526 109.698 354.266 110.047C354.005 110.396 353.664 110.669 353.242 110.867C352.82 111.06 352.307 111.156 351.703 111.156C351.292 111.156 350.914 111.096 350.57 110.977C350.232 110.857 349.94 110.672 349.695 110.422C349.451 110.172 349.26 109.846 349.125 109.445C348.995 109.044 348.93 108.562 348.93 108V102.547H350.375V108.016C350.375 108.396 350.417 108.711 350.5 108.961C350.589 109.206 350.706 109.401 350.852 109.547C351.003 109.688 351.169 109.786 351.352 109.844C351.539 109.901 351.732 109.93 351.93 109.93C352.544 109.93 353.031 109.812 353.391 109.578C353.75 109.339 354.008 109.018 354.164 108.617C354.326 108.211 354.406 107.76 354.406 107.266ZM359.359 99V111H357.906V99H359.359ZM365.219 102.547V103.656H360.648V102.547H365.219ZM362.195 100.492H363.641V108.906C363.641 109.193 363.685 109.409 363.773 109.555C363.862 109.701 363.977 109.797 364.117 109.844C364.258 109.891 364.409 109.914 364.57 109.914C364.69 109.914 364.815 109.904 364.945 109.883C365.081 109.857 365.182 109.836 365.25 109.82L365.258 111C365.143 111.036 364.992 111.07 364.805 111.102C364.622 111.138 364.401 111.156 364.141 111.156C363.786 111.156 363.461 111.086 363.164 110.945C362.867 110.805 362.63 110.57 362.453 110.242C362.281 109.909 362.195 109.461 362.195 108.898V100.492ZM369.289 110.125L371.641 102.547H373.188L369.797 112.305C369.719 112.513 369.615 112.737 369.484 112.977C369.359 113.221 369.198 113.453 369 113.672C368.802 113.891 368.562 114.068 368.281 114.203C368.005 114.344 367.674 114.414 367.289 114.414C367.174 114.414 367.029 114.398 366.852 114.367C366.674 114.336 366.549 114.31 366.477 114.289L366.469 113.117C366.51 113.122 366.576 113.128 366.664 113.133C366.758 113.143 366.823 113.148 366.859 113.148C367.188 113.148 367.466 113.104 367.695 113.016C367.924 112.932 368.117 112.789 368.273 112.586C368.435 112.388 368.573 112.115 368.688 111.766L369.289 110.125ZM367.562 102.547L369.758 109.109L370.133 110.633L369.094 111.164L365.984 102.547H367.562Z" fill="white"/>
</g>
<g filter="url(#filter4_d_1_7847)">
<path d="M83.8281 99.625V111H82.3203V99.625H83.8281ZM88.5938 104.742V105.977H83.5V104.742H88.5938ZM89.3672 99.625V100.859H83.5V99.625H89.3672ZM95.6641 109.555V105.203C95.6641 104.87 95.5964 104.581 95.4609 104.336C95.3307 104.086 95.1328 103.893 94.8672 103.758C94.6016 103.622 94.2734 103.555 93.8828 103.555C93.5182 103.555 93.1979 103.617 92.9219 103.742C92.651 103.867 92.4375 104.031 92.2812 104.234C92.1302 104.438 92.0547 104.656 92.0547 104.891H90.6094C90.6094 104.589 90.6875 104.289 90.8438 103.992C91 103.695 91.224 103.427 91.5156 103.188C91.8125 102.943 92.1667 102.75 92.5781 102.609C92.9948 102.464 93.4583 102.391 93.9688 102.391C94.5833 102.391 95.125 102.495 95.5938 102.703C96.0677 102.911 96.4375 103.227 96.7031 103.648C96.974 104.065 97.1094 104.589 97.1094 105.219V109.156C97.1094 109.438 97.1328 109.737 97.1797 110.055C97.2318 110.372 97.3073 110.646 97.4062 110.875V111H95.8984C95.8255 110.833 95.7682 110.612 95.7266 110.336C95.6849 110.055 95.6641 109.794 95.6641 109.555ZM95.9141 105.875L95.9297 106.891H94.4688C94.0573 106.891 93.6901 106.924 93.3672 106.992C93.0443 107.055 92.7734 107.151 92.5547 107.281C92.3359 107.411 92.1693 107.576 92.0547 107.773C91.9401 107.966 91.8828 108.193 91.8828 108.453C91.8828 108.719 91.9427 108.961 92.0625 109.18C92.1823 109.398 92.362 109.573 92.6016 109.703C92.8464 109.828 93.1458 109.891 93.5 109.891C93.9427 109.891 94.3333 109.797 94.6719 109.609C95.0104 109.422 95.2786 109.193 95.4766 108.922C95.6797 108.651 95.7891 108.388 95.8047 108.133L96.4219 108.828C96.3854 109.047 96.2865 109.289 96.125 109.555C95.9635 109.82 95.7474 110.076 95.4766 110.32C95.2109 110.56 94.8932 110.76 94.5234 110.922C94.1589 111.078 93.7474 111.156 93.2891 111.156C92.7161 111.156 92.2135 111.044 91.7812 110.82C91.3542 110.596 91.0208 110.297 90.7812 109.922C90.5469 109.542 90.4297 109.117 90.4297 108.648C90.4297 108.195 90.5182 107.797 90.6953 107.453C90.8724 107.104 91.1276 106.815 91.4609 106.586C91.7943 106.352 92.1953 106.174 92.6641 106.055C93.1328 105.935 93.6562 105.875 94.2344 105.875H95.9141ZM104.555 109.047V102.547H106.008V111H104.625L104.555 109.047ZM104.828 107.266L105.43 107.25C105.43 107.812 105.37 108.333 105.25 108.812C105.135 109.286 104.948 109.698 104.688 110.047C104.427 110.396 104.086 110.669 103.664 110.867C103.242 111.06 102.729 111.156 102.125 111.156C101.714 111.156 101.336 111.096 100.992 110.977C100.654 110.857 100.362 110.672 100.117 110.422C99.8724 110.172 99.6823 109.846 99.5469 109.445C99.4167 109.044 99.3516 108.562 99.3516 108V102.547H100.797V108.016C100.797 108.396 100.839 108.711 100.922 108.961C101.01 109.206 101.128 109.401 101.273 109.547C101.424 109.688 101.591 109.786 101.773 109.844C101.961 109.901 102.154 109.93 102.352 109.93C102.966 109.93 103.453 109.812 103.812 109.578C104.172 109.339 104.43 109.018 104.586 108.617C104.747 108.211 104.828 107.76 104.828 107.266ZM109.781 99V111H108.328V99H109.781ZM115.641 102.547V103.656H111.07V102.547H115.641ZM112.617 100.492H114.062V108.906C114.062 109.193 114.107 109.409 114.195 109.555C114.284 109.701 114.398 109.797 114.539 109.844C114.68 109.891 114.831 109.914 114.992 109.914C115.112 109.914 115.237 109.904 115.367 109.883C115.503 109.857 115.604 109.836 115.672 109.82L115.68 111C115.565 111.036 115.414 111.07 115.227 111.102C115.044 111.138 114.823 111.156 114.562 111.156C114.208 111.156 113.883 111.086 113.586 110.945C113.289 110.805 113.052 110.57 112.875 110.242C112.703 109.909 112.617 109.461 112.617 108.898V100.492ZM119.711 110.125L122.062 102.547H123.609L120.219 112.305C120.141 112.513 120.036 112.737 119.906 112.977C119.781 113.221 119.62 113.453 119.422 113.672C119.224 113.891 118.984 114.068 118.703 114.203C118.427 114.344 118.096 114.414 117.711 114.414C117.596 114.414 117.451 114.398 117.273 114.367C117.096 114.336 116.971 114.31 116.898 114.289L116.891 113.117C116.932 113.122 116.997 113.128 117.086 113.133C117.18 113.143 117.245 113.148 117.281 113.148C117.609 113.148 117.888 113.104 118.117 113.016C118.346 112.932 118.539 112.789 118.695 112.586C118.857 112.388 118.995 112.115 119.109 111.766L119.711 110.125ZM117.984 102.547L120.18 109.109L120.555 110.633L119.516 111.164L116.406 102.547H117.984Z" fill="white"/>
</g>
<rect y="72" width="204" height="5" rx="2.5" fill="#26292E"/>
<rect x="208" y="72" width="204" height="5" rx="2.5" fill="#444B53"/>
<rect x="416" y="72" width="204" height="5" rx="2.5" fill="#3C5259"/>
<rect x="624" y="72" width="204" height="5" rx="2.5" fill="#0D5974"/>
<g filter="url(#filter5_d_1_7847)">
<path fill-rule="evenodd" clip-rule="evenodd" d="M566.645 77.9409C566.645 76.457 567.478 75.4273 567.478 75.4273L569.995 65.3453L572.519 75.4359C572.519 75.4359 573.376 76.6644 573.376 77.9409C573.376 79.9886 571.838 81.3047 569.993 81.3047C568.149 81.3047 566.645 79.7853 566.645 77.9409Z" fill="#08B7F6"/>
<path fill-rule="evenodd" clip-rule="evenodd" d="M566.645 77.9409C566.645 76.457 567.478 75.4273 567.478 75.4273L569.995 65.3453C569.995 65.3453 569.995 81.3047 569.993 81.3047C568.149 81.3047 566.645 79.7853 566.645 77.9409Z" fill="#08B7F6"/>
<path fill-rule="evenodd" clip-rule="evenodd" d="M573.342 77.9409C573.342 76.457 572.508 75.4273 572.508 75.4273L569.991 65.3453C569.991 65.3453 569.991 81.3047 569.993 81.3047C571.837 81.3047 573.342 79.7853 573.342 77.9409Z" fill="#0192C6"/>
<rect x="567.48" y="75" width="5" height="5" rx="2.5" fill="url(#paint0_linear_1_7847)"/>
</g>
</g>
<defs>
<filter id="filter0_d_1_7847" x="-20" y="18" width="592" height="26" filterUnits="userSpaceOnUse" color-interpolation-filters="sRGB">
<feFlood flood-opacity="0" result="BackgroundImageFix"/>
<feColorMatrix in="SourceAlpha" type="matrix" values="0 0 0 0 0 0 0 0 0 0 0 0 0 0 0 0 0 0 127 0" result="hardAlpha"/>
<feOffset dx="-10" dy="1"/>
<feGaussianBlur stdDeviation="5"/>
<feColorMatrix type="matrix" values="0 0 0 0 0 0 0 0 0 0 0 0 0 0 0 0 0 0 0.142237 0"/>
<feBlend mode="normal" in2="BackgroundImageFix" result="effect1_dropShadow_1_7847"/>
<feBlend mode="normal" in="SourceGraphic" in2="effect1_dropShadow_1_7847" result="shape"/>
</filter>
<filter id="filter1_d_1_7847" x="692.93" y="96" width="65.6016" height="27.25" filterUnits="userSpaceOnUse" color-interpolation-filters="sRGB">
<feFlood flood-opacity="0" result="BackgroundImageFix"/>
<feColorMatrix in="SourceAlpha" type="matrix" values="0 0 0 0 0 0 0 0 0 0 0 0 0 0 0 0 0 0 127 0" result="hardAlpha"/>
<feOffset dy="3"/>
<feGaussianBlur stdDeviation="3"/>
<feColorMatrix type="matrix" values="0 0 0 0 0 0 0 0 0 0 0 0 0 0 0 0 0 0 0.465527 0"/>
<feBlend mode="normal" in2="BackgroundImageFix" result="effect1_dropShadow_1_7847"/>
<feBlend mode="normal" in="SourceGraphic" in2="effect1_dropShadow_1_7847" result="shape"/>
</filter>
<filter id="filter2_d_1_7847" x="487.32" y="96" width="62.0547" height="24.1562" filterUnits="userSpaceOnUse" color-interpolation-filters="sRGB">
<feFlood flood-opacity="0" result="BackgroundImageFix"/>
<feColorMatrix in="SourceAlpha" type="matrix" values="0 0 0 0 0 0 0 0 0 0 0 0 0 0 0 0 0 0 127 0" result="hardAlpha"/>
<feOffset dy="3"/>
<feGaussianBlur stdDeviation="3"/>
<feColorMatrix type="matrix" values="0 0 0 0 0 0 0 0 0 0 0 0 0 0 0 0 0 0 0.465527 0"/>
<feBlend mode="normal" in2="BackgroundImageFix" result="effect1_dropShadow_1_7847"/>
<feBlend mode="normal" in="SourceGraphic" in2="effect1_dropShadow_1_7847" result="shape"/>
</filter>
<filter id="filter3_d_1_7847" x="242.32" y="96" width="136.867" height="27.4141" filterUnits="userSpaceOnUse" color-interpolation-filters="sRGB">
<feFlood flood-opacity="0" result="BackgroundImageFix"/>
<feColorMatrix in="SourceAlpha" type="matrix" values="0 0 0 0 0 0 0 0 0 0 0 0 0 0 0 0 0 0 127 0" result="hardAlpha"/>
<feOffset dy="3"/>
<feGaussianBlur stdDeviation="3"/>
<feColorMatrix type="matrix" values="0 0 0 0 0 0 0 0 0 0 0 0 0 0 0 0 0 0 0.465527 0"/>
<feBlend mode="normal" in2="BackgroundImageFix" result="effect1_dropShadow_1_7847"/>
<feBlend mode="normal" in="SourceGraphic" in2="effect1_dropShadow_1_7847" result="shape"/>
</filter>
<filter id="filter4_d_1_7847" x="76.3203" y="96" width="53.2891" height="27.4141" filterUnits="userSpaceOnUse" color-interpolation-filters="sRGB">
<feFlood flood-opacity="0" result="BackgroundImageFix"/>
<feColorMatrix in="SourceAlpha" type="matrix" values="0 0 0 0 0 0 0 0 0 0 0 0 0 0 0 0 0 0 127 0" result="hardAlpha"/>
<feOffset dy="3"/>
<feGaussianBlur stdDeviation="3"/>
<feColorMatrix type="matrix" values="0 0 0 0 0 0 0 0 0 0 0 0 0 0 0 0 0 0 0.465527 0"/>
<feBlend mode="normal" in2="BackgroundImageFix" result="effect1_dropShadow_1_7847"/>
<feBlend mode="normal" in="SourceGraphic" in2="effect1_dropShadow_1_7847" result="shape"/>
</filter>
<filter id="filter5_d_1_7847" x="564.645" y="63.3452" width="10.731" height="19.9595" filterUnits="userSpaceOnUse" color-interpolation-filters="sRGB">
<feFlood flood-opacity="0" result="BackgroundImageFix"/>
<feColorMatrix in="SourceAlpha" type="matrix" values="0 0 0 0 0 0 0 0 0 0 0 0 0 0 0 0 0 0 127 0" result="hardAlpha"/>
<feOffset/>
<feGaussianBlur stdDeviation="1"/>
<feColorMatrix type="matrix" values="0 0 0 0 0 0 0 0 0 0 0 0 0 0 0 0 0 0 1 0"/>
<feBlend mode="normal" in2="BackgroundImageFix" result="effect1_dropShadow_1_7847"/>
<feBlend mode="normal" in="SourceGraphic" in2="effect1_dropShadow_1_7847" result="shape"/>
</filter>
<linearGradient id="paint0_linear_1_7847" x1="567.48" y1="80" x2="572.48" y2="80" gradientUnits="userSpaceOnUse">
<stop stop-color="#0091C5"/>
<stop offset="1" stop-color="#41CDFF"/>
</linearGradient>
<clipPath id="clip0_1_7847">
<rect width="828" height="115" fill="white"/>
</clipPath>
</defs>
</svg>
