<svg width="300" height="300" viewBox="0 0 447 429" fill="none" xmlns="http://www.w3.org/2000/svg">
<path fill-rule="evenodd" clip-rule="evenodd" d="M15.8472 171.843C33.7445 131.697 79.606 59.2122 148.957 30.2187C148.957 30.2187 227.259 -12.1579 305.56 3.45368C383.86 19.0665 414.062 42.4845 433.077 93.7824C433.077 93.7824 457.687 174.074 440.908 263.286C424.129 352.499 402.876 430.561 295.492 428.33C188.108 426.099 159.024 362.513 136.653 361.967C114.281 361.42 70.5656 332.029 48.2857 327.965C-20.8982 315.351 -0.0726109 207.553 15.8472 171.843Z" fill="#30353C"/>
<path fill-rule="evenodd" clip-rule="evenodd" d="M61.7756 322.816C47.924 322.816 36.6963 311.587 36.6963 297.735V62.3273C36.6963 48.4771 47.924 37.248 61.7756 37.248H385.584C399.435 37.248 410.663 48.4771 410.663 62.3273V297.735C410.663 311.587 399.435 322.816 385.584 322.816H61.7756Z" fill="#1C1F24"/>
<path fill-rule="evenodd" clip-rule="evenodd" d="M385.584 322.816H61.7756C47.924 322.816 36.6963 311.587 36.6963 297.735V62.3273C36.6963 48.4771 47.924 37.248 61.7756 37.248H385.584C399.435 37.248 410.663 48.4771 410.663 62.3273V297.735C410.663 311.587 399.435 322.816 385.584 322.816Z" stroke="#020202" stroke-width="0.378"/>
<path fill-rule="evenodd" clip-rule="evenodd" d="M82.8976 306.686C69.0474 306.686 57.8184 295.457 57.8184 281.606V78.458C57.8184 64.6065 69.0474 53.3774 82.8976 53.3774H364.461C378.312 53.3774 389.54 64.6065 389.54 78.458V281.606C389.54 295.457 378.312 306.686 364.461 306.686H82.8976Z" fill="#282C32"/>
<path fill-rule="evenodd" clip-rule="evenodd" d="M364.461 306.686H82.8976C69.0474 306.686 57.8184 295.457 57.8184 281.606V78.458C57.8184 64.6065 69.0474 53.3774 82.8976 53.3774H364.461C378.312 53.3774 389.54 64.6065 389.54 78.458V281.606C389.54 295.457 378.312 306.686 364.461 306.686Z" stroke="#020202" stroke-width="0.335"/>
<path fill-rule="evenodd" clip-rule="evenodd" d="M333.367 85.3707H113.992C109.518 85.3707 105.856 81.7092 105.856 77.235C105.856 72.7607 109.518 69.0979 113.992 69.0979H333.367C337.841 69.0979 341.502 72.7607 341.502 77.235C341.502 81.7092 337.841 85.3707 333.367 85.3707Z" fill="#4D5259"/>
<path fill-rule="evenodd" clip-rule="evenodd" d="M77.5303 186.696H149.866V108.656H77.5303V186.696Z" fill="#474F5B"/>
<path fill-rule="evenodd" clip-rule="evenodd" d="M77.5303 207.691H222.201V196.919H77.5303V207.691Z" fill="#363B43"/>
<path fill-rule="evenodd" clip-rule="evenodd" d="M156.441 115.377H222.201V110.116H156.441V115.377Z" fill="#4C5460"/>
<path fill-rule="evenodd" clip-rule="evenodd" d="M173.539 152.202H222.201V146.942H173.539V152.202Z" fill="#97B8FF"/>
<path fill-rule="evenodd" clip-rule="evenodd" d="M156.441 140.366H222.201V135.105H156.441V140.366Z" fill="#4C5460"/>
<path fill-rule="evenodd" clip-rule="evenodd" d="M156.441 177.191H222.201V171.93H156.441V177.191Z" fill="#4C5460"/>
<path fill-rule="evenodd" clip-rule="evenodd" d="M77.5303 229.756H222.201V218.983H77.5303V229.756Z" fill="#363B43"/>
<path fill-rule="evenodd" clip-rule="evenodd" d="M156.441 127.214H222.201V121.953H156.441V127.214Z" fill="#4C5460"/>
<path fill-rule="evenodd" clip-rule="evenodd" d="M156.441 164.039H222.201V158.778H156.441V164.039Z" fill="#4C5460"/>
<path fill-rule="evenodd" clip-rule="evenodd" d="M156.441 152.202H222.201V146.942H156.441V152.202Z" fill="#4C5460"/>
<path fill-rule="evenodd" clip-rule="evenodd" d="M156.441 189.028H222.201V183.767H156.441V189.028Z" fill="#4C5460"/>
<path fill-rule="evenodd" clip-rule="evenodd" d="M77.5303 252.326H222.201V241.553H77.5303V252.326Z" fill="#363B43"/>
<path fill-rule="evenodd" clip-rule="evenodd" d="M77.5303 274.391H222.201V263.618H77.5303V274.391Z" fill="#363B43"/>
<path fill-rule="evenodd" clip-rule="evenodd" d="M77.5303 298.064H222.201V287.292H77.5303V298.064Z" fill="#363B43"/>
<path fill-rule="evenodd" clip-rule="evenodd" d="M77.5303 294.119H201.158V283.346H77.5303V294.119Z" fill="#97B8FF"/>
<path fill-rule="evenodd" clip-rule="evenodd" d="M77.5303 287.543H167.346V276.77H77.5303V287.543Z" stroke="#020202" stroke-width="0.168"/>
<path fill-rule="evenodd" clip-rule="evenodd" d="M332.031 219.956H266.322V139.02C266.322 120.875 281.031 106.165 299.176 106.165C317.322 106.165 332.031 120.875 332.031 139.02V219.956ZM298.762 99.0039C277.381 99.0039 259.888 116.497 259.888 137.879V216.558C259.888 222.488 264.739 227.341 270.67 227.341H326.854C332.785 227.341 337.638 222.488 337.638 216.558V137.879C337.638 116.497 320.143 99.0039 298.762 99.0039Z" fill="#3C404E"/>
<path d="M332.031 219.956V220.367H332.441V219.956H332.031ZM266.322 219.956H265.911V220.367H266.322V219.956ZM332.031 219.546H266.322V220.367H332.031V219.546ZM266.732 219.956V139.02H265.911V219.956H266.732ZM266.732 139.02C266.732 121.102 281.257 106.576 299.176 106.576V105.755C280.804 105.755 265.911 120.649 265.911 139.02H266.732ZM299.176 106.576C317.095 106.576 331.62 121.102 331.62 139.02H332.441C332.441 120.649 317.549 105.755 299.176 105.755V106.576ZM331.62 139.02V219.956H332.441V139.02H331.62ZM298.762 98.5934C277.154 98.5934 259.477 116.27 259.477 137.879H260.298C260.298 116.724 277.608 99.4144 298.762 99.4144V98.5934ZM259.477 137.879V216.558H260.298V137.879H259.477ZM259.477 216.558C259.477 222.715 264.513 227.752 270.67 227.752V226.931C264.966 226.931 260.298 222.261 260.298 216.558H259.477ZM270.67 227.752H326.854V226.931H270.67V227.752ZM326.854 227.752C333.011 227.752 338.048 222.715 338.048 216.558H337.227C337.227 222.261 332.558 226.931 326.854 226.931V227.752ZM338.048 216.558V137.879H337.227V216.558H338.048ZM338.048 137.879C338.048 116.27 320.37 98.5934 298.762 98.5934V99.4144C319.916 99.4144 337.227 116.724 337.227 137.879H338.048Z" fill="black"/>
<path fill-rule="evenodd" clip-rule="evenodd" d="M244.008 189.326H355.706V286.361H242.053L244.008 189.326Z" fill="#30353C"/>
<path fill-rule="evenodd" clip-rule="evenodd" d="M244.008 189.326H355.706V286.361H242.053L244.008 189.326Z" fill="#3C404E" stroke="black" stroke-width="0.491"/>
<path fill-rule="evenodd" clip-rule="evenodd" d="M292.724 227.976C292.724 227.976 286.19 220.298 289.647 213.325C293.103 206.353 299.697 203.855 305.196 205.096C309.736 206.12 316.228 212.112 314.731 219.956C313.503 226.399 310.55 228.442 306.512 230.263L315.553 271.697H290.567L299.279 230.951L292.724 227.976Z" fill="#1E2021"/>
<path fill-rule="evenodd" clip-rule="evenodd" d="M86.6847 355.778C86.6847 355.778 78.3833 351.012 73.7709 350.398C69.1585 349.782 69.2296 353.942 69.2296 358.401C69.2296 362.858 70.8499 367.615 73.4631 372.535C76.0764 377.455 78.0808 379.3 78.4622 377.763C78.8436 376.226 78.0005 373.919 77.46 370.537C76.9194 367.155 76.3842 363.312 76.3842 363.312L82.6879 368.692L86.6847 355.778Z" fill="#F5AEAE"/>
<path fill-rule="evenodd" clip-rule="evenodd" d="M86.6847 355.778C86.6847 355.778 78.3833 351.012 73.7709 350.398C69.1585 349.782 69.2296 353.942 69.2296 358.401C69.2296 362.858 70.8499 367.615 73.4631 372.535C76.0764 377.455 78.0808 379.3 78.4622 377.763C78.8436 376.226 78.0005 373.919 77.46 370.537C76.9194 367.155 76.3842 363.312 76.3842 363.312L82.6879 368.692L86.6847 355.778Z" stroke="#020202" stroke-width="0.364"/>
<path fill-rule="evenodd" clip-rule="evenodd" d="M172.153 363.31C172.153 363.31 168.01 376.512 168.318 378.29C168.626 380.069 167.396 379.608 176.466 379.608C185.537 379.608 194.453 379.408 196.145 379.662C197.835 379.914 204.292 377.762 197.989 375.611C191.686 373.458 181.694 372.996 181.694 372.996L183.432 373.108L183.59 364.518L172.153 363.31Z" fill="#F5AEAE"/>
<path fill-rule="evenodd" clip-rule="evenodd" d="M172.153 363.31C172.153 363.31 168.01 376.512 168.318 378.29C168.626 380.069 167.396 379.608 176.466 379.608C185.537 379.608 194.453 379.408 196.145 379.662C197.835 379.914 204.292 377.762 197.989 375.611C191.686 373.458 181.694 372.996 181.694 372.996L183.432 373.108L183.59 364.518L172.153 363.31Z" stroke="#020202" stroke-width="0.364"/>
<path fill-rule="evenodd" clip-rule="evenodd" d="M67.2139 264.83C67.2139 264.83 75.2575 306.952 81.4508 324.057C87.644 341.161 95.1129 357.836 95.1129 357.836L84.7072 354.154C84.7072 354.154 79.2215 360.398 81.164 368.563C81.164 368.563 90.3099 376.408 95.1129 378.649C99.916 380.89 109.321 385.251 114.108 373.28C114.108 373.28 129.946 340.154 127.081 301.458L184.83 299.406L171.532 366.44L184.83 366.1C184.83 366.1 209.53 320.953 213.977 304.879C218.422 288.803 223.211 278.72 213.977 270.766C213.977 270.766 200.078 257.13 156.481 259.443L67.2139 264.83Z" fill="#020202"/>
<path fill-rule="evenodd" clip-rule="evenodd" d="M94.5115 214.68L51.0117 200.635C51.0117 200.635 65.9049 157.262 113.988 153.957L135.035 160.802C135.035 160.802 164.629 167.647 174.199 207.754L153.07 217.624L144.204 259.916L68.0355 270.765C68.0355 270.765 64.0492 245.302 65.8207 231.573C67.5923 217.845 66.2482 205.555 66.2482 205.555" fill="#5C5653"/>
<path fill-rule="evenodd" clip-rule="evenodd" d="M94.5115 214.68L51.0117 200.635C51.0117 200.635 65.9049 157.262 113.988 153.957L135.035 160.802C135.035 160.802 164.629 167.647 174.199 207.754L153.07 217.624L144.204 259.916L68.0355 270.765C68.0355 270.765 64.0492 245.302 65.8207 231.573C67.5923 217.845 66.2482 205.555 66.2482 205.555" fill="#5C5653"/>
<path d="M94.5115 214.68L51.0117 200.635C51.0117 200.635 65.9049 157.262 113.988 153.957L135.035 160.802C135.035 160.802 164.629 167.647 174.199 207.754L153.07 217.624L144.204 259.916L68.0355 270.765C68.0355 270.765 64.0492 245.302 65.8207 231.573C67.5923 217.845 66.2482 205.555 66.2482 205.555" stroke="#020202" stroke-width="0.648"/>
<path fill-rule="evenodd" clip-rule="evenodd" d="M113.987 153.956C113.987 153.956 119.808 147.038 119.223 146.16C118.636 145.281 107.798 146.648 108.286 137.078C108.773 127.509 121.858 107.101 129.476 108.956C137.092 110.811 152.325 122.627 152.325 122.627C152.325 122.627 154.864 142.254 150.567 148.601C146.271 154.948 141.583 156.804 136.018 156.901C136.018 156.901 136.018 159.245 135.431 160.22C134.846 161.198 133.329 163.053 130.67 164.127C128.011 165.201 123.982 164.255 122.445 163.443C120.533 162.434 116.563 158.433 113.987 153.956Z" fill="#F5AEAE"/>
<path fill-rule="evenodd" clip-rule="evenodd" d="M113.987 153.956C113.987 153.956 119.808 147.038 119.223 146.16C118.636 145.281 107.798 146.648 108.286 137.078C108.773 127.509 121.858 107.101 129.476 108.956C137.092 110.811 152.325 122.627 152.325 122.627C152.325 122.627 154.864 142.254 150.567 148.601C146.271 154.948 141.583 156.804 136.018 156.901C136.018 156.901 136.018 159.245 135.431 160.22C134.846 161.198 133.329 163.053 130.67 164.127C128.011 165.201 123.982 164.255 122.445 163.443C120.533 162.434 116.563 158.433 113.987 153.956Z" stroke="#020202" stroke-width="0.902"/>
<path d="M120.532 129.391H125.584L126.595 127.646C126.595 127.646 139.087 128.564 140.189 129.391C141.291 130.217 139.271 137.841 138.353 138.943C137.434 140.047 128.064 140.047 128.064 140.047C128.064 140.047 125.309 135.821 125.584 129.391" stroke="#020202" stroke-width="0.648"/>
<path d="M143.293 131.591C143.293 131.591 145.454 139.703 145.383 140.337C145.313 140.971 145.735 141.605 142.565 141.464" stroke="#020202" stroke-width="0.648"/>
<path fill-rule="evenodd" clip-rule="evenodd" d="M139.237 148.8C139.237 148.8 139.389 146.919 141.489 146.919C143.589 146.919 144.835 147.415 142.565 147.86C140.295 148.304 140.042 148.437 139.237 148.8Z" fill="#020202"/>
<path fill-rule="evenodd" clip-rule="evenodd" d="M135.569 132.173C135.569 132.173 135.234 134.727 135.569 135.146C135.904 135.565 137.201 134.225 136.616 132.76C136.029 131.295 135.904 131.084 135.569 132.173Z" fill="#020202"/>
<path fill-rule="evenodd" clip-rule="evenodd" d="M150.138 132.962C150.138 132.962 149.803 135.516 150.138 135.934C150.474 136.354 151.77 135.014 151.185 133.549C150.599 132.083 150.474 131.873 150.138 132.962Z" fill="#020202"/>
<path fill-rule="evenodd" clip-rule="evenodd" d="M117.251 148.692C117.251 148.692 121.494 147.217 118.911 143.896C116.329 140.576 111.901 139.285 111.347 137.255C110.795 135.226 113.746 131.905 116.697 134.857C119.648 137.809 118.064 134.319 118.85 132.587C119.638 130.856 121.65 132.501 122.399 131.167C123.306 129.55 120.626 126.697 122.042 125.36C123.457 124.022 125.661 124.417 124.559 122.133C123.457 119.852 125.189 119.223 127.156 118.986C129.123 118.751 128.185 112.84 129.565 112.517C132.639 111.793 132.979 115.525 135.103 117.885C137.227 120.246 138.775 122.465 139.72 119.711C140.664 116.957 141.949 113.95 143.365 117.728C144.782 121.505 145.489 121.74 148.48 121.74C151.471 121.74 152.312 125.936 152.511 127.894C154.292 145.445 149.812 148.692 149.812 148.692C149.812 148.692 160.488 146.584 159.933 143.534C159.378 140.484 157.83 139.42 159.517 137.666C161.204 135.911 162.416 135.168 159.954 132.469C157.492 129.769 161.474 128.892 161.812 127.812C162.149 126.733 162.689 124.1 160.125 122.953C157.56 121.806 156.75 120.524 158.168 119.039C159.584 117.554 162.015 113.706 156.683 112.222C156.683 112.222 153.259 112.693 152.328 111.206C151.276 109.527 152.664 108.492 152.62 107.119C152.57 105.569 151.756 103.043 149.19 104.595C146.626 106.147 145.681 103.921 145.546 103.111C145.412 102.3 145.125 98.0892 142.251 98.7086C140.293 99.1295 139.809 99.4662 139.27 98.7915C138.729 98.1155 137.915 95.806 135.399 96.5636C134.404 96.8634 135.116 98.8586 133.004 98.8296C130.995 98.802 130.138 95.4404 128.335 95.8205C126.612 96.1861 126.624 98.1378 125.772 98.1155C124.3 98.0773 124.132 95.6955 122.329 96.2256C121.646 96.4268 121.333 96.9174 121.046 97.3316C120.226 98.5153 118.945 99.2899 117.503 99.2715C117.403 99.2689 117.302 99.2663 117.2 99.2636C115.445 99.1953 113.016 99.1282 112.611 100.951C112.206 102.773 114.027 105.337 112.881 105.742C111.732 106.147 105.389 105.54 104.174 106.889C102.959 108.24 104.579 109.792 104.579 110.804C104.579 111.816 102.322 111.772 101.85 112.581C101.378 113.391 103.566 115.798 102.689 116.339C101.812 116.879 96.1329 114.516 94.7927 117.418C94.0576 119.012 98.5042 119.713 97.8979 121.265C97.2903 122.817 94.0102 122.346 94.7914 125.382C95.1663 126.834 97.2903 125.922 97.5599 126.935C97.8295 127.948 94.5863 128.217 94.7901 130.039C94.9953 131.862 98.8422 130.985 99.3827 132.875C99.922 134.763 97.2219 135.168 97.3574 136.519C97.4928 137.868 98.8422 138.881 100.866 138.813C102.892 138.746 105.254 138.409 105.254 140.771C105.254 143.132 106.131 144.415 107.751 144.415C109.372 144.415 111.531 143.2 112.206 145.967C112.881 148.734 116.549 149.021 117.251 148.692Z" fill="#020202"/>
<path d="M140.453 131.591H144.245L144.883 129.159H152.358C152.358 129.159 153.726 135.592 152.926 139.127H145.521C145.521 139.127 143.144 134.487 144.245 131.591" stroke="#020202" stroke-width="0.648"/>
<path d="M128.388 165.078C128.388 165.078 133.245 198.297 132.737 208.454" stroke="#020202" stroke-width="0.648"/>
<path d="M129.355 164.667L132.061 171.907C132.061 171.907 137.69 166.319 135.746 160.995" stroke="#020202" stroke-width="0.648"/>
<path d="M126.988 165.078L123.267 171.038C123.267 171.038 114.57 166.109 112.152 161.325C109.738 156.542 109.505 154.39 109.505 154.39" stroke="#020202" stroke-width="0.648"/>
<path d="M94.6728 171.908C94.6728 171.908 103.65 184.957 95.2449 212.36L92.1621 222.112" stroke="#020202" stroke-width="0.648"/>
<path fill-rule="evenodd" clip-rule="evenodd" d="M170.371 208.589L173.227 220.348C173.227 220.348 181.68 221.42 188.813 226.176L155.838 233.05L152.268 216.289L170.371 208.589Z" fill="#F5AEAE"/>
<path fill-rule="evenodd" clip-rule="evenodd" d="M170.371 208.589L173.227 220.348C173.227 220.348 181.68 221.42 188.814 226.176L154.765 233.705L151.194 216.944L170.371 208.589Z" stroke="#020202" stroke-width="0.648"/>
<path fill-rule="evenodd" clip-rule="evenodd" d="M173.227 220.349C173.227 220.349 171.203 220.154 169.837 220.213L173.227 220.349Z" fill="#FEFEFE"/>
<path d="M173.227 220.349C173.227 220.349 171.203 220.154 169.837 220.213" stroke="#020202" stroke-width="0.648"/>
<path fill-rule="evenodd" clip-rule="evenodd" d="M156.645 229.392L305.012 215.716C305.012 215.716 308.73 217.823 305.827 225.598L158.385 239.602L156.645 229.392Z" fill="#08B7F6"/>
<path fill-rule="evenodd" clip-rule="evenodd" d="M156.645 229.392L305.012 215.716C305.012 215.716 308.73 217.823 305.827 225.598L158.385 239.602L156.645 229.392Z" stroke="#020202" stroke-width="0.552"/>
<path fill-rule="evenodd" clip-rule="evenodd" d="M147.173 260.558C142.682 261.356 137.132 251.249 134.775 237.982C132.418 224.717 134.149 213.317 138.64 212.519C143.132 211.722 148.683 221.829 151.038 235.094C153.395 248.361 151.664 259.761 147.173 260.558ZM157.599 233.929C154.354 215.669 145.148 202.034 137.034 203.476C128.921 204.917 124.971 220.888 128.216 239.148C131.459 257.408 140.666 271.044 148.779 269.601C156.892 268.161 160.842 252.189 157.599 233.929Z" fill="#08B7F6"/>
<path d="M147.173 260.558L147.092 260.103L147.092 260.103L147.173 260.558ZM134.775 237.982L135.229 237.902L135.229 237.902L134.775 237.982ZM138.64 212.519L138.56 212.065L138.559 212.065L138.64 212.519ZM151.038 235.094L150.584 235.175L150.584 235.175L151.038 235.094ZM157.599 233.929L158.053 233.848L158.053 233.848L157.599 233.929ZM128.216 239.148L128.67 239.067L128.67 239.067L128.216 239.148ZM148.779 269.601L148.698 269.146L148.698 269.146L148.779 269.601ZM147.092 260.103C146.165 260.268 145.114 259.883 143.977 258.886C142.844 257.892 141.686 256.339 140.578 254.322C138.365 250.292 136.401 244.499 135.229 237.902L134.32 238.063C135.505 244.732 137.495 250.626 139.769 254.766C140.905 256.834 142.124 258.488 143.368 259.58C144.608 260.667 145.935 261.246 147.254 261.012L147.092 260.103ZM135.229 237.902C134.057 231.305 133.906 225.191 134.596 220.645C134.941 218.37 135.494 216.513 136.215 215.19C136.939 213.862 137.794 213.138 138.721 212.973L138.559 212.065C137.241 212.299 136.195 213.3 135.405 214.748C134.612 216.201 134.037 218.174 133.683 220.506C132.974 225.176 133.136 231.395 134.32 238.063L135.229 237.902ZM138.721 212.973C139.648 212.809 140.699 213.194 141.837 214.192C142.97 215.186 144.128 216.738 145.236 218.756C147.449 222.786 149.413 228.578 150.584 235.175L151.493 235.014C150.309 228.345 148.319 222.451 146.045 218.311C144.909 216.243 143.69 214.589 142.445 213.498C141.205 212.41 139.878 211.831 138.56 212.065L138.721 212.973ZM150.584 235.175C151.756 241.772 151.908 247.887 151.218 252.433C150.872 254.708 150.32 256.564 149.598 257.887C148.874 259.215 148.019 259.939 147.092 260.103L147.254 261.012C148.572 260.778 149.619 259.777 150.408 258.329C151.201 256.876 151.776 254.904 152.13 252.571C152.839 247.901 152.678 241.683 151.493 235.014L150.584 235.175ZM158.053 233.848C156.422 224.67 153.29 216.632 149.525 211.056C147.643 208.269 145.59 206.078 143.469 204.673C141.345 203.267 139.13 202.635 136.954 203.021L137.115 203.93C138.996 203.596 140.973 204.128 142.959 205.443C144.948 206.76 146.921 208.849 148.76 211.573C152.437 217.019 155.531 224.928 157.144 234.01L158.053 233.848ZM136.954 203.021C134.777 203.408 132.915 204.765 131.406 206.816C129.898 208.865 128.725 211.629 127.918 214.894C126.303 221.425 126.131 230.05 127.762 239.228L128.67 239.067C127.057 229.985 127.237 221.495 128.814 215.116C129.603 211.925 130.735 209.285 132.149 207.363C133.561 205.444 135.235 204.264 137.115 203.93L136.954 203.021ZM127.762 239.228C129.392 248.407 132.524 256.445 136.289 262.021C138.171 264.809 140.224 266.999 142.344 268.404C144.468 269.81 146.684 270.442 148.86 270.055L148.698 269.146C146.818 269.481 144.84 268.95 142.854 267.634C140.865 266.317 138.893 264.228 137.054 261.505C133.376 256.058 130.283 248.149 128.67 239.067L127.762 239.228ZM148.86 270.055C151.036 269.669 152.898 268.312 154.408 266.261C155.915 264.212 157.088 261.448 157.896 258.183C159.51 251.652 159.683 243.027 158.053 233.848L157.144 234.01C158.757 243.091 158.577 251.582 157 257.962C156.211 261.152 155.078 263.792 153.664 265.714C152.253 267.633 150.579 268.813 148.698 269.146L148.86 270.055Z" fill="#020202"/>
<path fill-rule="evenodd" clip-rule="evenodd" d="M164.475 240.046C164.475 240.046 178.896 240.947 186.779 240.477C194.664 240.006 203.136 238.006 203.606 236.476C204.077 234.945 205.663 228.004 202.458 227.415C199.253 226.827 193.134 226.121 192.664 228.944C192.193 231.768 191.605 234.945 191.605 235.769C191.605 236.593 159.634 239.602 159.634 239.602L164.475 240.046Z" fill="#F5AEAE"/>
<path fill-rule="evenodd" clip-rule="evenodd" d="M159.228 239.602C159.228 239.602 178.896 240.947 186.779 240.477C194.664 240.006 203.136 238.006 203.606 236.476C204.076 234.945 205.663 228.004 202.457 227.415C199.252 226.827 193.134 226.121 192.663 228.944C192.192 231.768 191.605 234.945 191.605 235.769C191.605 236.593 159.228 239.602 159.228 239.602Z" stroke="#020202" stroke-width="0.648"/>
<path fill-rule="evenodd" clip-rule="evenodd" d="M261.703 229.571L264.693 263.851L272.765 262.797L271.713 249.81H277.153L277.855 256.304L282.945 255.953V249.81H285.929L286.806 258.41L291.72 258.234L290.842 248.146L298.411 248.008V264.197H305.663L303.564 225.595L261.703 229.571Z" fill="#08B7F6"/>
<path fill-rule="evenodd" clip-rule="evenodd" d="M261.703 229.571L264.693 263.851L272.765 262.797L271.713 249.81H277.153L277.855 256.304L282.945 255.953V249.81H285.929L286.806 258.41L291.72 258.234L290.842 248.146L298.411 248.008V264.197H305.663L303.564 225.595L261.703 229.571Z" stroke="#020202" stroke-width="0.55"/>
<path fill-rule="evenodd" clip-rule="evenodd" d="M60.2048 203.604C60.2048 203.604 56.755 213.578 57.6125 220.726C58.47 227.873 59.8996 236.019 68.7614 239.736C77.6231 243.453 92.3466 248.169 102.923 248.312C113.501 248.456 120.148 248.262 124.922 243.134C129.698 238.005 129.522 241.631 131.467 241.718C133.412 241.807 138.717 239.243 134.65 234.91C130.582 230.577 125.012 231.284 125.012 231.284C125.012 231.284 121.828 233.407 121.032 237.474L91.1814 223.251L94.5101 214.68L60.2048 203.604Z" fill="#F5AEAE"/>
<path fill-rule="evenodd" clip-rule="evenodd" d="M60.2048 203.604C60.2048 203.604 56.755 213.578 57.6125 220.726C58.47 227.873 59.8996 236.019 68.7614 239.736C77.6231 243.453 92.3466 248.169 102.923 248.312C113.501 248.456 120.148 248.262 124.922 243.134C129.698 238.005 129.522 241.631 131.467 241.718C133.412 241.807 138.717 239.243 134.65 234.91C130.582 230.577 125.012 231.284 125.012 231.284C125.012 231.284 121.828 233.407 121.032 237.474L91.1814 223.251L94.5101 214.68L60.2048 203.604Z" stroke="#020202" stroke-width="0.648"/>
</svg>
