<svg xmlns="http://www.w3.org/2000/svg" width="184" height="45" viewBox="0 0 184 45" fill="none">
  <path fill-rule="evenodd" clip-rule="evenodd" d="M177.24 21.0117C175.094 21.0117 173.191 22.0763 172.03 23.6953C170.868 22.0763 168.965 21.0117 166.82 21.0117C165.297 21.0117 163.895 21.548 162.794 22.4373V21.0117H158.058V38.8499H160.426H162.794V28.0532C162.794 26.4975 164.066 25.2365 165.636 25.2365C167.205 25.2365 168.478 26.4975 168.478 28.0532V38.8499H170.846H173.214V28.0532C173.214 26.4975 174.486 25.2365 176.056 25.2365C177.625 25.2365 178.898 26.4975 178.898 28.0532V38.8499H183.634V27.349C183.634 23.8635 180.757 21.0117 177.24 21.0117Z" fill="white"/>
  <mask id="mask0_1_3641" style="mask-type:luminance" maskUnits="userSpaceOnUse" x="0" y="0" width="184" height="45">
    <path fill-rule="evenodd" clip-rule="evenodd" d="M0.927734 45H183.634V0H0.927734V45Z" fill="white"/>
  </mask>
  <g mask="url(#mask0_1_3641)">
    <path fill-rule="evenodd" clip-rule="evenodd" d="M131.701 38.8496H136.162V12.9844H131.701V38.8496Z" fill="white"/>
    <path fill-rule="evenodd" clip-rule="evenodd" d="M150.127 21.0117V31.1043C150.127 32.7896 148.763 34.1556 147.081 34.1556C145.399 34.1556 144.035 32.7896 144.035 31.1043V21.0117H139.349V31.1043C139.349 35.3644 142.828 38.8499 147.081 38.8499C151.334 38.8499 154.813 35.3644 154.813 31.1043V21.0117H150.127Z" fill="white"/>
    <path fill-rule="evenodd" clip-rule="evenodd" d="M123.829 21.0117V31.1043C123.829 32.7896 122.465 34.1556 120.783 34.1556C119.101 34.1556 117.737 32.7896 117.737 31.1043V21.0117H113.051V31.1043C113.051 35.3644 116.53 38.8499 120.783 38.8499C125.036 38.8499 128.515 35.3644 128.515 31.1043V21.0117H123.829Z" fill="white"/>
    <path fill-rule="evenodd" clip-rule="evenodd" d="M89.3879 21.0117V31.1043C89.3879 32.7896 88.0241 34.1556 86.3418 34.1556C84.6596 34.1556 83.2956 32.7896 83.2956 31.1043V21.0117H78.6094V31.1043C78.6094 35.3644 82.0891 38.8499 86.3418 38.8499C90.5947 38.8499 94.0741 35.3644 94.0741 31.1043V21.0117H89.3879Z" fill="white"/>
    <path fill-rule="evenodd" clip-rule="evenodd" d="M106.076 34.6251C103.46 34.6251 101.34 32.5235 101.34 29.9308C101.34 27.3382 103.46 25.2365 106.076 25.2365C107.628 25.2365 109.001 25.5903 109.865 26.6471V21.498C108.713 21.1528 107.43 21.0117 106.076 21.0117C101.106 21.0117 97.0771 25.005 97.0771 29.9308C97.0771 34.8566 101.106 38.8499 106.076 38.8499C107.43 38.8499 108.713 38.7437 109.865 38.4398V33.3201C109.001 34.3577 107.628 34.6251 106.076 34.6251Z" fill="white"/>
    <path fill-rule="evenodd" clip-rule="evenodd" d="M65.7249 34.6171C63.7434 34.6171 62.0388 33.5069 61.2493 31.9074C61.1756 31.7581 61.1099 31.6046 61.0525 31.4476C61.0513 31.4441 61.0498 31.4408 61.0484 31.4372C60.9954 31.291 60.951 31.1409 60.9129 30.9886C60.9085 30.9716 60.9032 30.955 60.8993 30.938C60.866 30.799 60.8424 30.6568 60.8225 30.5132C60.8188 30.4843 60.8123 30.4565 60.8088 30.4276C60.7891 30.259 60.7782 30.0879 60.7782 29.9143C60.7782 29.7407 60.7891 29.5696 60.8088 29.4011C60.8123 29.3721 60.8188 29.3442 60.8225 29.3155C60.8424 29.1719 60.866 29.0297 60.8993 28.8907C60.9032 28.8734 60.9087 28.8568 60.9131 28.8398C60.951 28.6877 60.9954 28.5376 61.0484 28.3913C61.0498 28.388 61.0513 28.3844 61.0525 28.3809C61.1099 28.2241 61.1756 28.0705 61.2493 27.9214C62.0388 26.3218 63.7434 25.2114 65.7249 25.2114C68.4572 25.2114 70.6718 27.317 70.6718 29.9143C70.6718 32.5115 68.4572 34.6171 65.7249 34.6171ZM66.526 20.9791C64.5542 20.9791 62.7355 21.6091 61.2493 22.6669V12.9844H56.5381V38.8496H61.2493V37.1616C62.7355 38.2195 64.5542 38.8496 66.526 38.8496C71.5217 38.8496 75.5715 34.8492 75.5715 29.9143C75.5715 24.9796 71.5217 20.9791 66.526 20.9791Z" fill="white"/>
    <path fill-rule="evenodd" clip-rule="evenodd" d="M53.136 21.0117C50.9714 21.0117 49.0237 21.9577 47.6748 23.4468V21.0117H42.9434V38.8499H45.7823H47.4383H47.6748V30.2982C47.6748 29.8297 47.7524 29.3601 47.9386 28.9295C48.8426 26.8394 50.8916 25.441 53.3525 25.0825V21.0117H53.136Z" fill="white"/>
  </g>
</svg>