<svg xmlns="http://www.w3.org/2000/svg" width="132" height="132" viewBox="0 0 132 132" fill="none">
  <path fill-rule="evenodd" clip-rule="evenodd" d="M108.357 79.718C108.357 79.718 120.432 94.4623 122.932 98.8024C125.433 103.143 126.445 108.852 124.444 114.801C122.146 121.63 114.001 125.69 108.367 125.718C102.603 125.747 96.1375 123.379 92.3116 115.555C87.9903 106.715 92.3453 100.354 95.7428 94.9504C99.6005 88.8154 108.357 79.718 108.357 79.718Z" fill="#24272B"/>
  <path fill-rule="evenodd" clip-rule="evenodd" d="M97.2189 55.8607L58.791 23.0273C60.2509 23.0957 63.7867 23.3637 66.2757 23.8598C67.8952 24.1825 69.7712 24.6017 71.9546 25.1251C79.3222 26.891 86.3622 29.3474 88.3619 30.0945C91.7973 31.3784 94.678 31.9887 95.6137 26.8912C96.3037 23.1323 79.7135 19.3946 79.7135 19.3946L59.3794 12.8135C59.3794 12.8135 49.8732 9.85242 44.5596 8.16124C40.7953 6.96346 35.6441 5.44654 28.4255 7.29529C21.1969 9.14737 14.8603 13.6347 10.9906 19.9848C9.19967 22.9245 8.00015 26.4758 7.79139 30.3582C7.42825 37.0842 8.32973 40.7049 9.64068 44.0385C10.9825 47.4496 13.1265 50.4874 15.7806 53.0265C19.1717 56.2707 24.5907 61.3148 29.2572 65.0277C34.0258 68.822 37.3813 71.7904 39.1756 73.4321C40.9336 75.0405 43.4881 76.9336 45.7925 76.31C46.6477 76.079 47.5163 75.6637 48.313 74.968C51.4988 72.1852 48.9483 68.1717 48.9483 68.1717C48.9483 68.1717 56.8214 73.154 61.0952 68.6714C65.3691 64.1887 60.2165 58.4352 60.2165 58.4352C60.2165 58.4352 68.4829 65.2371 73.1447 60.2905C73.311 60.1141 73.4597 59.9302 73.592 59.7397C74.8607 57.9129 75.4747 55.5052 74.4446 52.7372C73.1904 49.3668 71.137 46.2372 70.489 45.6335L87.3776 59.8146C87.3776 59.8146 103.694 76.0073 106.361 65.0277C106.827 63.1081 98.0442 56.5711 98.0442 56.5711" fill="#24272B"/>
  <path d="M17.4984 30.0424C17.4984 30.0424 26.8465 43.3614 37.9636 40.5974C49.0807 37.8326 53.1016 32.1439 57.6712 30.0424C64.6157 26.8487 69.2936 27.0266 77.6311 30.0424C85.9686 33.0581 92.7908 36.0738 95.3174 35.8221C97.844 35.5712 102.774 34.0077 102.139 27.0266C101.764 22.907 96.075 21.2468 96.075 21.2468L63.4821 9.93754C63.4821 9.93754 51.6073 5.41396 45.2912 3.40348C40.8159 1.97973 34.692 0.176418 26.1113 2.3746C17.5173 4.57556 9.98428 9.91043 5.38466 17.4588C3.25504 20.9535 2.02982 25.1906 1.58111 29.7914C0.772455 38.0822 2.22133 42.0913 3.77993 46.0539C5.37487 50.1089 7.92385 53.7204 11.0788 56.7382C15.1102 60.5951 21.5522 66.5911 27.0996 71.0056C32.7685 75.5166 36.7573 79.0447 38.8904 80.9968C40.9802 82.9086 43.9129 83.7435 46.6527 83.0024C47.6689 82.7271 48.7019 82.2335 49.649 81.4063C53.4364 78.0986 52.4202 74.056 52.4202 74.056C52.4202 74.056 58.9789 79.4771 64.0594 74.1478C69.1399 68.8192 65.4447 65.1437 65.4447 65.1437C65.4447 65.1437 71.5414 71.1161 77.0839 65.2355C82.6263 59.3549 76.2528 54.8529 76.2528 54.8529L97.591 72.77" stroke="#08B7F6"/>
  <path d="M67.8584 27.7349L114.531 67.6184C114.531 67.6184 115.868 69.4885 115.363 71.7819" stroke="#08B7F6"/>
  <path d="M31.238 74.3649C31.238 74.3649 31.1911 73.904 31.0346 73.165C29.5046 65.967 34.4579 62.6934 39.5992 62.9388C39.6439 62.9409 39.6894 62.9318 39.7348 62.9284C39.7348 62.9284 39.147 57.8333 41.8518 54.477C44.832 50.7793 50.4444 52.1335 50.4444 52.1335C50.4444 52.1335 48.6915 45.5445 52.8298 42.3251C56.9689 39.1057 60.864 41.3817 60.864 41.3817L76.2522 54.8531" stroke="#08B7F6"/>
  <path d="M50.4443 52.1333L65.4447 65.1437" stroke="#08B7F6"/>
  <path d="M39.7354 62.9282L52.4201 74.0561" stroke="#08B7F6"/>
  <path fill-rule="evenodd" clip-rule="evenodd" d="M108.457 72.9976C108.457 72.9976 124.055 91.5514 127.285 97.0135C130.515 102.476 131.824 109.66 129.238 117.145C126.27 125.739 115.749 130.848 108.47 130.884C101.024 130.92 92.6714 127.94 87.7293 118.094C82.1463 106.971 87.7726 98.9656 92.1619 92.166C97.1445 84.4459 108.457 72.9976 108.457 72.9976Z" stroke="#08B7F6"/>
  <path d="M109.759 103.55V104.05H110.259V103.55H109.759ZM107.031 103.55H106.531V104.05H107.031V103.55ZM106.031 103.55V104.05H106.531V103.55H106.031ZM110.759 103.55H110.259V104.05H110.759V103.55ZM110.759 108.258V107.758H110.259V108.258H110.759ZM106.031 108.258H106.531V107.758H106.031V108.258ZM106.031 107.258V107.758H106.531V107.258H106.031ZM106.031 104.55H106.531V104.05H106.031V104.55ZM107.031 104.55V104.05H106.531V104.55H107.031ZM107.031 107.258H106.531V107.758H107.031V107.258ZM109.759 104.55H110.259V104.05H109.759V104.55ZM109.759 107.258V107.758H110.259V107.258H109.759ZM107.031 108.258V107.758H106.531V108.258H107.031ZM109.759 108.258H110.259V107.758H109.759V108.258ZM110.759 107.258H110.259V107.758H110.759V107.258ZM110.759 104.55V104.05H110.259V104.55H110.759ZM108.395 93.9663C107.369 93.9663 106.531 94.8008 106.531 95.8204H107.531C107.531 95.3576 107.917 94.9663 108.395 94.9663V93.9663ZM110.259 95.8204C110.259 94.8008 109.421 93.9663 108.395 93.9663V94.9663C108.873 94.9663 109.259 95.3576 109.259 95.8204H110.259ZM110.259 103.55V95.8204H109.259V103.55H110.259ZM107.031 104.05H109.759V103.05H107.031V104.05ZM106.531 95.8204V103.55H107.531V95.8204H106.531ZM106.531 103.55V95.8204H105.531V103.55H106.531ZM106.531 95.8204C106.531 94.8007 107.37 93.9663 108.395 93.9663V92.9663C106.823 92.9663 105.531 94.243 105.531 95.8204H106.531ZM108.395 93.9663C109.421 93.9663 110.259 94.8007 110.259 95.8204H111.259C111.259 94.243 109.967 92.9663 108.395 92.9663V93.9663ZM110.259 95.8204V103.55H111.259V95.8204H110.259ZM110.759 104.05H118.532V103.05H110.759V104.05ZM118.532 104.05C119.558 104.05 120.396 104.884 120.396 105.904H121.396C121.396 104.326 120.105 103.05 118.532 103.05V104.05ZM120.396 105.904C120.396 106.923 119.558 107.758 118.532 107.758V108.758C120.105 108.758 121.396 107.481 121.396 105.904H120.396ZM118.532 107.758H110.759V108.758H118.532V107.758ZM110.259 108.258V115.987H111.259V108.258H110.259ZM110.259 115.987C110.259 117.007 109.421 117.841 108.395 117.841V118.841C109.967 118.841 111.259 117.564 111.259 115.987H110.259ZM108.395 117.841C107.37 117.841 106.531 117.007 106.531 115.987H105.531C105.531 117.564 106.823 118.841 108.395 118.841V117.841ZM106.531 115.987V108.258H105.531V115.987H106.531ZM106.031 107.758H98.2573V108.758H106.031V107.758ZM98.2573 107.758C97.2319 107.758 96.3933 106.923 96.3933 105.904H95.3933C95.3933 107.481 96.685 108.758 98.2573 108.758V107.758ZM96.3933 105.904C96.3933 104.884 97.2319 104.05 98.2573 104.05V103.05C96.685 103.05 95.3933 104.326 95.3933 105.904H96.3933ZM98.2573 104.05H106.031V103.05H98.2573V104.05ZM98.2573 107.758H106.031V106.758H98.2573V107.758ZM96.3933 105.904C96.3933 106.923 97.2317 107.758 98.2573 107.758V106.758C97.7795 106.758 97.3933 106.366 97.3933 105.904H96.3933ZM98.2573 104.05C97.2317 104.05 96.3933 104.884 96.3933 105.904H97.3933C97.3933 105.441 97.7795 105.05 98.2573 105.05V104.05ZM106.031 104.05H98.2573V105.05H106.031V104.05ZM106.531 107.258V104.55H105.531V107.258H106.531ZM106.531 104.55V107.258H107.531V104.55H106.531ZM109.759 104.05H107.031V105.05H109.759V104.05ZM110.259 107.258V104.55H109.259V107.258H110.259ZM107.031 107.758H109.759V106.758H107.031V107.758ZM106.531 108.258V115.987H107.531V108.258H106.531ZM106.531 115.987C106.531 117.007 107.369 117.841 108.395 117.841V116.841C107.917 116.841 107.531 116.45 107.531 115.987H106.531ZM108.395 117.841C109.421 117.841 110.259 117.007 110.259 115.987H109.259C109.259 116.45 108.873 116.841 108.395 116.841V117.841ZM110.259 115.987V108.258H109.259V115.987H110.259ZM109.759 107.758H107.031V108.758H109.759V107.758ZM110.759 107.758H118.532V106.758H110.759V107.758ZM118.532 107.758C119.558 107.758 120.396 106.923 120.396 105.904H119.396C119.396 106.366 119.01 106.758 118.532 106.758V107.758ZM120.396 105.904C120.396 104.884 119.558 104.05 118.532 104.05V105.05C119.01 105.05 119.396 105.441 119.396 105.904H120.396ZM118.532 104.05H110.759V105.05H118.532V104.05ZM110.259 104.55V107.258H111.259V104.55H110.259Z" fill="#08B7F6"/>
</svg>