<svg xmlns="http://www.w3.org/2000/svg" width="178" height="157" viewBox="0 0 178 157" fill="none">
  <g filter="url(#filter0_d_1_446)">
    <g filter="url(#filter1_d_1_446)">
      <path fill-rule="evenodd" clip-rule="evenodd" d="M108.412 118.839C110.293 122.19 113.668 128.549 114.352 132.188C114.496 132.954 115.146 133.519 115.929 133.519H120.614C121.559 133.519 122.299 132.714 122.208 131.776C121.744 127.005 120.389 113.901 119.26 111.112C119.26 111.112 115.742 111.973 110.44 112.206C108.225 112.304 102.882 111.394 98.8964 107.875C97.1804 106.36 97.3784 110.844 102.338 113.74C103.321 114.314 104.241 114.863 105.007 115.325C106.432 116.185 107.599 117.39 108.412 118.839Z" fill="#24272B"/>
      <path fill-rule="evenodd" clip-rule="evenodd" d="M147.745 70.3535C152.629 59.3812 141.03 42.2952 130.858 41.1573C119.074 39.8386 114.238 34.7978 112.368 31.7771C110.351 28.5204 107.867 25.567 104.81 23.2509C100.19 19.7514 93.5436 16.4551 86.3706 18.5216C80.7314 20.1459 76.0859 22.3439 72.5991 24.3425C68.2026 26.8633 63.9809 29.4155 58.9491 28.7714C55.6791 28.3523 52.0251 28.7662 49.7016 31.7323C48.5909 33.1511 47.8401 34.6319 47.3451 36.0783C45.4956 41.4793 41.6519 47.0693 36.0449 48.2371C32.8754 48.8968 29.8191 50.0257 28.0139 51.9406C28.0139 51.9406 17.8341 63.4052 27.2376 73.9053C31.1684 78.2947 36.9456 79.4251 42.3381 79.2555C48.8804 79.0493 55.0514 82.1095 58.9724 87.3305C60.3374 89.1475 62.0451 92.8368 63.2391 94.0524C72.2699 103.249 83.0414 99.5863 87.6419 97.8881L87.7199 97.859C91.6439 96.417 96.0291 98.107 97.9574 101.804C98.8859 103.583 100.14 105.384 101.728 106.057C114.004 111.264 123.511 105.113 125.944 106.761C125.961 106.772 127.867 107.796 127.883 107.808C133.735 111.756 153.66 112.621 156.318 95.0057C158.149 82.8724 144.505 77.6298 147.745 70.3535Z" fill="#24272B"/>
    </g>
    <path d="M32.7612 37.6092C32.7612 37.6092 40.1735 11.2939 62.5145 25.783" stroke="#08B7F6"/>
    <path d="M101.728 115.689C98.4007 116.25 94.7962 116.288 91.3057 115.239C80.6085 112.025 77.049 106.852 77.049 106.852C77.049 106.852 65.0677 110.025 57.258 105.79C49.9627 101.835 43.7085 90.0173 51.6247 79.7047C59.5417 69.3913 76.2885 73.183 76.2885 73.183C76.2885 73.183 98.919 79.3289 97.7542 62.8704C97.7542 62.8704 96.2062 53.6823 83.8477 54.2874" stroke="#08B7F6"/>
    <path d="M56.6084 23.0987C56.6084 23.0987 67.4586 7.36346 84.9659 8.42438C102.474 9.48605 105.823 19.7994 105.823 19.7994C105.823 19.7994 137.033 11.4577 141.601 45.1262C141.601 45.1262 165.631 49.0195 154.693 73.6381C154.693 73.6381 166.706 81.8198 163.828 96.3866C160.825 111.581 151.905 117.322 141.096 117.777C139.392 117.849 137.592 117.713 135.767 117.434" stroke="#08B7F6"/>
    <path d="M53.1474 44.0647C53.1474 44.0647 38.0754 32.2354 25.1349 40.273C12.1944 48.3113 11.5854 61.2022 12.8034 67.4198C14.0214 73.6382 19.1971 85.1641 30.9204 87.2874C42.6429 89.4107 48.4494 86.6539 48.4494 86.6539" stroke="#08B7F6"/>
    <path d="M31.2245 51.1926C31.2245 51.1926 25.0168 54.5734 24.746 62.0633C24.4588 70.0142 30.9388 76.7429 38.909 76.2326C38.9863 76.2281 39.0635 76.2221 39.1408 76.2161" stroke="#08B7F6"/>
    <path d="M49.9501 62.7823C49.9501 62.7823 43.9178 49.8271 56.0401 42.8512C56.0401 42.8512 61.5203 38.9079 69.2851 42.8512" stroke="#08B7F6"/>
    <path d="M74.3091 23.5905C74.3091 23.5905 88.0108 14.4912 98.8198 28.2921C98.8198 28.2921 103.235 34.3581 100.495 44.0647" stroke="#08B7F6"/>
    <path d="M101.392 34.3585C101.392 34.3585 117.082 29.0188 124.127 41.0991" stroke="#08B7F6"/>
    <path d="M109.719 53.5614C109.719 53.5614 123.003 45.0292 129.545 54.2106C136.199 63.549 128.867 72.1917 128.867 72.1917" stroke="#08B7F6"/>
    <path d="M141.6 45.1262C141.6 45.1262 132.93 43.5595 128.452 53.0091" stroke="#08B7F6"/>
    <path d="M85.8795 40.2732C85.8795 40.2732 90.183 50.5014 81.2565 56.5239C73.0748 62.0445 66.6968 57.8658 66.6968 57.8658" stroke="#08B7F6"/>
    <path d="M113.74 68.1785C113.74 68.1785 105.823 82.8894 116.48 87.1361C127.137 91.382 133.836 83.9511 133.836 83.9511" stroke="#08B7F6"/>
    <path d="M149.517 86.0742C149.517 86.0742 156.113 97.2594 147.842 103.363C140.401 108.855 131.4 104.425 130.182 103.363" stroke="#08B7F6"/>
    <path d="M116.681 112.052C116.681 112.052 115.286 106.901 110.28 105.511C107.274 104.677 100.883 104.939 101.005 112.052C101.005 112.052 100.883 115.094 105.109 120.227C110.314 126.549 111.675 137.805 111.675 137.805H125.791L123.657 118.428C123.657 118.428 130.339 119.975 136.23 117.37" stroke="#08B7F6"/>
    <path d="M64.5463 89.6063C61.9513 88.3429 81.7656 100.659 101.728 88.446" stroke="#08B7F6"/>
    <path d="M137.49 55.157C137.49 55.157 140.935 49.6656 146.918 54.9127C153.138 60.3674 148.406 68.5731 147.744 70.3535" stroke="#08B7F6"/>
  </g>
  <defs>
    <filter id="filter0_d_1_446" x="0.875977" y="1.87305" width="176.897" height="154.432" filterUnits="userSpaceOnUse" color-interpolation-filters="sRGB">
      <feFlood flood-opacity="0" result="BackgroundImageFix"/>
      <feColorMatrix in="SourceAlpha" type="matrix" values="0 0 0 0 0 0 0 0 0 0 0 0 0 0 0 0 0 0 127 0" result="hardAlpha"/>
      <feOffset dx="1" dy="6"/>
      <feGaussianBlur stdDeviation="6"/>
      <feColorMatrix type="matrix" values="0 0 0 0 0.0929574 0 0 0 0 0.0929574 0 0 0 0 0.0929574 0 0 0 0.603393 0"/>
      <feBlend mode="normal" in2="BackgroundImageFix" result="effect1_dropShadow_1_446"/>
      <feBlend mode="normal" in="SourceGraphic" in2="effect1_dropShadow_1_446" result="shape"/>
    </filter>
    <filter id="filter1_d_1_446" x="4.25049" y="0.881104" width="171.237" height="153.638" filterUnits="userSpaceOnUse" color-interpolation-filters="sRGB">
      <feFlood flood-opacity="0" result="BackgroundImageFix"/>
      <feColorMatrix in="SourceAlpha" type="matrix" values="0 0 0 0 0 0 0 0 0 0 0 0 0 0 0 0 0 0 127 0" result="hardAlpha"/>
      <feOffset dy="2"/>
      <feGaussianBlur stdDeviation="9.5"/>
      <feColorMatrix type="matrix" values="0 0 0 0 0.0831062 0 0 0 0 0.362286 0 0 0 0 0.386719 0 0 0 0.0628551 0"/>
      <feBlend mode="normal" in2="BackgroundImageFix" result="effect1_dropShadow_1_446"/>
      <feBlend mode="normal" in="SourceGraphic" in2="effect1_dropShadow_1_446" result="shape"/>
    </filter>
  </defs>
</svg>