<svg xmlns="http://www.w3.org/2000/svg" width="160" height="149" viewBox="0 0 160 149" fill="none">
  <g filter="url(#filter0_d_1_100)">
    <g filter="url(#filter1_d_1_100)">
      <path fill-rule="evenodd" clip-rule="evenodd" d="M65.3968 54.4795C65.3968 60.1206 60.8237 64.6937 55.1826 64.6937C49.5415 64.6937 44.9688 60.1206 44.9688 54.4795C44.9688 48.8384 49.5415 44.2654 55.1826 44.2654C60.8237 44.2654 65.3968 48.8384 65.3968 54.4795Z" fill="#24272B"/>
      <path fill-rule="evenodd" clip-rule="evenodd" d="M39.8338 93.4314C39.8338 99.0725 35.2608 103.646 29.6197 103.646C23.9786 103.646 19.4058 99.0725 19.4058 93.4314C19.4058 87.7903 23.9786 83.2173 29.6197 83.2173C35.2608 83.2173 39.8338 87.7903 39.8338 93.4314Z" fill="#24272B"/>
      <path fill-rule="evenodd" clip-rule="evenodd" d="M139.957 106.186C139.957 116.48 131.611 124.826 121.316 124.826C111.022 124.826 102.676 116.48 102.676 106.186C102.676 95.8907 111.022 87.5452 121.316 87.5452C131.611 87.5452 139.957 95.8907 139.957 106.186Z" fill="#24272B"/>
      <path fill-rule="evenodd" clip-rule="evenodd" d="M103.815 27.6197C103.815 33.2608 99.2417 37.8338 93.6006 37.8338C87.9595 37.8338 83.3867 33.2608 83.3867 27.6197C83.3867 21.9786 87.9595 17.4055 93.6006 17.4055C99.2417 17.4055 103.815 21.9786 103.815 27.6197Z" fill="#24272B"/>
      <path fill-rule="evenodd" clip-rule="evenodd" d="M140.974 54.4795C140.974 60.1206 136.401 64.6937 130.76 64.6937C125.118 64.6937 120.546 60.1206 120.546 54.4795C120.546 48.8384 125.118 44.2654 130.76 44.2654C136.401 44.2654 140.974 48.8384 140.974 54.4795Z" fill="#24272B"/>
    </g>
    <path fill-rule="evenodd" clip-rule="evenodd" d="M145.986 105.857C145.986 119.431 134.982 130.436 121.407 130.436C107.833 130.436 96.8281 119.431 96.8281 105.857C96.8281 92.282 107.833 81.2773 121.407 81.2773C134.982 81.2773 145.986 92.282 145.986 105.857Z" stroke="#08B7F6"/>
    <path fill-rule="evenodd" clip-rule="evenodd" d="M144.254 54.3585C144.254 61.8113 138.212 67.8532 130.759 67.8532C123.307 67.8532 117.265 61.8113 117.265 54.3585C117.265 46.9056 123.307 40.8638 130.759 40.8638C138.212 40.8638 144.254 46.9056 144.254 54.3585Z" stroke="#08B7F6"/>
    <path fill-rule="evenodd" clip-rule="evenodd" d="M107.095 27.6197C107.095 35.0725 101.053 41.1144 93.6004 41.1144C86.1476 41.1144 80.106 35.0725 80.106 27.6197C80.106 20.1669 86.1476 14.125 93.6004 14.125C101.053 14.125 107.095 20.1669 107.095 27.6197Z" stroke="#08B7F6"/>
    <path fill-rule="evenodd" clip-rule="evenodd" d="M68.6718 54.3585C68.6718 61.8113 62.6302 67.8532 55.1771 67.8532C47.7242 67.8532 41.6826 61.8113 41.6826 54.3585C41.6826 46.9056 47.7242 40.8638 55.1771 40.8638C62.6302 40.8638 68.6718 46.9056 68.6718 54.3585Z" stroke="#08B7F6"/>
    <path fill-rule="evenodd" clip-rule="evenodd" d="M43.1142 93.4315C43.1142 100.884 37.0725 106.926 29.6195 106.926C22.1666 106.926 16.125 100.884 16.125 93.4315C16.125 85.9786 22.1666 79.9368 29.6195 79.9368C37.0725 79.9368 43.1142 85.9786 43.1142 93.4315Z" stroke="#08B7F6"/>
    <path d="M43.1143 93.4314L97.9267 98.57" stroke="#08B7F6"/>
    <path d="M66.7197 61.353L103.441 89.0859" stroke="#08B7F6"/>
    <path d="M97.9265 40.4058L111.621 83.305" stroke="#08B7F6"/>
    <path d="M130.76 67.853V83.1211" stroke="#08B7F6"/>
    <path fill-rule="evenodd" clip-rule="evenodd" d="M106.822 101.583C106.822 101.583 104.608 115.558 115.582 117.506C115.718 117.53 115.857 117.553 115.998 117.573C115.998 117.573 119.679 118.172 121.689 117.776C123.7 117.381 123.7 118.864 123.304 119.326C122.909 119.787 117.998 121.04 112.262 118.007C106.527 114.974 104.908 107.574 106.822 101.583Z" stroke="#08B7F6"/>
    <path fill-rule="evenodd" clip-rule="evenodd" d="M131.644 45.8731C131.644 45.8731 123.881 45.9089 123.795 52.0237C123.794 52.0998 123.794 52.177 123.795 52.2551C123.795 52.2551 123.796 54.301 124.188 55.3551C124.58 56.4088 123.777 56.5401 123.492 56.3665C123.207 56.1932 122.095 53.644 123.231 50.2703C124.366 46.8963 128.231 45.3661 131.644 45.8731Z" stroke="#08B7F6"/>
    <path fill-rule="evenodd" clip-rule="evenodd" d="M100.557 24.1374C100.557 24.1374 96.6609 17.4225 91.3151 20.3922C91.2482 20.4292 91.1816 20.4678 91.1145 20.5079C91.1145 20.5079 89.3403 21.5271 88.6214 22.3918C87.9025 23.2562 87.3888 22.6247 87.3976 22.2913C87.4061 21.9579 89.0633 19.7244 92.5545 19.0296C96.046 18.335 99.2972 20.9247 100.557 24.1374Z" stroke="#08B7F6"/>
    <path fill-rule="evenodd" clip-rule="evenodd" d="M51.75 62.2676C51.75 62.2676 58.8992 65.2934 61.3873 59.7069C61.4183 59.6373 61.4487 59.5664 61.4782 59.494C61.4782 59.494 62.2835 57.6132 62.3386 56.4902C62.3937 55.3671 63.1835 55.5632 63.3771 55.8347C63.5705 56.1065 63.5885 58.8876 61.2155 61.541C58.8424 64.1946 54.6874 64.0783 51.75 62.2676Z" stroke="#08B7F6"/>
    <path fill-rule="evenodd" clip-rule="evenodd" d="M21.7969 94.7263C21.7969 94.7263 23.7156 102.249 29.6683 100.848C29.7424 100.831 29.8173 100.812 29.8927 100.791C29.8927 100.791 31.8773 100.294 32.8048 99.6583C33.7321 99.0223 34.0542 99.7698 33.955 100.088C33.8558 100.407 31.6528 102.104 28.1043 101.821C24.5557 101.538 22.1333 98.1607 21.7969 94.7263Z" stroke="#08B7F6"/>
  </g>
  <defs>
    <filter id="filter0_d_1_100" x="4.625" y="7.625" width="154.861" height="141.311" filterUnits="userSpaceOnUse" color-interpolation-filters="sRGB">
      <feFlood flood-opacity="0" result="BackgroundImageFix"/>
      <feColorMatrix in="SourceAlpha" type="matrix" values="0 0 0 0 0 0 0 0 0 0 0 0 0 0 0 0 0 0 127 0" result="hardAlpha"/>
      <feOffset dx="1" dy="6"/>
      <feGaussianBlur stdDeviation="6"/>
      <feColorMatrix type="matrix" values="0 0 0 0 0.0929574 0 0 0 0 0.0929574 0 0 0 0 0.0929574 0 0 0 0.603393 0"/>
      <feBlend mode="normal" in2="BackgroundImageFix" result="effect1_dropShadow_1_100"/>
      <feBlend mode="normal" in="SourceGraphic" in2="effect1_dropShadow_1_100" result="shape"/>
    </filter>
    <filter id="filter1_d_1_100" x="0.405762" y="0.405518" width="159.568" height="145.42" filterUnits="userSpaceOnUse" color-interpolation-filters="sRGB">
      <feFlood flood-opacity="0" result="BackgroundImageFix"/>
      <feColorMatrix in="SourceAlpha" type="matrix" values="0 0 0 0 0 0 0 0 0 0 0 0 0 0 0 0 0 0 127 0" result="hardAlpha"/>
      <feOffset dy="2"/>
      <feGaussianBlur stdDeviation="9.5"/>
      <feColorMatrix type="matrix" values="0 0 0 0 0.0831062 0 0 0 0 0.362286 0 0 0 0 0.386719 0 0 0 0.0628551 0"/>
      <feBlend mode="normal" in2="BackgroundImageFix" result="effect1_dropShadow_1_100"/>
      <feBlend mode="normal" in="SourceGraphic" in2="effect1_dropShadow_1_100" result="shape"/>
    </filter>
  </defs>
</svg>