<svg xmlns="http://www.w3.org/2000/svg" width="160" height="162" viewBox="0 0 160 162" fill="none">
  <g filter="url(#filter0_d_1_57)">
    <g filter="url(#filter1_d_1_57)">
      <path fill-rule="evenodd" clip-rule="evenodd" d="M139.978 75.1235C139.978 86.3413 130.884 95.4356 119.666 95.4356C108.448 95.4356 99.3535 86.3413 99.3535 75.1235C99.3535 63.9056 108.448 54.8113 119.666 54.8113C130.884 54.8113 139.978 63.9056 139.978 75.1235Z" fill="#24272B"/>
      <path fill-rule="evenodd" clip-rule="evenodd" d="M95.4408 123.417C95.4408 131.731 88.701 138.471 80.3873 138.471C72.0736 138.471 65.3345 131.731 65.3345 123.417C65.3345 115.103 72.0736 108.364 80.3873 108.364C88.701 108.364 95.4408 115.103 95.4408 123.417Z" fill="#24272B"/>
      <path fill-rule="evenodd" clip-rule="evenodd" d="M92.3873 29.7652C92.3873 36.7214 86.748 42.3606 79.7918 42.3606C72.8355 42.3606 67.1963 36.7214 67.1963 29.7652C67.1963 22.8089 72.8355 17.1697 79.7918 17.1697C86.748 17.1697 92.3873 22.8089 92.3873 29.7652Z" fill="#24272B"/>
      <path fill-rule="evenodd" clip-rule="evenodd" d="M78.1429 73.6247C78.1429 77.5745 74.9408 80.7759 70.9916 80.7759C67.0417 80.7759 63.8403 77.5745 63.8403 73.6247C63.8403 69.6748 67.0417 66.4734 70.9916 66.4734C74.9408 66.4734 78.1429 69.6748 78.1429 73.6247Z" fill="#24272B"/>
      <path fill-rule="evenodd" clip-rule="evenodd" d="M38.9437 51.9787C38.9437 57.2904 34.6373 61.5968 29.3256 61.5968C24.0139 61.5968 19.7075 57.2904 19.7075 51.9787C19.7075 46.667 24.0139 42.3606 29.3256 42.3606C34.6373 42.3606 38.9437 46.667 38.9437 51.9787Z" fill="#24272B"/>
      <path fill-rule="evenodd" clip-rule="evenodd" d="M43.7456 99.1043C43.7456 103.534 40.1542 107.126 35.7241 107.126C31.294 107.126 27.7026 103.534 27.7026 99.1043C27.7026 94.6742 31.294 91.0828 35.7241 91.0828C40.1542 91.0828 43.7456 94.6742 43.7456 99.1043Z" fill="#24272B"/>
    </g>
    <path fill-rule="evenodd" clip-rule="evenodd" d="M145.697 75.1235C145.697 89.4998 134.042 101.154 119.666 101.154C105.289 101.154 93.6348 89.4998 93.6348 75.1235C93.6348 60.7471 105.289 49.0925 119.666 49.0925C134.042 49.0925 145.697 60.7471 145.697 75.1235Z" stroke="#08B7F6"/>
    <path fill-rule="evenodd" clip-rule="evenodd" d="M99.6404 123.276C99.6404 133.966 90.9739 142.632 80.2836 142.632C69.5927 142.632 60.9263 133.966 60.9263 123.276C60.9263 112.585 69.5927 103.919 80.2836 103.919C90.9739 103.919 99.6404 112.585 99.6404 123.276Z" stroke="#08B7F6"/>
    <path fill-rule="evenodd" clip-rule="evenodd" d="M96.2413 29.7651C96.2413 38.8499 88.8767 46.2145 79.7918 46.2145C70.7064 46.2145 63.3418 38.8499 63.3418 29.7651C63.3418 20.6802 70.7064 13.3157 79.7918 13.3157C88.8767 13.3157 96.2413 20.6802 96.2413 29.7651Z" stroke="#08B7F6"/>
    <path fill-rule="evenodd" clip-rule="evenodd" d="M42.3355 51.7254C42.3355 58.9108 36.5107 64.7355 29.3254 64.7355C22.1407 64.7355 16.3159 58.9108 16.3159 51.7254C16.3159 44.5401 22.1407 38.7153 29.3254 38.7153C36.5107 38.7153 42.3355 44.5401 42.3355 51.7254Z" stroke="#08B7F6"/>
    <path fill-rule="evenodd" clip-rule="evenodd" d="M46.5545 99.1043C46.5545 105.086 41.7053 109.935 35.7241 109.935C29.7422 109.935 24.8931 105.086 24.8931 99.1043C24.8931 93.1224 29.7422 88.2739 35.7241 88.2739C41.7053 88.2739 46.5545 93.1224 46.5545 99.1043Z" stroke="#08B7F6"/>
    <path fill-rule="evenodd" clip-rule="evenodd" d="M80.8156 73.6246C80.8156 79.0505 76.4171 83.4485 70.9918 83.4485C65.5659 83.4485 61.168 79.0505 61.168 73.6246C61.168 68.1987 65.5659 63.8008 70.9918 63.8008C76.4171 63.8008 80.8156 68.1987 80.8156 73.6246Z" stroke="#08B7F6"/>
    <path fill-rule="evenodd" clip-rule="evenodd" d="M105.222 67.1919C105.222 67.1919 102.406 84.9735 116.369 87.4523C116.543 87.4833 116.719 87.5117 116.899 87.5382C116.899 87.5382 121.582 88.2999 124.14 87.7963C126.699 87.2933 126.699 89.1808 126.196 89.7677C125.692 90.3552 119.443 91.9487 112.145 88.0903C104.847 84.2314 102.787 74.8146 105.222 67.1919Z" stroke="#08B7F6"/>
    <path fill-rule="evenodd" clip-rule="evenodd" d="M85.857 110.992C85.857 110.992 71.256 110.403 70.5776 121.894C70.5687 122.037 70.5624 122.182 70.5586 122.329C70.5586 122.329 70.387 126.176 71.0351 128.191C71.6826 130.206 70.1611 130.385 69.6398 130.034C69.1192 129.684 67.243 124.797 69.6638 118.548C72.0846 112.3 79.4813 109.75 85.857 110.992Z" stroke="#08B7F6"/>
    <path fill-rule="evenodd" clip-rule="evenodd" d="M89.1902 25.1531C89.1902 25.1531 90.9502 36.2662 82.2238 37.8155C82.1147 37.835 82.0042 37.8527 81.8925 37.8691C81.8925 37.8691 78.9656 38.3449 77.3665 38.0306C75.7674 37.7157 75.7674 38.8958 76.0823 39.2625C76.3966 39.6298 80.3022 40.6256 84.8636 38.2143C89.425 35.8023 90.7117 29.917 89.1902 25.1531Z" stroke="#08B7F6"/>
    <path fill-rule="evenodd" clip-rule="evenodd" d="M24.2797 58.6364C24.2797 58.6364 18.8418 51.3071 24.5347 46.9168C24.606 46.8619 24.6785 46.8076 24.753 46.754C24.753 46.754 26.6784 45.3133 27.9462 44.939C29.214 44.5648 28.771 43.7167 28.4075 43.5709C28.0434 43.4251 24.8615 44.1754 22.4875 47.6217C20.1134 51.0673 21.397 55.782 24.2797 58.6364Z" stroke="#08B7F6"/>
    <path fill-rule="evenodd" clip-rule="evenodd" d="M42.1757 97.1504C42.1757 97.1504 41.0227 104.302 35.3734 103.499C35.3033 103.489 35.232 103.478 35.1601 103.465C35.1601 103.465 33.2738 103.17 32.3588 102.656C31.4437 102.143 31.2071 102.865 31.3257 103.152C31.445 103.44 33.6342 104.833 36.9088 104.273C40.1828 103.712 42.1511 100.37 42.1757 97.1504Z" stroke="#08B7F6"/>
    <path d="M41.1133 46.2148L64.4016 35.5825" stroke="#08B7F6"/>
    <path d="M90.6797 42.0947L102.259 55.77" stroke="#08B7F6"/>
    <path d="M93.6346 74.0992H80.8726" stroke="#08B7F6"/>
    <path d="M103.295 95.3608L92.6255 108.363" stroke="#08B7F6"/>
    <path d="M45.4272 103.919L63.3212 113.944" stroke="#08B7F6"/>
    <path d="M30.8311 64.6479L34.495 88.3427" stroke="#08B7F6"/>
  </g>
  <defs>
    <filter id="filter0_d_1_57" x="4.81592" y="6.81567" width="154.381" height="154.317" filterUnits="userSpaceOnUse" color-interpolation-filters="sRGB">
      <feFlood flood-opacity="0" result="BackgroundImageFix"/>
      <feColorMatrix in="SourceAlpha" type="matrix" values="0 0 0 0 0 0 0 0 0 0 0 0 0 0 0 0 0 0 127 0" result="hardAlpha"/>
      <feOffset dx="1" dy="6"/>
      <feGaussianBlur stdDeviation="6"/>
      <feColorMatrix type="matrix" values="0 0 0 0 0.0929574 0 0 0 0 0.0929574 0 0 0 0 0.0929574 0 0 0 0.603393 0"/>
      <feBlend mode="normal" in2="BackgroundImageFix" result="effect1_dropShadow_1_57"/>
      <feBlend mode="normal" in="SourceGraphic" in2="effect1_dropShadow_1_57" result="shape"/>
    </filter>
    <filter id="filter1_d_1_57" x="0.70752" y="0.169678" width="158.271" height="159.301" filterUnits="userSpaceOnUse" color-interpolation-filters="sRGB">
      <feFlood flood-opacity="0" result="BackgroundImageFix"/>
      <feColorMatrix in="SourceAlpha" type="matrix" values="0 0 0 0 0 0 0 0 0 0 0 0 0 0 0 0 0 0 127 0" result="hardAlpha"/>
      <feOffset dy="2"/>
      <feGaussianBlur stdDeviation="9.5"/>
      <feColorMatrix type="matrix" values="0 0 0 0 0.0831062 0 0 0 0 0.362286 0 0 0 0 0.386719 0 0 0 0.0628551 0"/>
      <feBlend mode="normal" in2="BackgroundImageFix" result="effect1_dropShadow_1_57"/>
      <feBlend mode="normal" in="SourceGraphic" in2="effect1_dropShadow_1_57" result="shape"/>
    </filter>
  </defs>
</svg>