<svg xmlns="http://www.w3.org/2000/svg" width="156" height="156" viewBox="0 0 156 156" fill="none">
  <g filter="url(#filter0_d_1_430)">
    <path fill-rule="evenodd" clip-rule="evenodd" d="M126.148 99.9421C126.148 101.933 124.534 103.546 122.544 103.546C120.554 103.546 118.941 101.933 118.941 99.9421C118.941 97.9515 120.554 96.3381 122.544 96.3381C124.534 96.3381 126.148 97.9515 126.148 99.9421Z" fill="#24272B"/>
    <path fill-rule="evenodd" clip-rule="evenodd" d="M34.2076 99.8693C34.2076 101.86 32.5942 103.473 30.6037 103.473C28.6138 103.473 27.0005 101.86 27.0005 99.8693C27.0005 97.8787 28.6138 96.2654 30.6037 96.2654C32.5942 96.2654 34.2076 97.8787 34.2076 99.8693Z" fill="#24272B"/>
    <path fill-rule="evenodd" clip-rule="evenodd" d="M80.043 20.2897C80.043 22.2803 78.4297 23.8937 76.4391 23.8937C74.4493 23.8937 72.8359 22.2803 72.8359 20.2897C72.8359 18.2991 74.4493 16.6858 76.4391 16.6858C78.4297 16.6858 80.043 18.2991 80.043 20.2897Z" fill="#24272B"/>
    <g filter="url(#filter1_d_1_430)">
      <path fill-rule="evenodd" clip-rule="evenodd" d="M92.9932 73.2776C92.9932 97.0257 85.8296 116.278 76.9932 116.278C68.1567 116.278 60.9932 97.0257 60.9932 73.2776C60.9932 49.5295 68.1567 30.2776 76.9932 30.2776C85.8296 30.2776 92.9932 49.5295 92.9932 73.2776Z" fill="#24272B"/>
      <path fill-rule="evenodd" clip-rule="evenodd" d="M85.0943 86.9707C64.594 98.5208 44.3487 101.753 39.875 94.1907C35.4006 86.6283 48.3925 71.1346 68.892 59.5845C89.3923 48.0344 109.638 44.8021 114.111 52.3645C118.586 59.9268 105.594 75.4205 85.0943 86.9707Z" fill="#24272B"/>
      <path fill-rule="evenodd" clip-rule="evenodd" d="M69.0957 87.2261C48.5716 75.7697 35.4695 60.2374 39.8307 52.534C44.1925 44.83 64.3664 47.8724 84.8904 59.3289C105.415 70.7853 118.517 86.3176 114.155 94.0217C109.794 101.725 89.6197 98.6826 69.0957 87.2261Z" fill="#24272B"/>
    </g>
    <path fill-rule="evenodd" clip-rule="evenodd" d="M141.611 71.9932C141.611 107.68 112.681 136.611 76.993 136.611C41.3061 136.611 12.3755 107.68 12.3755 71.9932C12.3755 36.3064 41.3061 7.37573 76.993 7.37573C112.681 7.37573 141.611 36.3064 141.611 71.9932Z" stroke="#08B7F6"/>
    <path fill-rule="evenodd" clip-rule="evenodd" d="M81.0378 20.2895C81.0378 22.8294 78.9788 24.8884 76.4389 24.8884C73.8998 24.8884 71.8408 22.8294 71.8408 20.2895C71.8408 17.7496 73.8998 15.6907 76.4389 15.6907C78.9788 15.6907 81.0378 17.7496 81.0378 20.2895Z" stroke="#08B7F6"/>
    <path fill-rule="evenodd" clip-rule="evenodd" d="M35.2028 99.8694C35.2028 102.409 33.1438 104.468 30.604 104.468C28.0648 104.468 26.0059 102.409 26.0059 99.8694C26.0059 97.3295 28.0648 95.2705 30.604 95.2705C33.1438 95.2705 35.2028 97.3295 35.2028 99.8694Z" stroke="#08B7F6"/>
    <path fill-rule="evenodd" clip-rule="evenodd" d="M127.143 99.9421C127.143 102.482 125.084 104.541 122.544 104.541C120.005 104.541 117.946 102.482 117.946 99.9421C117.946 97.4022 120.005 95.3433 122.544 95.3433C125.084 95.3433 127.143 97.4022 127.143 99.9421Z" stroke="#08B7F6"/>
    <path fill-rule="evenodd" clip-rule="evenodd" d="M85.3193 73.3561C85.3193 78.1946 81.3968 82.1179 76.5575 82.1179C71.7189 82.1179 67.7964 78.1946 67.7964 73.3561C67.7964 68.5175 71.7189 64.5942 76.5575 64.5942C81.3968 64.5942 85.3193 68.5175 85.3193 73.3561Z" stroke="#08B7F6"/>
    <path d="M116.955 104.09C106.75 108.874 86.0861 104.726 65.6159 92.9077C40.6311 78.4822 25.3971 58.094 31.589 47.3679C37.7817 36.6425 63.0565 39.6415 88.0413 54.0663C108.655 65.9676 122.631 81.9283 123.413 93.1722" stroke="#08B7F6"/>
    <path d="M30.2373 93.2812C30.9361 82.0313 44.9363 66.006 65.6168 54.0663C90.6016 39.6408 115.876 36.6418 122.068 47.3679C128.261 58.0933 113.027 78.4823 88.0415 92.9077C67.4782 104.78 46.718 108.913 36.5622 104.023" stroke="#08B7F6"/>
    <path d="M82.4335 22.8936C92.1068 28.691 99.2546 49.1445 99.2546 73.4869C99.2546 102.337 89.2145 125.725 76.8292 125.725C64.4439 125.725 54.4038 102.337 54.4038 73.4869C54.4038 49.8464 61.1458 29.873 70.3946 23.4308" stroke="#08B7F6"/>
  </g>
  <defs>
    <filter id="filter0_d_1_430" x="0.875488" y="0.875732" width="154.235" height="154.235" filterUnits="userSpaceOnUse" color-interpolation-filters="sRGB">
      <feFlood flood-opacity="0" result="BackgroundImageFix"/>
      <feColorMatrix in="SourceAlpha" type="matrix" values="0 0 0 0 0 0 0 0 0 0 0 0 0 0 0 0 0 0 127 0" result="hardAlpha"/>
      <feOffset dx="1" dy="6"/>
      <feGaussianBlur stdDeviation="6"/>
      <feColorMatrix type="matrix" values="0 0 0 0 0.0929574 0 0 0 0 0.0929574 0 0 0 0 0.0929574 0 0 0 0.603393 0"/>
      <feBlend mode="normal" in2="BackgroundImageFix" result="effect1_dropShadow_1_430"/>
      <feBlend mode="normal" in="SourceGraphic" in2="effect1_dropShadow_1_430" result="shape"/>
    </filter>
    <filter id="filter1_d_1_430" x="19.9932" y="13.2776" width="114" height="124" filterUnits="userSpaceOnUse" color-interpolation-filters="sRGB">
      <feFlood flood-opacity="0" result="BackgroundImageFix"/>
      <feColorMatrix in="SourceAlpha" type="matrix" values="0 0 0 0 0 0 0 0 0 0 0 0 0 0 0 0 0 0 127 0" result="hardAlpha"/>
      <feOffset dy="2"/>
      <feGaussianBlur stdDeviation="9.5"/>
      <feColorMatrix type="matrix" values="0 0 0 0 0.0831062 0 0 0 0 0.362286 0 0 0 0 0.386719 0 0 0 0.0628551 0"/>
      <feBlend mode="normal" in2="BackgroundImageFix" result="effect1_dropShadow_1_430"/>
      <feBlend mode="normal" in="SourceGraphic" in2="effect1_dropShadow_1_430" result="shape"/>
    </filter>
  </defs>
</svg>
