<svg xmlns="http://www.w3.org/2000/svg" width="192" height="142" viewBox="0 0 192 142" fill="none">
  <g filter="url(#filter0_d_1_122)">
    <g filter="url(#filter1_d_1_122)">
      <path fill-rule="evenodd" clip-rule="evenodd" d="M28.4983 105.845H80.0148C80.0148 105.845 95.1143 106.792 99.6165 101.737C104.148 96.6501 110.571 93.1214 117.378 93.4664C126.572 93.9332 128.173 98.1687 134.263 101.737C137.134 103.42 141.099 105.79 147.09 105.98C151.566 106.122 154.517 106.158 156.428 106.167C157.354 106.171 159.969 107.169 160.161 110.05C160.709 118.271 157.32 118.024 149.153 118.14C135.789 118.33 81.869 118.14 81.869 118.14L31.7254 118.225C31.7254 118.225 28.781 118.028 25.8942 118.128C21.7859 118.271 21.5101 106.057 28.4983 105.845Z" fill="#24272B"/>
      <path fill-rule="evenodd" clip-rule="evenodd" d="M154.131 27.8903H116.679C116.679 27.8903 101.644 26.9439 97.1608 31.9984C92.6485 37.0857 84.4437 43.1045 72.5644 43.0912C63.4004 43.0805 54.8785 35.567 48.814 31.9984C45.9551 30.3159 42.0073 27.9455 36.0415 27.7557C31.5847 27.6139 28.6454 27.578 26.7433 27.5688C25.8211 27.5647 23.2331 26.5656 23.0254 23.6854C22.6003 17.7909 25.8548 17.2473 33.9871 17.1312C47.2945 16.9413 100.986 17.1312 100.986 17.1312L150.918 17.0467C150.918 17.0467 153.857 16.8931 156.724 17.1429C159.861 17.4163 161.09 27.6789 154.131 27.8903Z" fill="#24272B"/>
      <path fill-rule="evenodd" clip-rule="evenodd" d="M131.809 54.1929C131.809 57.5066 129.157 60.1929 125.885 60.1929C122.614 60.1929 119.962 57.5066 119.962 54.1929C119.962 50.8791 122.614 48.1929 125.885 48.1929C129.157 48.1929 131.809 50.8791 131.809 54.1929Z" fill="#24272B"/>
      <path fill-rule="evenodd" clip-rule="evenodd" d="M75.563 78.1018C75.563 81.4154 72.9109 84.1018 69.6396 84.1018C66.3679 84.1018 63.7158 81.4154 63.7158 78.1018C63.7158 74.7882 66.3679 72.1018 69.6396 72.1018C72.9109 72.1018 75.563 74.7882 75.563 78.1018Z" fill="#24272B"/>
      <path fill-rule="evenodd" clip-rule="evenodd" d="M102.448 62.6362C102.448 64.8455 100.68 66.6362 98.4987 66.6362C96.3178 66.6362 94.5498 64.8455 94.5498 62.6362C94.5498 60.427 96.3178 58.6362 98.4987 58.6362C100.68 58.6362 102.448 60.427 102.448 62.6362Z" fill="#24272B"/>
      <path fill-rule="evenodd" clip-rule="evenodd" d="M148.722 79.2209C148.722 81.4302 146.954 83.2209 144.773 83.2209C142.592 83.2209 140.824 81.4302 140.824 79.2209C140.824 77.0117 142.592 75.2209 144.773 75.2209C146.954 75.2209 148.722 77.0117 148.722 79.2209Z" fill="#24272B"/>
      <path fill-rule="evenodd" clip-rule="evenodd" d="M162.969 54.1929C162.969 56.4021 161.201 58.1929 159.02 58.1929C156.839 58.1929 155.071 56.4021 155.071 54.1929C155.071 51.9836 156.839 50.1929 159.02 50.1929C161.201 50.1929 162.969 51.9836 162.969 54.1929Z" fill="#24272B"/>
      <path fill-rule="evenodd" clip-rule="evenodd" d="M47.8838 59.1067C47.8838 61.8682 45.6738 64.1067 42.9473 64.1067C40.2213 64.1067 38.0112 61.8682 38.0112 59.1067C38.0112 56.3451 40.2213 54.1067 42.9473 54.1067C45.6738 54.1067 47.8838 56.3451 47.8838 59.1067Z" fill="#24272B"/>
      <path fill-rule="evenodd" clip-rule="evenodd" d="M27.7116 77.6455C27.7116 79.8548 25.9435 81.6455 23.7623 81.6455C21.5815 81.6455 19.8135 79.8548 19.8135 77.6455C19.8135 75.4363 21.5815 73.6455 23.7623 73.6455C25.9435 73.6455 27.7116 75.4363 27.7116 77.6455Z" fill="#24272B"/>
    </g>
    <path d="M26.938 20.4058H156.269" stroke="#08B7F6"/>
    <path d="M26.938 113.37H156.269" stroke="#08B7F6"/>
    <path d="M14 34.052H29.5025C33.3745 34.052 37.2232 34.8776 40.6863 36.6266C41.3864 36.9803 42.0905 37.3785 42.7788 37.8259C50.3136 42.7238 58.2834 50.0402 71.1185 50.0356C79.4698 50.0325 85.7346 50.0402 99.8979 39.8236C99.8979 39.8236 107.587 34.052 114.397 34.052H168.879" stroke="#08B7F6"/>
    <path d="M162.193 99.7372H148.061C144.532 99.7372 141.024 98.9116 137.867 97.1626C137.229 96.8089 136.587 96.4107 135.96 95.9633C129.091 91.0654 125.158 87.2716 116.676 87.2803C109.793 87.2875 106.549 87.9733 99.5058 93.0908C98.4101 93.8862 97.3611 94.7595 96.3328 95.6583C94.7782 97.0183 90.9269 99.7372 84.9905 99.7372H21.0142" stroke="#08B7F6"/>
    <path fill-rule="evenodd" clip-rule="evenodd" d="M50.6778 59.1068C50.6778 63.4207 47.2166 66.9181 42.9475 66.9181C38.6784 66.9181 35.2173 63.4207 35.2173 59.1068C35.2173 54.7929 38.6784 51.2954 42.9475 51.2954C47.2166 51.2954 50.6778 54.7929 50.6778 59.1068Z" stroke="#08B7F6"/>
    <path fill-rule="evenodd" clip-rule="evenodd" d="M105.622 62.6362C105.622 66.6117 102.433 69.8343 98.4984 69.8343C94.5642 69.8343 91.375 66.6117 91.375 62.6362C91.375 58.6606 94.5642 55.438 98.4984 55.438C102.433 55.438 105.622 58.6606 105.622 62.6362Z" stroke="#08B7F6"/>
    <path fill-rule="evenodd" clip-rule="evenodd" d="M151.897 79.2211C151.897 83.1967 148.708 86.4193 144.773 86.4193C140.839 86.4193 137.65 83.1967 137.65 79.2211C137.65 75.2456 140.839 72.0229 144.773 72.0229C148.708 72.0229 151.897 75.2456 151.897 79.2211Z" stroke="#08B7F6"/>
    <path fill-rule="evenodd" clip-rule="evenodd" d="M166.144 54.1928C166.144 58.1683 162.955 61.391 159.02 61.391C155.086 61.391 151.897 58.1683 151.897 54.1928C151.897 50.2172 155.086 46.9946 159.02 46.9946C162.955 46.9946 166.144 50.2172 166.144 54.1928Z" stroke="#08B7F6"/>
    <path fill-rule="evenodd" clip-rule="evenodd" d="M31.4927 77.6456C31.4927 81.9595 28.0316 85.457 23.7625 85.457C19.4934 85.457 16.0322 81.9595 16.0322 77.6456C16.0322 73.3317 19.4934 69.8342 23.7625 69.8342C28.0316 69.8342 31.4927 73.3317 31.4927 77.6456Z" stroke="#08B7F6"/>
    <path fill-rule="evenodd" clip-rule="evenodd" d="M79.4561 78.1016C79.4561 83.5804 75.0609 88.0218 69.6389 88.0218C64.2175 88.0218 59.8223 83.5804 59.8223 78.1016C59.8223 72.6227 64.2175 68.1814 69.6389 68.1814C75.0609 68.1814 79.4561 72.6227 79.4561 78.1016Z" stroke="#08B7F6"/>
    <path fill-rule="evenodd" clip-rule="evenodd" d="M135.703 54.1929C135.703 59.6718 131.307 64.1131 125.886 64.1131C120.464 64.1131 116.069 59.6718 116.069 54.1929C116.069 48.714 120.464 44.2727 125.886 44.2727C131.307 44.2727 135.703 48.714 135.703 54.1929Z" stroke="#08B7F6"/>
  </g>
  <defs>
    <filter id="filter0_d_1_122" x="1" y="4" width="190.879" height="137.225" filterUnits="userSpaceOnUse" color-interpolation-filters="sRGB">
      <feFlood flood-opacity="0" result="BackgroundImageFix"/>
      <feColorMatrix in="SourceAlpha" type="matrix" values="0 0 0 0 0 0 0 0 0 0 0 0 0 0 0 0 0 0 127 0" result="hardAlpha"/>
      <feOffset dx="5" dy="5"/>
      <feGaussianBlur stdDeviation="9"/>
      <feColorMatrix type="matrix" values="0 0 0 0 0.0929574 0 0 0 0 0.0929574 0 0 0 0 0.0929574 0 0 0 0.603393 0"/>
      <feBlend mode="normal" in2="BackgroundImageFix" result="effect1_dropShadow_1_122"/>
      <feBlend mode="normal" in="SourceGraphic" in2="effect1_dropShadow_1_122" result="shape"/>
    </filter>
    <filter id="filter1_d_1_122" x="0.813477" y="0" width="181.156" height="139.225" filterUnits="userSpaceOnUse" color-interpolation-filters="sRGB">
      <feFlood flood-opacity="0" result="BackgroundImageFix"/>
      <feColorMatrix in="SourceAlpha" type="matrix" values="0 0 0 0 0 0 0 0 0 0 0 0 0 0 0 0 0 0 127 0" result="hardAlpha"/>
      <feOffset dy="2"/>
      <feGaussianBlur stdDeviation="9.5"/>
      <feColorMatrix type="matrix" values="0 0 0 0 0.0831062 0 0 0 0 0.362286 0 0 0 0 0.386719 0 0 0 0.0628551 0"/>
      <feBlend mode="normal" in2="BackgroundImageFix" result="effect1_dropShadow_1_122"/>
      <feBlend mode="normal" in="SourceGraphic" in2="effect1_dropShadow_1_122" result="shape"/>
    </filter>
  </defs>
</svg>