<svg xmlns="http://www.w3.org/2000/svg" width="154" height="161" viewBox="0 0 154 161" fill="none">
  <g filter="url(#filter0_d_1_466)">
    <path fill-rule="evenodd" clip-rule="evenodd" d="M41.0847 67.4237C41.7441 75.3529 41.7441 79.5719 46.7853 79.5719C55.039 79.5719 48.6992 90.6272 60.6333 89.6895C63.92 89.431 66.4956 82.086 71.6408 83.767C75.3691 84.9849 78.3534 83.9688 82.1753 82.8227C87.1124 81.3411 91.1513 84.4596 95.8961 83.6102C98.5039 83.1432 103.809 81.1342 107.373 82.6284C112.409 84.7398 115.109 77.7497 114.907 71.3095C114.704 64.8692 116.198 50.4176 111.867 53.1304C105.405 57.1791 102.982 55.9329 100.344 55.3322C99.1528 55.061 97.1491 56.352 95.5735 57.7842C94.0241 59.1933 89.1775 61.3689 85.6468 59.469C83.417 58.2691 78.9747 58.5575 74.5645 60.1496C64.2778 63.8629 57.1962 62.7803 51.8055 57.7842C42.9357 49.5643 40.7089 62.9058 41.0847 67.4237Z" fill="#24272B"/>
    <g filter="url(#filter1_d_1_466)">
      <path fill-rule="evenodd" clip-rule="evenodd" d="M30.3201 44.8778C30.9713 44.9144 31.4541 45.4785 31.4009 46.1278C31.3171 47.1476 31.3373 48.9952 31.7153 52.3356C32.5125 59.3878 33.7595 59.2974 33.9668 66.4982C34.1749 73.6982 34.3149 82.9215 37.8807 84.74C41.4474 86.5578 42.2782 93.4022 41.4474 96.5132C40.6165 99.6243 30.642 105.225 25.8628 98.5872C21.0843 91.9505 17.9668 86.9702 20.2527 80.6458C22.5387 74.3206 20.3845 74.1084 19.4878 70.3772C18.5903 66.6468 23.3695 58.6063 22.5387 54.0189C21.7071 49.4323 21.6756 39.1182 23.7932 42.032C25.4152 44.2637 28.5162 44.777 30.3201 44.8778Z" fill="#24272B"/>
      <path fill-rule="evenodd" clip-rule="evenodd" d="M30.3449 20.7342C29.0762 22.998 28.6001 25.598 28.7685 28.1868C29.047 32.4574 30.8262 34.7914 33.7289 37.0709C35.901 38.7766 38.6548 39.4154 41.4489 38.8057C43.0709 38.4516 45.0432 38.7265 45.9976 40.0818C49.0088 44.3554 51.541 49.1744 57.4077 48.1336C61.5702 47.3955 64.154 47.4328 65.1577 49.8707C65.9624 51.8252 70.2259 54.3422 73.654 52.4752C75.4167 51.5151 76.9362 50.2689 77.8015 49.6675C79.5275 48.4698 80.6315 48.496 82.2835 49.2147C84.1046 50.0074 86.4115 50.5864 88.7318 50.0291C90.9886 49.4867 92.7678 48.493 94.0477 47.5553C95.6929 46.3502 97.7685 45.9027 99.7408 46.4257C102.637 47.193 106.766 47.6876 109.163 45.2998C111.046 43.423 112.587 41.869 113.687 40.7528C114.789 39.6358 116.087 38.7445 117.533 38.1348C118.548 37.7075 119.976 37.0261 121.861 35.9502C126.225 33.4615 125.561 28.2952 124.522 26.6358C123.483 24.9772 116.478 20.7522 112.694 23.9962C102.501 32.7316 98.9018 29.8955 95.9564 32.4342C89.541 37.9645 87.5612 33.6438 83.3771 35.3809C66.6929 42.3105 63.3628 33.1619 57.6742 30.807C54.3404 29.4263 48.0911 28.2967 44.8883 22.2957C42.3224 17.4872 34.035 16.5929 31.7146 18.8739C31.1884 19.3917 30.7341 20.0402 30.3449 20.7342Z" fill="#24272B"/>
      <path fill-rule="evenodd" clip-rule="evenodd" d="M120.034 47.6977C119.313 48.1475 118.915 48.9626 119.007 49.8061C119.551 54.8029 121.609 71.5946 120.563 77.925C118.523 90.2757 115.663 89.5226 101.314 89.0131C89.5945 88.5962 82.6334 88.1031 77.2748 92.1928C73.3924 95.1559 69.551 101.521 69.9665 112.72C70.3826 123.92 78.5166 136.793 80.5945 126.103C82.673 115.414 80.6656 104.346 86.4635 100.859C90.4844 98.4403 94.9433 99.0731 97.7142 100.133C100.785 101.307 113.843 106.262 121.696 101.692C124.296 100.179 128.679 97.4474 131.102 92.4028C133.969 86.434 135.249 70.9617 132.946 64.9123C130.835 59.3701 133.312 56.1432 131.66 52.2881C130.493 49.5663 130.663 46.8811 130.832 44.3984C130.931 42.9415 129.611 41.7939 128.175 42.0741C126.395 42.4223 125.446 42.999 123.826 44.6741C122.501 46.0458 121.031 47.0761 120.034 47.6977Z" fill="#24272B"/>
    </g>
    <path d="M28.5572 33.1621C28.5572 33.1621 26.2466 45.5801 44.2099 43.3342C44.2099 43.3342 45.1006 55.8845 61.6448 52.5814C61.6448 52.5814 68.394 62.3576 80.5699 54.1668C80.5699 54.1668 89.6927 59.2876 99.7608 50.7323C99.7608 50.7323 106.184 54.955 113.727 47.0288L119.67 40.8329C119.67 40.8329 122.128 41.4851 124.113 40.0319C126.098 38.5788 126.628 36.9934 126.628 36.9934" stroke="#08B7F6"/>
    <path d="M38.2017 43.5259C38.2017 43.5259 33.6905 54.6558 39.4091 57.4374C43.8754 59.6093 49.3424 56.9884 51.93 52.5265L54.6194 53.0413C54.6194 53.0413 55.3275 55.7743 54.0288 57.7429C53.3993 58.697 52.1336 59.749 49.5685 59.2835C47.0034 58.8181 43.5056 59.2835 42.3402 60.059C41.174 60.8353 35.8889 64.7144 38.6089 71.4639C41.3297 78.2135 48.0917 78.6797 48.0917 78.6797C48.0917 78.6797 42.7526 83.4262 45.0161 89.3247C46.5924 93.4339 53.0663 94.2737 57.8073 93.7305C62.549 93.1874 67.1052 91.8366 68.0677 87.3688C68.5954 84.9182 65.7923 82.2704 65.3013 82.0866C64.8095 81.902 68.9255 64.5485 49.0213 68.2894" stroke="#08B7F6"/>
    <path d="M63.9199 72.5976C63.9199 72.5976 66.6145 68.4481 66.3817 62.5876C66.2934 60.3701 65.7859 57.9076 64.5547 55.3323" stroke="#08B7F6"/>
    <path d="M66.3813 62.5877C66.3813 62.5877 80.6568 55.6394 83.1081 70.4154C83.427 72.34 83.5363 74.0516 83.4854 75.572C83.2563 82.4172 81.186 90.265 70.305 86.7894L68.061 86.0475" stroke="#08B7F6"/>
    <path d="M83.3777 73.0763C83.3777 73.0763 86.8283 78.6745 92.2579 77.8407C97.6868 77.0069 98.8799 72.4188 98.582 68.6682" stroke="#08B7F6"/>
    <path d="M91.3628 69.3249C91.3628 69.3249 88.2304 57.6929 95.151 54.6558C98.9107 53.0062 101.747 56.0724 103.552 59.2178C105.45 62.5223 106.445 66.2864 106.472 70.0952C106.498 73.7584 105.771 78.5064 102.515 81.9648C96.4369 88.42 89.2685 87.4091 86.4631 82.5872" stroke="#08B7F6"/>
    <path d="M75.477 75.3535C75.477 75.3535 72.1267 71.387 65.5032 71.3093H64.4575" stroke="#08B7F6"/>
    <path d="M65.3008 82.0862C65.3008 82.0862 63.1099 85.5095 57.6743 87.393" stroke="#08B7F6"/>
    <path d="M73.7559 57.179C73.7559 57.179 77.0306 60.3886 77.544 61.7588" stroke="#08B7F6"/>
    <path d="M86.4634 55.6611C86.4634 55.6611 89.6752 58.8536 91.0008 61.1039" stroke="#08B7F6"/>
    <path d="M109.238 54.6133C109.238 54.6133 105.236 57.5771 104.482 60.9556" stroke="#08B7F6"/>
    <path d="M113.727 47.0286C113.727 47.0286 117.769 50.9457 117.543 60.9557C117.316 70.9657 117.511 79.4053 115.639 83.0229C113.768 86.6397 110.37 86.9408 108.257 86.1877C106.143 85.4339 103.352 82.1958 103.426 80.8764" stroke="#08B7F6"/>
    <path d="M112.408 77.9253C112.408 77.9253 111.884 75.2955 105.917 75.3537" stroke="#08B7F6"/>
    <path d="M106.473 67.4238C106.473 67.4238 112.751 73.0602 117.26 73.3314" stroke="#08B7F6"/>
    <path d="M113.616 60.1143C113.616 60.1143 116.655 60.6417 117.551 62.4505" stroke="#08B7F6"/>
    <path d="M48.0913 78.6794C48.0913 78.6794 52.2949 76.8452 54.9903 76.4604" stroke="#08B7F6"/>
    <path d="M101.314 91.5607C107.155 92.3788 113.666 92.9952 117.551 91.4583C122.355 89.5584 125.6 83.5956 126.113 78.6795C126.625 73.7634 126.322 55.591 125.714 51.6485C125.001 47.0282 123.864 44.6494 122.165 40.8682" stroke="#08B7F6"/>
    <path d="M74.3103 142.805C74.3103 142.805 74.8972 140.281 74.3103 138.816C71.8148 132.589 68.2392 127.164 67.6007 125.11C65.3006 117.715 67.1299 103.63 68.2362 100.152C69.3425 96.6749 73.4518 85.0959 82.6337 87.0489" stroke="#08B7F6"/>
    <path d="M40.8678 75.0591C40.8678 75.0591 41.507 76.8612 39.9097 78.6797C39.9097 78.6797 48.495 90.0644 44.9007 100.029C44.9007 100.029 51.2406 105.474 48.1223 113.898C48.1156 113.915 48.0879 113.918 48.0864 113.899C48.0257 112.974 47.3431 104.414 42.9045 104.414C42.9045 104.414 40.998 103.737 39.2106 107.004C37.7578 109.66 31.4771 108.974 29.4269 108.2C24.0781 106.181 11.5415 96.3873 13.641 87.6736C13.8558 86.7845 14.275 85.9627 14.7705 85.1931C15.1986 84.5274 15.7563 82.9749 14.3558 80.3039C12.5946 76.9441 15.4531 75.7637 15.3671 73.7561C15.2885 71.9212 11.7188 69.4751 14.3244 64.7929C16.9307 60.1099 17.2787 58.3078 17.2787 54.6133C17.2787 50.9187 18.147 32.5364 18.4943 28.8942C18.8424 25.2519 20.1994 16.3985 29.9082 15.9412C29.9082 15.9412 32.748 15.0268 41.6328 23.621C50.5175 32.2152 52.5519 34.1353 52.5519 34.1353" stroke="#08B7F6"/>
    <path d="M28.4604 15.913C28.4604 15.913 33.3527 13.2084 35.8624 13.381C42.4043 13.8307 45.0301 18.7177 46.9455 21.2437C49.3033 24.354 53.2651 26.2726 55.4634 26.821C57.6618 27.3694 62.3048 29.6198 66.3819 33.1619C70.8325 37.029 77.4829 35.1694 79.92 33.6782C85.1206 30.4961 88.2509 33.9523 91.0009 32.6725C93.7509 31.3927 94.2591 29.2596 100.346 28.2839C107.901 27.0721 112.986 17.7696 118.848 19.7809C118.848 19.7809 118.694 20.2837 117.551 22.7828C116.409 25.2827 114.356 28.8241 112.409 30.6994C110.461 32.5739 105.675 36.2191 98.6244 37.6775C91.5742 39.1359 82.4956 39.6567 78.7396 39.8651C74.9829 40.0728 64.0263 39.2398 61.313 39.8651" stroke="#08B7F6"/>
    <path d="M80.9285 139.302C80.9285 139.302 79.3035 136.682 79.5535 135.06C79.8035 133.438 80.9285 133.438 82.4285 132.066C83.9285 130.693 86.4629 127.947 87.0535 122.709C87.3604 119.981 87.0056 118.392 86.4629 113.98C86.1036 111.053 85.5774 104.262 91.0011 102.87C96.7466 101.396 100.178 106.364 101.928 107.611C103.678 108.859 105.917 110.846 109.163 108.091C109.163 108.091 111.399 109.694 113.649 110.023C115.77 110.332 119.038 110.061 120.548 107.588C120.548 107.588 126.774 107.756 128.457 102.045C128.457 102.045 135.86 100.113 136.534 92.3028C137.207 84.4923 137.88 73.9145 136.534 71.3093C136.534 71.3093 139.815 65.2606 136.029 60.5574C136.029 60.5574 138.132 54.679 135.019 48.968C135.019 48.968 136.17 42.1915 134.094 37.8829C131.819 33.1625 128.961 31.5838 128.961 30.0724C128.961 28.5602 130.245 19.1763 118.75 19.8793" stroke="#08B7F6"/>
    <path d="M37.0952 54.656C37.0952 54.656 39.6304 60.6203 38.2621 65.1688" stroke="#08B7F6"/>
    <path d="M108.691 86.322C108.691 86.322 104.808 83.1587 97.7146 85.5181" stroke="#08B7F6"/>
    <path d="M91.0011 86.1615C88.7862 85.5168 86.8693 86.1257 85.8379 86.6038C84.8506 87.0611 83.7518 87.2658 82.6829 87.0588C82.6665 87.0558 82.65 87.0521 82.6335 87.0491" stroke="#08B7F6"/>
    <path d="M28.6254 33.4801C28.6254 33.4801 27.0033 30.9891 27.2526 39.9569C27.5026 48.9254 27.0759 77.8228 27.2264 80.0649C27.3776 82.307 30.3724 89.7798 36.2376 91.8979" stroke="#08B7F6"/>
    <path d="M93.2579 92.1929C93.2579 92.1929 92.5513 93.0364 86.4637 92.4028C79.5281 91.6811 77.7594 93.6311 75.4772 97.6574C73.2399 101.604 72.6044 106.004 73.3267 113.912" stroke="#08B7F6"/>
  </g>
  <defs>
    <filter id="filter0_d_1_466" x="1.87402" y="6.87305" width="149.479" height="154.045" filterUnits="userSpaceOnUse" color-interpolation-filters="sRGB">
      <feFlood flood-opacity="0" result="BackgroundImageFix"/>
      <feColorMatrix in="SourceAlpha" type="matrix" values="0 0 0 0 0 0 0 0 0 0 0 0 0 0 0 0 0 0 127 0" result="hardAlpha"/>
      <feOffset dx="1" dy="6"/>
      <feGaussianBlur stdDeviation="6"/>
      <feColorMatrix type="matrix" values="0 0 0 0 0.0929574 0 0 0 0 0.0929574 0 0 0 0 0.0929574 0 0 0 0.603393 0"/>
      <feBlend mode="normal" in2="BackgroundImageFix" result="effect1_dropShadow_1_466"/>
      <feBlend mode="normal" in="SourceGraphic" in2="effect1_dropShadow_1_466" result="shape"/>
    </filter>
    <filter id="filter1_d_1_466" x="0.375" y="0.677246" width="152.759" height="150.43" filterUnits="userSpaceOnUse" color-interpolation-filters="sRGB">
      <feFlood flood-opacity="0" result="BackgroundImageFix"/>
      <feColorMatrix in="SourceAlpha" type="matrix" values="0 0 0 0 0 0 0 0 0 0 0 0 0 0 0 0 0 0 127 0" result="hardAlpha"/>
      <feOffset dy="2"/>
      <feGaussianBlur stdDeviation="9.5"/>
      <feColorMatrix type="matrix" values="0 0 0 0 0.0831062 0 0 0 0 0.362286 0 0 0 0 0.386719 0 0 0 0.0628551 0"/>
      <feBlend mode="normal" in2="BackgroundImageFix" result="effect1_dropShadow_1_466"/>
      <feBlend mode="normal" in="SourceGraphic" in2="effect1_dropShadow_1_466" result="shape"/>
    </filter>
  </defs>
</svg>