<svg xmlns="http://www.w3.org/2000/svg" width="177" height="157" viewBox="0 0 177 157" fill="none">
  <g filter="url(#filter0_d_1_301)">
    <g filter="url(#filter1_d_1_301)">
      <path fill-rule="evenodd" clip-rule="evenodd" d="M19.96 135.008H157.04V115.16H19.96V135.008Z" fill="#24272B"/>
      <path fill-rule="evenodd" clip-rule="evenodd" d="M71.7602 96.4309C71.7602 96.4309 73.2902 104.354 77.5282 107.534C81.7669 110.714 86.2983 111.002 89.4438 111.002C92.59 111.002 97.7857 108.881 99.7684 106.5C102.424 103.309 104.604 99.3571 104.722 96.4309L151.381 95.9224L157.039 101.667V113.478H19.9595V101.667L25.7675 96.8284L71.7602 96.4309Z" fill="#24272B"/>
      <path fill-rule="evenodd" clip-rule="evenodd" d="M93.6767 30.6907C93.6767 30.6907 94.0948 44.7994 92.0503 56.2003C90.175 66.6573 85.8245 78.4813 84.2017 83.4409C83.3005 86.1935 82.3807 89.0384 82.5009 91.95C82.6271 94.9988 84.5308 98.5785 87.0711 99.0088C92.0171 99.8461 94.3998 95.3957 95.7442 87.5457C97.0887 79.6957 95.9393 65.8924 95.9393 65.8924C95.9393 65.8924 96.0338 50.3196 95.2037 41.7424L93.6767 30.6907Z" fill="#24272B"/>
    </g>
    <path d="M20.3008 94.4441H74.6903C74.6903 94.4441 74.5585 108.082 88.545 108.082C101.128 108.082 102.091 94.4441 102.091 94.4441H156.586" stroke="#08B7F6"/>
    <path d="M14 101.667H76.4385" stroke="#08B7F6"/>
    <path d="M99.7686 101.667H125.152" stroke="#08B7F6"/>
    <path d="M139.327 101.667H162.201" stroke="#08B7F6"/>
    <path d="M106.466 108.889H152.979" stroke="#08B7F6"/>
    <path d="M71.209 108.889H39.0767" stroke="#08B7F6"/>
    <path d="M20.3008 133.578L29.0162 122.17C29.0162 122.17 31.9759 118.317 35.2652 122.17C38.5537 126.021 42.5003 130.614 42.5003 130.614C42.5003 130.614 45.7895 135.652 49.7361 130.614" stroke="#08B7F6"/>
    <path d="M49.1953 131.248L56.8085 122.169C56.8085 122.169 59.7683 118.317 63.0576 122.169C66.346 126.021 70.2927 130.614 70.2927 130.614C70.2927 130.614 73.5819 135.652 77.5285 130.614" stroke="#08B7F6"/>
    <path d="M76.9082 131.347L84.5214 122.269C84.5214 122.269 87.4812 118.416 90.7704 122.269C94.0589 126.12 98.0056 130.713 98.0056 130.713C98.0056 130.713 101.295 135.751 105.241 130.713" stroke="#08B7F6"/>
    <path d="M104.722 131.33L112.335 122.252C112.335 122.252 115.295 118.4 118.584 122.252C121.873 126.104 125.82 130.697 125.82 130.697C125.82 130.697 129.109 135.735 133.055 130.697" stroke="#08B7F6"/>
    <path d="M132.525 131.324L140.139 122.246C140.139 122.246 143.098 118.394 146.388 122.246C149.676 126.098 153.623 130.69 153.623 130.69L156.149 133.558" stroke="#08B7F6"/>
    <path fill-rule="evenodd" clip-rule="evenodd" d="M88.2287 6.4126C88.2287 6.4126 92.3528 26.0471 92.1865 35.5131C91.932 49.9896 90.5004 54.6063 88.2287 62.3206C86.088 69.5898 83.6516 74.988 80.6761 83.3079C78.2509 90.0893 77.7073 102.385 88.2287 102.368C102.185 102.344 99.2891 67.3549 99.2891 67.3549C99.2891 67.3549 97.6666 27.7063 88.2287 6.4126Z" stroke="#08B7F6"/>
  </g>
  <defs>
    <filter id="filter0_d_1_301" x="3" y="0.209961" width="172.201" height="152.798" filterUnits="userSpaceOnUse" color-interpolation-filters="sRGB">
      <feFlood flood-opacity="0" result="BackgroundImageFix"/>
      <feColorMatrix in="SourceAlpha" type="matrix" values="0 0 0 0 0 0 0 0 0 0 0 0 0 0 0 0 0 0 127 0" result="hardAlpha"/>
      <feOffset dx="1" dy="6"/>
      <feGaussianBlur stdDeviation="6"/>
      <feColorMatrix type="matrix" values="0 0 0 0 0.0929574 0 0 0 0 0.0929574 0 0 0 0 0.0929574 0 0 0 0.603393 0"/>
      <feBlend mode="normal" in2="BackgroundImageFix" result="effect1_dropShadow_1_301"/>
      <feBlend mode="normal" in="SourceGraphic" in2="effect1_dropShadow_1_301" result="shape"/>
    </filter>
    <filter id="filter1_d_1_301" x="0.959473" y="13.6907" width="175.081" height="142.317" filterUnits="userSpaceOnUse" color-interpolation-filters="sRGB">
      <feFlood flood-opacity="0" result="BackgroundImageFix"/>
      <feColorMatrix in="SourceAlpha" type="matrix" values="0 0 0 0 0 0 0 0 0 0 0 0 0 0 0 0 0 0 127 0" result="hardAlpha"/>
      <feOffset dy="2"/>
      <feGaussianBlur stdDeviation="9.5"/>
      <feColorMatrix type="matrix" values="0 0 0 0 0.0831062 0 0 0 0 0.362286 0 0 0 0 0.386719 0 0 0 0.0628551 0"/>
      <feBlend mode="normal" in2="BackgroundImageFix" result="effect1_dropShadow_1_301"/>
      <feBlend mode="normal" in="SourceGraphic" in2="effect1_dropShadow_1_301" result="shape"/>
    </filter>
  </defs>
</svg>