<svg xmlns="http://www.w3.org/2000/svg" width="112" height="160" viewBox="0 0 112 160" fill="none">
  <g filter="url(#filter0_d_1_498)">
    <g filter="url(#filter1_d_1_498)">
      <path fill-rule="evenodd" clip-rule="evenodd" d="M30.6569 43.2865C29.6981 43.379 28.9666 44.1852 28.9666 45.1482L28.1688 56.0833C28.1688 57.2348 21.0067 58.9511 19.8157 59.7453C19.0708 60.2416 18.9635 63.8006 19.9491 64.4324C20.8549 65.0127 24.3943 63.353 28.1688 62.1944C29.0117 61.9355 30.2795 64.4587 30.7374 64.9818C31.1872 65.4957 31.5035 66.263 31.7886 67.0394C32.4311 68.7867 32.9543 70.9809 32.4361 72.7685C31.8317 74.8562 30.5432 77.9463 29.847 79.5821C28.4103 82.9546 26.1437 85.6187 25.975 88.2648C25.8874 89.6436 26.8522 92.1838 27.2144 93.7885C27.4721 94.9287 30.9774 89.1056 31.7886 88.2648C35.4417 84.4799 39.9787 81.6001 44.9972 78.9802C48.6905 77.0521 48.4716 71.8927 48.1363 68.7941C47.5227 63.1397 51.4106 55.832 54.0935 51.8227C52.0082 45.8926 52.4043 37.4274 62.0057 31.9595C66.763 29.2499 73.4477 30.0095 76.6517 32.5243C77.9819 33.5677 82.1715 29.5852 80.7355 28.6921C79.2288 27.7553 76.3255 24.4731 70.6151 24.0756C68.4744 23.9267 67.7684 20.9989 67.8714 18.6578C67.9442 17.0192 64.4867 18.2364 63.8315 18.4813C63.763 18.5068 63.7136 18.5611 63.6924 18.6317C63.4192 19.5417 61.5016 25.823 60.5915 25.9338C59.5769 26.0574 58.318 24.6009 56.6673 22.5076C55.7954 21.402 53.894 19.145 53.4414 18.5053C52.9536 17.8163 50.0934 20.8817 50.6229 23.1014C51.1539 25.3302 52.4701 32.8777 51.7542 33.5199C51.0383 34.162 46.7462 32.4309 43.7046 30.8918C42.6943 30.3806 43.1297 29.9876 42.2514 30.8532C42.1914 30.9125 42.1328 30.981 42.0855 31.0509C42.0855 31.0509 41.1045 32.2188 40.9927 32.3836C40.881 32.5483 40.6574 32.8777 40.6574 32.8777C40.3495 33.3303 40.375 33.9254 40.7047 34.3617C41.9007 35.9439 42.9527 37.6835 43.4723 38.5638C43.9263 39.3327 44.0478 40.2999 43.3156 40.9762C42.3561 41.8629 42.6553 41.5963 42.2754 42.6341C41.2714 45.3741 39.2149 49.6061 37.5734 49.5553C35.9918 49.5058 35.6007 46.5873 35.3479 44.6994C35.2145 43.7096 34.3334 42.9959 33.3386 43.0919L30.6569 43.2865Z" fill="#22272B"/>
      <path fill-rule="evenodd" clip-rule="evenodd" d="M86.475 63.8736C78.9634 48.5164 92.4346 44.6739 90.5487 39.7115C87.6875 32.1842 81.2896 42.9384 72.8324 38.6365C67.336 35.8407 63.1835 35.8044 61.3751 42.5182C60.635 45.2661 62.9167 50.2723 63.9916 50.9746C64.6591 51.4102 64.5335 52.4569 64.0942 53.1234C56.5624 64.5514 54.4773 79.615 54.5412 82.5504C54.6802 88.9122 39.7134 94.6023 35.3186 100.077C32.3414 103.786 31.6446 107.981 32.8005 110.137C34.8299 113.924 38.0375 117.495 40.0141 119.347C43.8328 122.926 46.8493 125.232 53.5099 129.831C60.1697 134.429 64.6291 134.652 69.1175 132.845C73.2372 131.186 78.2854 120.614 79.451 118.259C80.6159 115.905 84.1409 110.415 88.5884 103.771C92.671 97.6721 93.0382 90.0006 92.1454 84.6691C91.689 81.9458 89.8313 70.736 86.475 63.8736Z" fill="#22272B"/>
    </g>
    <path d="M38.0053 43.0052C38.038 45.3774 34.5271 46.3008 33.7406 46.4771C33.6462 46.4988 33.5526 46.5152 33.4567 46.5287C27.0905 47.4215 23.9476 45.3669 26.7419 42.9641C29.5548 40.545 38.3361 40.0772 38.0053 43.0052C37.6976 45.73 38.1071 52.6529 38.1659 53.598C38.1703 53.6705 38.1763 53.7422 38.1845 53.8147C39.2988 63.7283 46.1132 69.4042 48.8591 71.3139C49.6166 71.8406 50.1087 72.6639 50.215 73.5844C50.4953 75.9991 50.7993 80.5536 49.3438 81.9724C47.3315 83.9358 42.4365 87.0737 36.2643 91.2517C30.093 95.4289 25.9435 102.639 25.5555 102.138C25.1674 101.637 18.9693 91.7881 23.2258 82.316C27.4823 72.8447 28.4003 71.9512 28.2167 68.82C28.0338 65.6895 26.0067 63.7978 25.5555 57.7991C25.1035 51.7997 25.7272 44.5174 25.7272 44.5174" stroke="#08B7F6"/>
    <path d="M38.0739 51.9472C38.0739 51.9472 38.201 42.7113 41.5536 40.0971L34.5474 29.9556C34.5474 29.9556 38.0137 24.831 38.728 25.7522C39.4424 26.6742 49.8606 31.464 49.8606 31.464C49.8606 31.464 48.1479 21.4204 46.801 17.6721C46.801 17.6721 47.5741 15.1303 51.4143 13.7631L59.7741 24.2565L64.2923 11.3738H70.2897V22.3252C70.2897 22.3252 80.1274 21.6722 86.475 31.9638C86.475 31.9638 82.5879 35.4611 76.7533 35.7435C76.7533 35.7435 72.9807 32.3875 69.1777 32.6385C66.9929 32.7827 63.3044 32.9112 59.175 37.5038C57.0646 39.852 55.6864 43.6713 56.2283 47.0169C56.7761 50.4014 58.4621 51.5273 58.4621 51.5273C58.4621 51.5273 50.6642 62.1231 50.0041 72.0479" stroke="#08B7F6"/>
    <path d="M86.4747 31.9641C86.4747 31.9641 92.6386 32.7247 94.0956 36.0845C95.5526 39.4443 95.4433 47.9399 85.6845 48.516C82.8961 48.6811 80.3531 49.6389 78.1438 50.9239C71.6297 54.7126 67.6683 61.6699 67.0119 69.2054C66.9012 70.4703 66.8662 71.7673 66.951 73.0366C66.951 73.0366 74.653 74.8499 75.3391 80.7941C76.0245 86.7382 73.9267 88.7958 67.9255 95.6268C61.9251 102.458 61.6582 108.895 62.0767 111.62C63.0089 117.692 65.9296 120.913 65.9296 126.47C65.9296 132.028 63.8162 132.734 63.8162 132.734" stroke="#08B7F6"/>
    <path d="M74.8418 86.3877C74.8418 86.3877 78.3973 87.3388 79.3124 88.4154C80.9173 90.3034 81.1544 93.0961 81.8525 96.001C82.5497 98.9058 83.7116 99.3884 84.6698 99.8248C85.7224 100.304 88.148 100.295 88.148 100.295" stroke="#08B7F6"/>
    <path d="M81.8525 96.0012C81.8525 96.0012 83.812 96.8036 85.1181 96.0012" stroke="#08B7F6"/>
    <path d="M70.272 92.9543C70.272 92.9543 70.272 99.1241 72.2924 101.43C73.8892 103.253 76.8753 104.737 77.5458 107.53C78.0096 109.464 78.11 112.997 77.3689 114.929" stroke="#08B7F6"/>
    <path d="M77.4204 107.076C77.4204 107.076 78.4864 108.693 79.4974 109.538C80.5083 110.384 82.285 110.525 82.285 110.525" stroke="#08B7F6"/>
    <path d="M76.0099 104.854C76.0099 104.854 76.7481 106.138 76.4552 107.502C75.8189 110.464 73.1792 111.854 73.1792 111.854" stroke="#08B7F6"/>
    <path d="M63.0094 103.698C63.0094 103.698 62.3069 105.366 59.9995 106.519C58.0192 107.508 55.7765 107.602 54.4875 108.046C53.507 108.383 52.0017 109.096 51.4025 110.141L50.0146 112.561" stroke="#08B7F6"/>
    <path d="M53.7582 108.264C53.7582 108.264 52.8498 107.993 51.4686 107.789C49.7373 107.533 49.1895 107.502 49.1895 107.502" stroke="#08B7F6"/>
    <path d="M50.0146 80.7942C50.0146 80.7942 52.78 81.179 53.7575 86.3879C54.735 91.5969 52.4165 95.6142 53.9589 97.6023C54.8302 98.7252 56.3786 99.4963 56.3786 99.4963" stroke="#08B7F6"/>
    <path d="M53.4174 95.3691C53.4174 95.3691 53.3914 96.5421 52.8494 97.287C52.2436 98.1201 50.8535 98.321 50.8535 98.321" stroke="#08B7F6"/>
    <path d="M52.8496 83.4973C52.8496 83.4973 53.3068 84.4521 55.3481 84.7936C57.3893 85.135 59.3867 85.3173 61.0816 84.7936" stroke="#08B7F6"/>
    <path d="M57.6911 85.0867C57.6911 85.0867 57.1782 86.1969 58.5251 87.7883C59.8714 89.3789 60.2349 89.562 60.2349 89.562" stroke="#08B7F6"/>
    <path d="M53.7579 86.3877C53.7579 86.3877 54.0196 88.783 51.7657 90.6642C49.5118 92.5455 47.397 92.5507 47.397 92.5507" stroke="#08B7F6"/>
    <path d="M85.6843 48.5161C85.6843 48.5161 89.5446 56.8413 90.0233 59.2531C90.5021 61.664 91.8126 67.7905 86.9488 69.6396C83.1398 71.0883 78.357 70.2672 74.2521 69.2735C71.414 68.5869 67.3352 66.7923 67.3783 66.5854" stroke="#08B7F6"/>
    <path d="M90.1435 67.0527C90.1435 67.0527 96.8739 75.682 97.9919 82.3531C99.052 88.6835 98.6156 97.7918 93.7681 105.034C88.488 112.923 84.3022 119.44 82.9188 122.236C81.5354 125.032 75.5409 137.584 70.6496 139.554C65.3211 141.7 60.0254 141.436 52.1175 135.975C44.2104 130.515 40.6281 127.777 36.0936 123.527C32.8637 120.5 26.864 113.606 25.5549 107.502C25.5549 107.502 24.9699 103.592 25.5549 102.138" stroke="#08B7F6"/>
    <path d="M25.2951 55.9241L15.8693 58.155C15.8693 58.155 14.1291 65.4679 17.1568 67.4007C17.1568 67.4007 18.1194 67.9909 22.6725 66.5123C22.6725 66.5123 27.3237 65.299 27.2122 64.9972" stroke="#08B7F6"/>
    <path fill-rule="evenodd" clip-rule="evenodd" d="M34.3681 43.4172C34.2439 42.7082 32.9594 42.3428 31.4987 42.6013C30.038 42.8598 28.9549 43.6443 29.079 44.3526C29.2032 45.0616 30.4877 45.427 31.9484 45.1685C33.4091 44.91 34.4922 44.1262 34.3681 43.4172Z" stroke="#08B7F6"/>
  </g>
  <defs>
    <filter id="filter0_d_1_498" x="3.87158" y="4.87378" width="108.095" height="154.431" filterUnits="userSpaceOnUse" color-interpolation-filters="sRGB">
      <feFlood flood-opacity="0" result="BackgroundImageFix"/>
      <feColorMatrix in="SourceAlpha" type="matrix" values="0 0 0 0 0 0 0 0 0 0 0 0 0 0 0 0 0 0 127 0" result="hardAlpha"/>
      <feOffset dx="1" dy="6"/>
      <feGaussianBlur stdDeviation="6"/>
      <feColorMatrix type="matrix" values="0 0 0 0 0.0929574 0 0 0 0 0.0929574 0 0 0 0 0.0929574 0 0 0 0.603393 0"/>
      <feBlend mode="normal" in2="BackgroundImageFix" result="effect1_dropShadow_1_498"/>
      <feBlend mode="normal" in="SourceGraphic" in2="effect1_dropShadow_1_498" result="shape"/>
    </filter>
    <filter id="filter1_d_1_498" x="0.233398" y="0.81665" width="111.312" height="154.082" filterUnits="userSpaceOnUse" color-interpolation-filters="sRGB">
      <feFlood flood-opacity="0" result="BackgroundImageFix"/>
      <feColorMatrix in="SourceAlpha" type="matrix" values="0 0 0 0 0 0 0 0 0 0 0 0 0 0 0 0 0 0 127 0" result="hardAlpha"/>
      <feOffset dy="2"/>
      <feGaussianBlur stdDeviation="9.5"/>
      <feColorMatrix type="matrix" values="0 0 0 0 0.0831062 0 0 0 0 0.362286 0 0 0 0 0.386719 0 0 0 0.0628551 0"/>
      <feBlend mode="normal" in2="BackgroundImageFix" result="effect1_dropShadow_1_498"/>
      <feBlend mode="normal" in="SourceGraphic" in2="effect1_dropShadow_1_498" result="shape"/>
    </filter>
  </defs>
</svg>