<svg xmlns="http://www.w3.org/2000/svg" width="161" height="166" viewBox="0 0 161 166" fill="none">
  <g filter="url(#filter0_d_1_212)">
    <g filter="url(#filter1_d_1_212)">
      <path fill-rule="evenodd" clip-rule="evenodd" d="M139.952 96.7224C140.765 95.6445 140.739 94.6129 139.484 93.3266L138.411 92.317C137.59 91.6096 136.816 91.0197 135.721 90.3293L134.587 89.685C133.421 89.0239 131.988 89.1156 131.176 90.1935C130.464 91.1371 131.19 91.9031 131.668 92.2142C131.894 92.3617 132.075 92.5694 132.312 92.6978L132.929 93.0294C134.142 93.6817 135.252 94.5079 136.223 95.4823L136.697 95.9585C136.888 96.15 137.128 96.3071 137.346 96.4384C137.996 96.8273 139.241 97.666 139.952 96.7224Z" fill="#24272B"/>
      <path fill-rule="evenodd" clip-rule="evenodd" d="M26.2052 44.7338L20.5879 44.4088C20.1979 44.386 19.9002 44.0537 19.9231 43.6662C19.946 43.2781 20.2806 42.9824 20.6706 43.0051L26.2872 43.3302C26.6779 43.3529 26.9756 43.6853 26.9527 44.0727C26.9298 44.4609 26.5952 44.7566 26.2052 44.7338Z" fill="#24272B"/>
      <path fill-rule="evenodd" clip-rule="evenodd" d="M103.988 79.7758C97.7302 78.1986 99.4709 70.1972 99.4559 65.5521C99.4126 52.1455 90.2707 46.0413 84.3964 45.3788C82.1886 45.1301 79.971 45.1301 79.971 45.1301C79.971 45.1301 77.7533 45.1301 75.5455 45.3788C69.6712 46.0413 60.5293 52.1455 60.486 65.5521C60.471 70.1972 62.2117 78.1986 55.954 79.7758C43.6481 82.8775 42.2362 94.8594 42.2731 96.8218C42.278 97.0837 42.283 97.3448 42.283 97.6067V140.087L42.2695 144.137H117.659V97.6067C117.659 97.3448 117.664 97.0837 117.669 96.8218C117.706 94.8594 116.294 82.8775 103.988 79.7758Z" fill="#24272B"/>
      <path fill-rule="evenodd" clip-rule="evenodd" d="M41.6673 56.7922C40.922 55.2763 39.6944 54.7429 37.3788 55.4729L35.5049 56.1443C34.1473 56.6961 32.9581 57.2574 31.4446 58.1291L29.9607 59.0705C28.4361 60.0405 27.6251 61.7252 28.3704 63.2411C29.0219 64.5677 30.3869 64.1583 31.059 63.7833C31.3766 63.6058 31.7371 63.5126 32.0399 63.3108L32.8244 62.7891C34.3696 61.7604 36.0522 60.9459 37.819 60.3699L38.6825 60.0889C39.0296 59.9759 39.3679 59.7888 39.6619 59.6105C40.5357 59.0822 42.3195 58.1188 41.6673 56.7922Z" fill="#24272B"/>
      <path fill-rule="evenodd" clip-rule="evenodd" d="M53.6498 33.7221L39.3653 25.5298C38.1465 24.8305 37.7292 23.2823 38.4324 22.0717C39.1363 20.861 40.6948 20.4464 41.9136 21.145L56.198 29.3379C57.4168 30.0372 57.8341 31.5847 57.1302 32.7953C56.427 34.006 54.8685 34.4213 53.6498 33.7221Z" fill="#24272B"/>
      <path fill-rule="evenodd" clip-rule="evenodd" d="M71.8478 24.6851L75.247 17.8554C75.4604 17.4254 75.9841 17.2493 76.417 17.4621C76.8491 17.6742 77.0264 18.1944 76.8129 18.6244L73.4137 25.4541C73.1995 25.8833 72.6758 26.0594 72.2437 25.8474C71.8116 25.6353 71.6343 25.1144 71.8478 24.6851Z" fill="#24272B"/>
      <path fill-rule="evenodd" clip-rule="evenodd" d="M94.4738 25.751L98.3037 30.0669C98.5348 30.3274 98.5097 30.7251 98.2475 30.9547C97.9853 31.1844 97.5857 31.1594 97.3545 30.899L93.5239 26.5831C93.2927 26.3226 93.3179 25.9249 93.5801 25.6953C93.8423 25.4656 94.2426 25.4905 94.4738 25.751Z" fill="#24272B"/>
      <path fill-rule="evenodd" clip-rule="evenodd" d="M128.431 34.7725L117.054 46.6364C116.084 47.6483 114.471 47.6872 113.452 46.723C112.433 45.7589 112.394 44.1564 113.365 43.1446L124.741 31.2806C125.713 30.2688 127.325 30.2299 128.344 31.1941C129.363 32.1582 129.402 33.7607 128.431 34.7725Z" fill="#24272B"/>
      <path fill-rule="evenodd" clip-rule="evenodd" d="M137.28 67.3599L127.418 69.509C126.544 69.6998 125.679 69.1502 125.487 68.2815C125.295 67.4135 125.848 66.5542 126.723 66.3642L136.585 64.2151C137.459 64.0243 138.323 64.5739 138.515 65.4426C138.707 66.3106 138.154 67.1691 137.28 67.3599Z" fill="#24272B"/>
      <path fill-rule="evenodd" clip-rule="evenodd" d="M28.4197 94.4019L21.7787 97.623C21.2853 97.8622 20.6899 97.659 20.4491 97.1688C20.2083 96.6787 20.4129 96.0873 20.9063 95.8481L27.5474 92.6277C28.0408 92.3885 28.6362 92.5917 28.877 93.0811C29.1178 93.5713 28.9132 94.1627 28.4197 94.4019Z" fill="#24272B"/>
    </g>
    <path fill-rule="evenodd" clip-rule="evenodd" d="M91.7068 65.7126C91.7068 72.2642 86.3598 77.5757 79.7645 77.5757C73.1693 77.5757 67.8223 72.2642 67.8223 65.7126C67.8223 59.1609 73.1693 53.8494 79.7645 53.8494C86.3598 53.8494 91.7068 59.1609 91.7068 65.7126Z" fill="#24272B"/>
    <path fill-rule="evenodd" clip-rule="evenodd" d="M51.4209 140.12V100.907C51.4209 92.84 58.0642 86.2407 66.1848 86.2407H93.3444C101.464 86.2407 108.108 92.84 108.108 100.907V140.12" fill="#24272B"/>
    <path fill-rule="evenodd" clip-rule="evenodd" d="M91.7068 65.7126C91.7068 72.2642 86.3598 77.5757 79.7645 77.5757C73.1693 77.5757 67.8223 72.2642 67.8223 65.7126C67.8223 59.1609 73.1693 53.8494 79.7645 53.8494C86.3598 53.8494 91.7068 59.1609 91.7068 65.7126Z" fill="#24272B"/>
    <path fill-rule="evenodd" clip-rule="evenodd" d="M51.4209 140.12V100.907C51.4209 92.84 58.0642 86.2407 66.1848 86.2407H93.3444C101.464 86.2407 108.108 92.84 108.108 100.907V140.12" fill="#24272B"/>
    <path fill-rule="evenodd" clip-rule="evenodd" d="M52.6668 35.3041L38.3535 27.095C36.2063 25.8637 35.4639 23.1107 36.7034 20.9777V20.9777C37.9428 18.8447 40.7142 18.1073 42.8614 19.3386L57.1747 27.5477C59.3219 28.7796 60.0642 31.5319 58.8248 33.6649V33.6649C57.5846 35.7979 54.814 36.5353 52.6668 35.3041Z" stroke="#08B7F6"/>
    <path d="M36.9824 16.3924C36.9824 16.3924 37.4788 16.3374 37.5888 17.3235C37.6989 18.3089 37.2934 19.1608 37.7994 19.7207" stroke="#08B7F6"/>
    <path d="M40.3067 15.3665C40.3067 15.3665 40.8053 15.3811 40.7765 16.3724C40.7469 17.363 40.2254 18.151 40.6479 18.7747" stroke="#08B7F6"/>
    <path d="M43.683 16.3433C43.683 16.3433 44.1771 16.4115 44.0397 17.394C43.9024 18.3757 43.2982 19.1029 43.649 19.7684" stroke="#08B7F6"/>
    <path d="M46.8867 18.0251C46.8867 18.0251 47.3675 18.1587 47.0994 19.1133C46.8305 20.0686 46.134 20.7085 46.3933 21.415" stroke="#08B7F6"/>
    <path d="M49.6032 19.3979C49.6032 19.3979 50.07 19.5733 49.717 20.5008C49.3639 21.4282 48.6127 22.0042 48.807 22.7306" stroke="#08B7F6"/>
    <path d="M51.9924 20.8862C51.9924 20.8862 52.4592 21.0616 52.1061 21.989C51.7531 22.9165 51.0019 23.4925 51.1961 24.2189" stroke="#08B7F6"/>
    <path d="M54.7122 22.1711C54.7122 22.1711 55.1694 22.37 54.7691 23.2784C54.368 24.1867 53.588 24.7231 53.7446 25.4591" stroke="#08B7F6"/>
    <path d="M57.429 23.9092C57.429 23.9092 57.8862 24.108 57.4859 25.0164C57.0848 25.9248 56.3048 26.4611 56.4614 27.1971" stroke="#08B7F6"/>
    <path d="M60.3829 25.8286C60.3829 25.8286 60.7832 26.125 60.1864 26.9197C59.5896 27.7151 58.7076 28.0629 58.6929 28.8142" stroke="#08B7F6"/>
    <path d="M62.3863 29.6719C62.3863 29.6719 62.5747 30.1312 61.6499 30.5047C60.7251 30.8782 59.7893 30.7226 59.3853 31.3588" stroke="#08B7F6"/>
    <path d="M61.8988 33.5863C61.8988 33.5863 61.9084 34.0824 60.9105 34.1014C59.9126 34.1205 59.095 33.6414 58.4878 34.0904" stroke="#08B7F6"/>
    <path d="M59.0082 37.8479C59.0082 37.8479 58.63 38.1715 57.9785 37.4201C57.327 36.6687 57.1771 35.7384 56.4414 35.5608" stroke="#08B7F6"/>
    <path d="M55.1787 38.8207C55.1787 38.8207 54.706 38.9785 54.3876 38.0386C54.0693 37.0986 54.2842 36.1807 53.6704 35.7405" stroke="#08B7F6"/>
    <path d="M50.4977 37.6924C50.4977 37.6924 50.0131 37.5735 50.2524 36.6109C50.4918 35.6482 51.1683 34.9878 50.8884 34.2893" stroke="#08B7F6"/>
    <path d="M47.7871 36.2288C47.7871 36.2288 47.3299 36.03 47.7302 35.1216C48.1313 34.2132 48.9113 33.6769 48.7547 32.9409" stroke="#08B7F6"/>
    <path d="M44.7773 34.585C44.7773 34.585 44.3201 34.3862 44.7204 33.4778C45.1215 32.5694 45.9015 32.0331 45.7449 31.2971" stroke="#08B7F6"/>
    <path d="M41.8858 32.9469C41.8858 32.9469 41.4508 32.704 41.9398 31.8397C42.428 30.9753 43.2582 30.5175 43.1755 29.7698" stroke="#08B7F6"/>
    <path d="M38.7642 31.4423C38.7642 31.4423 38.3735 31.1334 38.9954 30.3578C39.6173 29.5823 40.5096 29.2623 40.5488 28.511" stroke="#08B7F6"/>
    <path d="M36.0552 29.5717C36.0552 29.5717 35.7316 29.1938 36.4924 28.5518C37.2532 27.9098 38.1913 27.7667 38.3745 27.0374" stroke="#08B7F6"/>
    <path d="M33.8768 27.39C33.8768 27.39 33.6678 26.9395 34.5741 26.5242C35.4804 26.1089 36.4221 26.2211 36.7966 25.5681" stroke="#08B7F6"/>
    <path d="M32.8798 23.8151C32.8798 23.8151 32.7941 23.3264 33.778 23.1569C34.7611 22.9874 35.6423 23.3374 36.1734 22.8018" stroke="#08B7F6"/>
    <path d="M33.4277 20.1203C33.4277 20.1203 33.5954 19.6537 34.5357 19.9875C35.476 20.3214 36.0691 21.0566 36.7967 20.8504" stroke="#08B7F6"/>
    <path fill-rule="evenodd" clip-rule="evenodd" d="M111.992 41.7531L123.392 29.8657C125.102 28.082 127.97 28.013 129.765 29.7116C131.56 31.4102 131.63 34.2594 129.919 36.0431L118.52 47.9305C116.81 49.7135 113.942 49.7832 112.146 48.0839V48.0839C110.351 46.3852 110.282 43.5361 111.992 41.7531Z" stroke="#08B7F6"/>
    <path d="M134.186 31.0604C134.186 31.0604 134.122 31.552 133.132 31.4266C132.142 31.3011 131.404 30.709 130.738 31.0663" stroke="#08B7F6"/>
    <path d="M134.407 34.5114C134.407 34.5114 134.276 34.9898 133.312 34.7278C132.35 34.4666 131.702 33.7776 130.992 34.0388" stroke="#08B7F6"/>
    <path d="M132.657 37.5411C132.657 37.5411 132.474 38.0026 131.545 37.6386C130.617 37.2747 130.048 36.5197 129.314 36.7024" stroke="#08B7F6"/>
    <path d="M130.258 40.2385C130.258 40.2385 130.014 40.6714 129.143 40.1879C128.271 39.7036 127.809 38.8804 127.057 38.9648" stroke="#08B7F6"/>
    <path d="M128.275 42.5382C128.275 42.5382 127.994 42.9476 127.169 42.3885C126.345 41.8294 125.959 40.9687 125.202 40.9856" stroke="#08B7F6"/>
    <path d="M126.257 44.4945C126.257 44.4945 125.976 44.9039 125.151 44.3448C124.327 43.7857 123.941 42.925 123.184 42.9419" stroke="#08B7F6"/>
    <path d="M124.36 46.8183C124.36 46.8183 124.058 47.213 123.263 46.6121C122.469 46.0119 122.128 45.1321 121.371 45.1101" stroke="#08B7F6"/>
    <path d="M122.02 49.0324C122.02 49.0324 121.718 49.4271 120.923 48.8262C120.129 48.226 119.788 47.3462 119.031 47.3242" stroke="#08B7F6"/>
    <path d="M119.447 51.4324C119.447 51.4324 119.063 51.7487 118.425 50.9856C117.788 50.2225 117.655 49.2892 116.923 49.0984" stroke="#08B7F6"/>
    <path d="M115.215 52.4625C115.215 52.4625 114.722 52.5359 114.574 51.5556C114.426 50.5746 114.799 49.708 114.271 49.168" stroke="#08B7F6"/>
    <path d="M111.5 51.0708C111.5 51.0708 111.013 50.9637 111.229 49.9952C111.445 49.0274 112.106 48.3509 111.809 47.6589" stroke="#08B7F6"/>
    <path d="M108.011 47.2769C108.011 47.2769 107.783 46.836 108.671 46.3832C109.56 45.9312 110.506 46.0054 110.853 45.3369" stroke="#08B7F6"/>
    <path d="M107.96 43.3506C107.96 43.3506 107.917 42.8568 108.912 42.7709C109.906 42.6851 110.754 43.1077 111.329 42.619" stroke="#08B7F6"/>
    <path d="M110.166 39.097C110.166 39.097 110.396 38.6574 111.282 39.1146C112.167 39.5724 112.654 40.381 113.404 40.2746" stroke="#08B7F6"/>
    <path d="M112.235 36.8245C112.235 36.8245 112.537 36.4298 113.332 37.0307C114.126 37.6309 114.468 38.5107 115.225 38.5327" stroke="#08B7F6"/>
    <path d="M114.552 34.3053C114.552 34.3053 114.854 33.9105 115.649 34.5114C116.443 35.1116 116.784 35.9914 117.541 36.0134" stroke="#08B7F6"/>
    <path d="M116.835 31.899C116.835 31.899 117.175 31.5358 117.906 32.2116C118.636 32.8866 118.889 33.7957 119.64 33.8911" stroke="#08B7F6"/>
    <path d="M119.042 29.2392C119.042 29.2392 119.435 28.9347 120.048 29.7176C120.661 30.5005 120.764 31.4375 121.489 31.6518" stroke="#08B7F6"/>
    <path d="M121.509 27.0636C121.509 27.0636 121.955 26.8405 122.405 27.7262C122.854 28.6111 122.773 29.5503 123.444 29.8995" stroke="#08B7F6"/>
    <path d="M124.156 25.4738C124.156 25.4738 124.646 25.3777 124.839 26.3506C125.032 27.3236 124.701 28.2063 125.252 28.7214" stroke="#08B7F6"/>
    <path d="M127.889 25.3528C127.889 25.3528 128.387 25.3851 128.322 26.3749C128.256 27.364 127.706 28.1322 128.105 28.7713" stroke="#08B7F6"/>
    <path d="M131.375 26.751C131.375 26.751 131.792 27.0232 131.244 27.8523C130.697 28.6807 129.837 29.0806 129.868 29.832" stroke="#08B7F6"/>
    <path fill-rule="evenodd" clip-rule="evenodd" d="M71.7294 26.8803V26.8803C72.604 27.3095 73.6728 26.95 74.1049 26.082L77.7345 18.7893C78.1666 17.9205 77.8047 16.8588 76.9309 16.4288V16.4288C76.0564 15.9996 74.9876 16.3591 74.5547 17.2279L70.9258 24.5206C70.4937 25.3893 70.8549 26.4511 71.7294 26.8803Z" stroke="#08B7F6"/>
    <path fill-rule="evenodd" clip-rule="evenodd" d="M98.9951 31.797V31.797C99.6451 31.2277 99.7079 30.243 99.1347 29.5973L95.053 24.9974C94.4798 24.3517 93.4879 24.2901 92.8379 24.8595V24.8595C92.1879 25.4281 92.1258 26.4136 92.699 27.0592L96.7807 31.6584C97.3539 32.3041 98.3451 32.3664 98.9951 31.797Z" stroke="#08B7F6"/>
    <path fill-rule="evenodd" clip-rule="evenodd" d="M28.0282 44.1386V44.1386C28.0784 43.2794 27.418 42.542 26.5531 42.4921L20.3914 42.1347C19.5257 42.0849 18.7841 42.7408 18.7332 43.6V43.6C18.6829 44.46 19.3433 45.1967 20.2082 45.2473L26.3707 45.6039C27.2356 45.6538 27.9779 44.9978 28.0282 44.1386Z" stroke="#08B7F6"/>
    <path fill-rule="evenodd" clip-rule="evenodd" d="M29.9975 92.538V92.538C29.5107 91.5474 28.3067 91.1358 27.3096 91.6201L20.4971 94.9234C19.5 95.4077 19.0856 96.6029 19.5731 97.5942V97.5942C20.0598 98.5848 21.2631 98.9957 22.261 98.5121L29.0734 95.2081C30.0706 94.7245 30.4842 93.5285 29.9975 92.538Z" stroke="#08B7F6"/>
    <path fill-rule="evenodd" clip-rule="evenodd" d="M140.27 65.0817V65.0817C139.929 63.5393 138.394 62.5634 136.843 62.9017L126.121 65.2387C124.569 65.5769 123.586 67.1017 123.927 68.6433V68.6433C124.267 70.1856 125.802 71.1615 127.355 70.8232L138.075 68.4862C139.628 68.148 140.61 66.624 140.27 65.0817Z" stroke="#08B7F6"/>
    <path fill-rule="evenodd" clip-rule="evenodd" d="M130.436 89.0953V89.0953C131.443 87.7819 132.683 87.473 134.653 88.5288L136.229 89.46C137.358 90.1959 138.329 90.9142 139.532 91.9767L140.693 93.1008C141.886 94.2579 142.271 95.9771 141.263 97.2905V97.2905C140.382 98.4395 138.826 98.7771 137.566 98.1732C137.263 98.0279 137.001 97.8107 136.766 97.5722L136.157 96.9552C134.958 95.7394 133.588 94.7033 132.089 93.88L131.357 93.478C131.063 93.3158 130.781 93.1228 130.56 92.8711C129.639 91.8241 129.554 90.2443 130.436 89.0953Z" stroke="#08B7F6"/>
    <path d="M146.875 106.161L146.152 104.487C145.429 102.814 140.611 97.9138 140.611 97.9138" stroke="#08B7F6"/>
    <path d="M140.092 98.2085C140.092 98.2085 142.414 103.003 142.686 104.792C142.957 106.581 142.278 109.435 142.212 109.663" stroke="#08B7F6"/>
    <path d="M139.547 98.3906C139.547 98.3906 139.164 101.544 138.778 103.465C138.392 105.388 137.515 107.48 138.403 108.908" stroke="#08B7F6"/>
    <path fill-rule="evenodd" clip-rule="evenodd" d="M42.8365 55.7031V55.7031C41.8807 53.7587 40.3657 53.0455 37.5626 53.9018L35.2957 54.6964C33.656 55.3546 32.2215 56.0303 30.4023 57.0891L28.6199 58.2382C26.7889 59.4217 25.8501 61.5334 26.8059 63.4779V63.4779C27.642 65.1787 29.5543 66.0093 31.3307 65.5544C31.7569 65.445 32.1499 65.2322 32.5133 64.9857L33.4551 64.3473C35.309 63.0904 37.3373 62.108 39.4764 61.4314L40.5216 61.1005C40.9419 60.9677 41.3526 60.7916 41.7019 60.5245C43.1556 59.4129 43.6726 57.4047 42.8365 55.7031Z" stroke="#08B7F6"/>
    <path d="M17.3042 73.4498L18.6655 71.4834C20.0261 69.517 27.4833 64.446 27.4833 64.446" stroke="#08B7F6"/>
    <path d="M28.0742 64.9563C28.0742 64.9563 23.8537 70.5269 23.0427 72.7567C22.2324 74.9873 22.3683 78.8277 22.3941 79.1381" stroke="#08B7F6"/>
    <path d="M28.7268 65.3293C28.7268 65.3293 28.4055 69.4787 28.4055 72.0475C28.4055 74.6156 28.9927 77.5271 27.4829 79.1384" stroke="#08B7F6"/>
    <path fill-rule="evenodd" clip-rule="evenodd" d="M92.7165 63.438C92.7165 70.5436 86.9174 76.3042 79.7645 76.3042C72.6115 76.3042 66.8125 70.5436 66.8125 63.438C66.8125 56.3324 72.6115 50.5718 79.7645 50.5718C86.9174 50.5718 92.7165 56.3324 92.7165 63.438Z" stroke="#08B7F6"/>
    <path d="M49.0244 144.137V101.608C49.0244 92.8598 56.2298 85.7021 65.0366 85.7021H94.4927C103.299 85.7021 110.504 92.8598 110.504 101.608V144.137" stroke="#08B7F6"/>
    <mask id="mask0_1_212" style="mask-type:luminance" maskUnits="userSpaceOnUse" x="60" y="107" width="2" height="38">
      <path fill-rule="evenodd" clip-rule="evenodd" d="M60.3247 107.479H61.0633V144.137H60.3247V107.479Z" fill="white"/>
    </mask>
    <g mask="url(#mask0_1_212)">
      <path d="M60.694 107.479V144.137" stroke="#22DCFF"/>
    </g>
    <mask id="mask1_1_212" style="mask-type:luminance" maskUnits="userSpaceOnUse" x="97" y="107" width="2" height="38">
      <path fill-rule="evenodd" clip-rule="evenodd" d="M97.5894 107.479H98.328V144.137H97.5894V107.479Z" fill="white"/>
    </mask>
    <g mask="url(#mask1_1_212)">
      <path d="M97.9587 107.479V144.137" stroke="#08B7F6"/>
    </g>
    <path d="M122.294 144.137V98.0186C122.294 97.7347 122.3 97.4507 122.305 97.1668C122.347 95.0382 122.356 80.4491 108.469 77.0849C101.407 75.3738 103.371 66.6943 103.354 61.655C103.306 47.1129 91.3878 42.0823 84.7578 41.364C82.2671 41.094 79.7646 41.094 79.7646 41.094" stroke="#08B7F6"/>
    <path d="M37.2347 144.137V98.0186C37.2347 97.7347 37.2288 97.4507 37.2236 97.1668C37.1815 95.0382 37.1726 80.4491 51.0597 77.0849C58.1211 75.3738 56.1571 66.6943 56.174 61.655C56.2228 47.1129 68.1407 42.0823 74.7707 41.364C77.2614 41.094 79.7639 41.094 79.7639 41.094" stroke="#08B7F6"/>
  </g>
  <defs>
    <filter id="filter0_d_1_212" x="5.89307" y="8.8667" width="154.441" height="153.27" filterUnits="userSpaceOnUse" color-interpolation-filters="sRGB">
      <feFlood flood-opacity="0" result="BackgroundImageFix"/>
      <feColorMatrix in="SourceAlpha" type="matrix" values="0 0 0 0 0 0 0 0 0 0 0 0 0 0 0 0 0 0 127 0" result="hardAlpha"/>
      <feOffset dx="1" dy="6"/>
      <feGaussianBlur stdDeviation="6"/>
      <feColorMatrix type="matrix" values="0 0 0 0 0.0929574 0 0 0 0 0.0929574 0 0 0 0 0.0929574 0 0 0 0.603393 0"/>
      <feBlend mode="normal" in2="BackgroundImageFix" result="effect1_dropShadow_1_212"/>
      <feBlend mode="normal" in="SourceGraphic" in2="effect1_dropShadow_1_212" result="shape"/>
    </filter>
    <filter id="filter1_d_1_212" x="0.921875" y="0.371826" width="158.583" height="164.765" filterUnits="userSpaceOnUse" color-interpolation-filters="sRGB">
      <feFlood flood-opacity="0" result="BackgroundImageFix"/>
      <feColorMatrix in="SourceAlpha" type="matrix" values="0 0 0 0 0 0 0 0 0 0 0 0 0 0 0 0 0 0 127 0" result="hardAlpha"/>
      <feOffset dy="2"/>
      <feGaussianBlur stdDeviation="9.5"/>
      <feColorMatrix type="matrix" values="0 0 0 0 0.0831062 0 0 0 0 0.362286 0 0 0 0 0.386719 0 0 0 0.0628551 0"/>
      <feBlend mode="normal" in2="BackgroundImageFix" result="effect1_dropShadow_1_212"/>
      <feBlend mode="normal" in="SourceGraphic" in2="effect1_dropShadow_1_212" result="shape"/>
    </filter>
  </defs>
</svg>