<svg xmlns="http://www.w3.org/2000/svg" width="141" height="165" viewBox="0 0 141 165" fill="none">
  <g filter="url(#filter0_d_1_371)">
    <g filter="url(#filter1_d_1_371)">
      <path fill-rule="evenodd" clip-rule="evenodd" d="M64.7061 58.7188C64.1217 58.7188 63.6489 59.1893 63.6489 59.7691V63.8382C63.6489 64.2585 63.9916 64.5998 64.4146 64.5998C64.8377 64.5998 65.1804 64.9403 65.1804 65.3606V65.4987C65.1804 65.919 65.5238 66.2602 65.9468 66.2602H75.0552C75.4782 66.2602 75.821 65.919 75.821 65.4987V65.153C75.821 64.7327 76.1644 64.3922 76.5874 64.3922H76.7785C77.2015 64.3922 77.545 64.051 77.545 63.6307V59.7691C77.545 59.1893 77.0714 58.7188 76.4871 58.7188H64.7061Z" fill="#24272B"/>
      <path fill-rule="evenodd" clip-rule="evenodd" d="M79.1795 58.2702C78.717 58.0243 78.9215 57.3521 79.4003 57.1379C79.9177 56.9067 80.8574 56.4805 81.693 55.5203C82.7561 54.2993 85.6078 54.7787 85.7134 56.0817C85.8799 58.1284 80.7414 59.1005 79.1795 58.2702Z" fill="#24272B"/>
      <path fill-rule="evenodd" clip-rule="evenodd" d="M61.8553 58.2702C62.3177 58.0243 62.1132 57.3521 61.6345 57.1379C61.117 56.9067 60.1774 56.4805 59.3418 55.5203C58.2787 54.2993 55.4269 54.7787 55.3213 56.0817C55.1548 58.1284 60.2933 59.1005 61.8553 58.2702Z" fill="#24272B"/>
      <path fill-rule="evenodd" clip-rule="evenodd" d="M87.2839 110.21C84.0642 113.361 79.3494 112.074 77.9681 110.21C76.459 108.173 75.9579 104.987 79.2468 101.616C83.3594 97.4018 91.4649 99.1332 91.4649 99.1332C91.1601 102.953 90.5037 107.059 87.2839 110.21ZM62.6752 110.956C60.6248 112.455 57.4185 112.953 54.0255 109.685C49.7843 105.599 51.5268 97.5466 51.5268 97.5466C55.3718 97.8487 59.5038 98.5016 62.6752 101.7C65.8466 104.899 64.5516 109.584 62.6752 110.956ZM120.192 59.967C120.084 59.3761 119.958 58.7733 119.823 58.1617C119.021 54.5203 118.016 50.2074 110.891 46.7823C103.75 43.3506 97.3164 52.2763 93.7108 54.9657C92.6194 55.7796 84.6046 57.2399 80.4147 60.0298C77.7993 61.7715 75.2241 63.2133 73.4793 63.9371C71.7665 64.6477 69.873 63.9925 68.1356 63.3448L64.249 61.2914C58.7707 58.5968 58.1894 58.5968 55.6781 57.9608C51.2689 56.8455 48.5732 55.7796 47.4819 54.9657C43.877 52.2763 37.4427 43.3506 30.3029 46.7823C23.1772 50.2074 22.1714 54.5203 21.37 58.1617C21.2451 58.729 21.1261 59.2845 21.0221 59.8274C20.3359 63.4171 22.3349 66.9456 25.7182 68.3786C29.2644 69.881 34.2988 73.2299 35.5485 80.3533C35.9351 82.5596 37.3706 84.4579 39.3667 85.4994C42.1962 86.976 45.6501 90.6588 45.3773 99.843C45.3453 100.927 45.5051 102.009 45.9185 103.012C47.1206 105.932 49.1695 113.709 56.4654 114.874C64.1122 116.094 67.8152 110.174 68.8932 104.66C68.9972 104.127 69.2678 103.626 69.7176 103.316C70.154 103.016 70.7547 102.873 71.4305 103.476C71.8245 103.827 72.0453 104.325 72.1516 104.841C73.2875 110.36 77.8729 116.439 85.4276 114.938C93.5301 113.328 94.0542 106.004 95.2586 103.052C95.6489 102.094 95.857 101.073 95.8243 100.04C95.5218 90.6344 99.4024 86.7817 102.536 85.2047C104.656 84.1374 106.218 82.1859 106.611 79.8562C107.764 73.0165 112.232 69.8758 115.491 68.4731C118.849 67.0269 120.844 63.5449 120.192 59.967Z" fill="#24272B"/>
      <path fill-rule="evenodd" clip-rule="evenodd" d="M63.6274 20.688V25.8075C63.6274 26.2278 63.9702 26.569 64.3932 26.569C64.8162 26.569 65.1596 26.9095 65.1596 27.3298V27.4679C65.1596 27.8882 65.5023 28.2295 65.9254 28.2295H75.0338C75.4568 28.2295 75.8002 27.8882 75.8002 27.4679V27.1222C75.8002 26.702 76.1429 26.3615 76.5659 26.3615H76.7577C77.1808 26.3615 77.5235 26.0202 77.5235 25.5999V20.688" fill="#24272B"/>
      <path fill-rule="evenodd" clip-rule="evenodd" d="M63.6484 33.1628V38.2823C63.6484 38.7026 63.9912 39.0439 64.4142 39.0439C64.8372 39.0439 65.1806 39.3844 65.1806 39.8047V39.9428C65.1806 40.3631 65.5233 40.7043 65.9464 40.7043H75.0547C75.4778 40.7043 75.8212 40.3631 75.8212 39.9428V39.5971C75.8212 39.1768 76.1639 38.8363 76.5869 38.8363H76.7787C77.2017 38.8363 77.5445 38.4951 77.5445 38.0748V33.1628" fill="#24272B"/>
      <path fill-rule="evenodd" clip-rule="evenodd" d="M63.6484 45.9407V51.0602C63.6484 51.4804 63.9912 51.8217 64.4142 51.8217C64.8372 51.8217 65.1806 52.1622 65.1806 52.5825V52.7206C65.1806 53.1409 65.5233 53.4822 65.9464 53.4822H75.0547C75.4778 53.4822 75.8212 53.1409 75.8212 52.7206V52.3749C75.8212 51.9547 76.1639 51.6141 76.5869 51.6141H76.7787C77.2017 51.6141 77.5445 51.2729 77.5445 50.8526V45.9407" fill="#24272B"/>
      <path fill-rule="evenodd" clip-rule="evenodd" d="M79.1795 21.0764C78.717 20.8304 78.9215 20.1583 79.4003 19.9441C79.9177 19.7129 80.8574 19.2867 81.693 18.3264C82.7561 17.1055 85.6078 17.5849 85.7134 18.8878C85.8799 20.9346 80.7414 21.9066 79.1795 21.0764Z" fill="#24272B"/>
      <path fill-rule="evenodd" clip-rule="evenodd" d="M61.8553 21.0764C62.3177 20.8304 62.1132 20.1583 61.6345 19.9441C61.117 19.7129 60.1774 19.2867 59.3418 18.3264C58.2787 17.1055 55.4269 17.5849 55.3213 18.8878C55.1548 20.9346 60.2933 21.9066 61.8553 21.0764Z" fill="#24272B"/>
      <path fill-rule="evenodd" clip-rule="evenodd" d="M79.1795 33.6213C78.717 33.3753 78.9215 32.7032 79.4003 32.489C79.9177 32.2578 80.8574 31.8316 81.693 30.8714C82.7561 29.6504 85.6078 30.1298 85.7134 31.4327C85.8799 33.4795 80.7414 34.4515 79.1795 33.6213Z" fill="#24272B"/>
      <path fill-rule="evenodd" clip-rule="evenodd" d="M61.8553 33.6213C62.3177 33.3753 62.1132 32.7032 61.6345 32.489C61.117 32.2578 60.1774 31.8316 59.3418 30.8714C58.2787 29.6504 55.4269 30.1298 55.3213 31.4327C55.1548 33.4795 60.2933 34.4515 61.8553 33.6213Z" fill="#24272B"/>
      <path fill-rule="evenodd" clip-rule="evenodd" d="M79.1795 46.1831C78.717 45.9371 78.9215 45.265 79.4003 45.0507C79.9177 44.8196 80.8574 44.3934 81.693 43.4331C82.7561 42.2122 85.6078 42.6915 85.7134 43.9945C85.8799 46.0413 80.7414 47.0133 79.1795 46.1831Z" fill="#24272B"/>
      <path fill-rule="evenodd" clip-rule="evenodd" d="M61.8553 46.1831C62.3177 45.9371 62.1132 45.265 61.6345 45.0507C61.117 44.8196 60.1774 44.3934 59.3418 43.4331C58.2787 42.2122 55.4269 42.6915 55.3213 43.9945C55.1548 46.0413 60.2933 47.0133 61.8553 46.1831Z" fill="#24272B"/>
      <path fill-rule="evenodd" clip-rule="evenodd" d="M24.3776 102.023C24.9351 101.975 25.8339 101.902 26.1722 101.458C27.7594 99.3791 28.6381 94.1917 31.4483 93.8194C35.9958 93.2167 37.2023 97.5465 37.2023 100.808C37.2023 100.808 37.2023 104.121 32.1151 106.109C30.3227 106.81 30.4729 110.812 30.4498 111.248L28.6671 139.256C28.6396 139.759 28.2218 140.153 27.7148 140.153L26.5023 140.672C25.9165 140.672 25.4332 140.215 25.4035 139.633L24.1471 115.17C24.1471 115.17 24.2393 109.852 21.9444 108.936C19.1692 107.829 17.8414 102.587 24.3776 102.023Z" fill="#24272B"/>
      <path fill-rule="evenodd" clip-rule="evenodd" d="M116.919 102.023C116.361 101.975 115.463 101.902 115.124 101.458C113.537 99.3791 112.658 94.1917 109.848 93.8194C105.301 93.2167 104.094 97.5465 104.094 100.808C104.094 100.808 104.094 104.121 109.181 106.109C110.974 106.81 110.824 110.812 110.847 111.248L112.629 139.256C112.657 139.759 113.075 140.153 113.582 140.153L114.794 140.672C115.38 140.672 115.863 140.215 115.893 139.633L117.149 115.17C117.149 115.17 117.057 109.852 119.352 108.936C122.127 107.829 123.455 102.587 116.919 102.023Z" fill="#24272B"/>
    </g>
    <path d="M59.4495 56.0404C59.4495 56.0404 46.4181 44.8346 44.309 43.2613C40.2083 40.2019 32.8908 38.452 24.7712 42.355C16.6671 46.2506 15.523 51.1551 14.6108 55.2966C13.6994 59.4382 15.523 68.7553 17.8677 71.3442C17.8677 71.3442 31.6746 71.6028 31.1534 88.6852C31.1534 88.6852 43.1366 85.1915 41.8342 104.345C41.8342 104.345 45.0145 115.733 53.9095 117.674C62.8046 119.616 69.0567 111.074 70.099 104.733L70.2774 104.74V104.765L70.5971 104.753L70.9168 104.765V104.74L71.0945 104.733C72.1367 111.074 78.3889 119.616 87.284 117.674C96.1797 115.733 99.3593 104.345 99.3593 104.345C98.0569 85.1915 110.041 88.6852 110.041 88.6852C109.52 71.6028 123.326 71.3442 123.326 71.3442C125.67 68.7553 127.494 59.4382 126.583 55.2966C125.67 51.1551 124.527 46.2506 116.423 42.355C108.303 38.452 100.985 40.2019 96.8845 43.2613C94.7754 44.8346 81.744 56.0404 81.744 56.0404" stroke="#08B7F6"/>
    <path d="M86.0077 69.0552C86.0077 69.0552 88.226 70.0871 91.4644 73.8659C95.4261 78.4905 94.9547 83.1247 94.1786 85.8222C93.4047 88.5146 91.8517 91.1205 86.4217 95.3595C81.5434 99.1679 72.4045 99.8652 70.5973 99.9678C68.79 99.8652 59.6504 99.1679 54.7721 95.3595C49.3421 91.1205 47.7899 88.5146 47.0152 85.8222C46.2398 83.1247 45.7678 78.4905 49.7302 73.8659C52.9685 70.0871 55.1862 69.0552 55.1862 69.0552" stroke="#08B7F6"/>
    <path d="M73.5456 91.5291V92.6555C73.5456 93.0802 73.2691 93.4658 72.8572 93.5788C72.3837 93.7088 71.8291 93.9725 71.7696 94.4999C71.7042 95.0863 71.7205 95.9779 71.7421 96.5636C71.754 96.8886 71.4916 97.1575 71.1645 97.1575H70.5117C70.1928 97.1575 69.9341 96.9004 69.9341 96.5835V94.5523C69.9341 94.5523 69.746 93.6179 68.5729 93.3313C68.1425 93.2264 67.8369 92.8423 67.8369 92.4014V91.3547" stroke="#08B7F6"/>
    <path d="M55.235 69.0338C54.5644 67.53 53.3355 63.9062 53.9072 61.2161C54.3451 59.159 57.2645 54.7589 60.7906 56.4585C64.9485 58.4625 66.7751 60.0261 67.8226 60.6207C68.8701 61.2161 71.3352 63.1328 74.6234 60.5114C74.6234 60.5114 77.971 57.2245 80.2444 56.2561C83.1891 55.0027 90.8649 59.1346 85.3287 70.5813C79.7924 82.0286 80.3909 80.2448 79.7924 82.0286C79.1939 83.8125 80.0414 87.6918 79.3753 89.1786C78.71 90.6648 74.1067 91.6915 71.4133 91.6915C68.7206 91.6915 63.1844 90.7992 62.8848 89.0154C62.6751 87.7619 62.7599 85.0415 62.829 83.534C62.861 82.836 62.6952 82.1461 62.345 81.5404C60.7103 78.7122 55.8996 70.3774 55.4037 69.3921C55.3532 69.2923 55.2967 69.1719 55.235 69.0338" stroke="#08B7F6"/>
    <path fill-rule="evenodd" clip-rule="evenodd" d="M66.4165 64.1946C66.4165 65.14 65.6448 65.9067 64.6932 65.9067C63.7409 65.9067 62.9692 65.14 62.9692 64.1946C62.9692 63.2491 63.7409 62.4824 64.6932 62.4824C65.6448 62.4824 66.4165 63.2491 66.4165 64.1946Z" stroke="#08B7F6"/>
    <path fill-rule="evenodd" clip-rule="evenodd" d="M79.247 64.1946C79.247 65.14 78.4754 65.9067 77.5238 65.9067C76.5715 65.9067 75.7998 65.14 75.7998 64.1946C75.7998 63.2491 76.5715 62.4824 77.5238 62.4824C78.4754 62.4824 79.247 63.2491 79.247 64.1946Z" stroke="#08B7F6"/>
    <path fill-rule="evenodd" clip-rule="evenodd" d="M67.0561 71.6233C67.0561 72.5687 66.2845 73.3355 65.3329 73.3355C64.3806 73.3355 63.6089 72.5687 63.6089 71.6233C63.6089 70.6778 64.3806 69.9111 65.3329 69.9111C66.2845 69.9111 67.0561 70.6778 67.0561 71.6233Z" stroke="#08B7F6"/>
    <path fill-rule="evenodd" clip-rule="evenodd" d="M78.6079 71.6233C78.6079 72.5687 77.8362 73.3355 76.8846 73.3355C75.9323 73.3355 75.1606 72.5687 75.1606 71.6233C75.1606 70.6778 75.9323 69.9111 76.8846 69.9111C77.8362 69.9111 78.6079 70.6778 78.6079 71.6233Z" stroke="#08B7F6"/>
    <path fill-rule="evenodd" clip-rule="evenodd" d="M67.6958 79.0305C67.6958 79.976 66.9241 80.7427 65.9725 80.7427C65.0202 80.7427 64.2485 79.976 64.2485 79.0305C64.2485 78.0851 65.0202 77.3184 65.9725 77.3184C66.9241 77.3184 67.6958 78.0851 67.6958 79.0305Z" stroke="#08B7F6"/>
    <path fill-rule="evenodd" clip-rule="evenodd" d="M77.9682 79.0305C77.9682 79.976 77.1966 80.7427 76.245 80.7427C75.2927 80.7427 74.521 79.976 74.521 79.0305C74.521 78.0851 75.2927 77.3184 76.245 77.3184C77.1966 77.3184 77.9682 78.0851 77.9682 79.0305Z" stroke="#08B7F6"/>
    <path fill-rule="evenodd" clip-rule="evenodd" d="M67.6958 85.8274C67.6958 86.7728 66.9241 87.5396 65.9725 87.5396C65.0202 87.5396 64.2485 86.7728 64.2485 85.8274C64.2485 84.8819 65.0202 84.1152 65.9725 84.1152C66.9241 84.1152 67.6958 84.8819 67.6958 85.8274Z" stroke="#08B7F6"/>
    <path fill-rule="evenodd" clip-rule="evenodd" d="M77.9682 85.8274C77.9682 86.7728 77.1966 87.5396 76.245 87.5396C75.2927 87.5396 74.521 86.7728 74.521 85.8274C74.521 84.8819 75.2927 84.1152 76.245 84.1152C77.1966 84.1152 77.9682 84.8819 77.9682 85.8274Z" stroke="#08B7F6"/>
    <path fill-rule="evenodd" clip-rule="evenodd" d="M24.3148 98.3725C25.0158 98.4042 25.6544 97.9389 25.7726 97.252C26.1659 94.9659 28.1672 91.5231 30.6762 90.7357C34.1004 89.661 38.9892 90.9322 39.9965 99.6053C39.9965 99.6053 41.2417 105.909 34.5286 108.148C34.0068 108.323 33.5495 108.907 33.5198 109.453L31.6219 144.617C31.5877 145.247 31.0635 145.74 30.4287 145.74H23.7438C23.0093 145.74 22.4034 145.168 22.367 144.439L20.9106 115.274C20.9106 115.274 21.6266 112.845 17.7504 109.692C14.3723 106.944 13.2586 97.8724 24.3148 98.3725Z" stroke="#08B7F6"/>
    <path fill-rule="evenodd" clip-rule="evenodd" d="M117.144 98.3725C116.442 98.4042 115.804 97.9389 115.686 97.252C115.292 94.9659 113.291 91.5231 110.782 90.7357C107.358 89.661 102.469 90.9322 101.462 99.6053C101.462 99.6053 100.217 105.909 106.93 108.148C107.452 108.323 107.909 108.907 107.938 109.453L109.836 144.617C109.871 145.247 110.395 145.74 111.03 145.74H117.714C118.449 145.74 119.055 145.168 119.091 144.439L120.548 115.274C120.548 115.274 119.832 112.845 123.708 109.692C127.086 106.944 128.2 97.8724 117.144 98.3725Z" stroke="#08B7F6"/>
    <path fill-rule="evenodd" clip-rule="evenodd" d="M91.4646 99.133C91.4646 99.133 83.3598 97.4017 79.2472 101.616C75.9575 104.987 76.4586 108.172 77.9678 110.21C79.349 112.074 84.0646 113.361 87.2843 110.21C90.5033 107.059 91.1598 102.953 91.4646 99.133Z" stroke="#08B7F6"/>
    <path fill-rule="evenodd" clip-rule="evenodd" d="M51.5269 97.5464C51.5269 97.5464 49.7843 105.599 54.0256 109.685C57.4185 112.954 60.6249 112.456 62.6753 110.956C64.5517 109.584 65.8467 104.899 62.6753 101.7C59.5038 98.5014 55.3719 97.8492 51.5269 97.5464Z" stroke="#08B7F6"/>
    <path fill-rule="evenodd" clip-rule="evenodd" d="M79.303 43.1261C78.8027 43.8433 77.4185 44.2902 77.4185 44.2902H70.6912H70.3366H63.6934C63.6347 44.2902 63.5782 44.2799 63.5224 44.2607C63.2117 44.1491 62.1493 43.7355 61.7241 43.1261C59.9518 40.583 53.6461 41.0306 53.7598 43.9408C53.8736 46.8518 57.1416 47.1576 58.6352 47.4457C59.9986 47.7086 62.2244 48.0159 62.2244 48.0159V53.371H63.6094V54.7678H70.3366H70.6912H77.4185V53.371H78.8027V48.0159C78.8027 48.0159 81.0285 47.7086 82.3919 47.4457C83.8862 47.1576 87.1535 46.8518 87.2673 43.9408C87.3818 41.0306 81.0753 40.583 79.303 43.1261Z" stroke="#08B7F6"/>
    <path d="M84.2228 53.9134C82.3858 53.6874 80.2277 54.2 79.3029 55.5266C78.8025 56.2446 77.4183 56.6907 77.4183 56.6907H70.6911H70.3365H63.6093C63.6093 56.6907 62.2243 56.2446 61.7239 55.5266C60.8244 54.2355 58.7555 53.7155 56.9512 53.8972" stroke="#08B7F6"/>
    <path fill-rule="evenodd" clip-rule="evenodd" d="M79.386 30.5634C78.8857 31.2806 77.5015 31.7275 77.5015 31.7275H70.7742H70.4196H63.7764C63.7177 31.7275 63.6612 31.7171 63.6054 31.6979C63.2947 31.5864 62.2323 31.1728 61.8071 30.5634C60.0348 28.0203 53.7291 28.4679 53.8428 31.3781C53.9566 34.2891 57.2247 34.5949 58.7182 34.8829C60.0816 35.1459 62.3074 35.4532 62.3074 35.4532V40.8083H63.6924V42.205H70.4196H70.7742H77.5015V40.8083H78.8857V35.4532C78.8857 35.4532 81.1115 35.1459 82.4749 34.8829C83.9692 34.5949 87.2366 34.2891 87.3503 31.3781C87.4648 28.4679 81.1583 28.0203 79.386 30.5634Z" stroke="#08B7F6"/>
    <path fill-rule="evenodd" clip-rule="evenodd" d="M79.386 18.0346C78.8857 18.7518 77.5015 19.1987 77.5015 19.1987H70.7742H70.4196H63.7764C63.7177 19.1987 63.6612 19.1883 63.6054 19.1691C63.2947 19.0576 62.2323 18.6439 61.8071 18.0346C60.0348 15.4914 53.7291 15.9391 53.8428 18.8493C53.9566 21.7603 57.2247 22.066 58.7182 22.3541C60.0816 22.6171 62.3074 22.9243 62.3074 22.9243V28.2795H63.6924V29.6762H70.4196H70.7742H77.5015V28.2795H78.8857V22.9243C78.8857 22.9243 81.1115 22.6171 82.4749 22.3541C83.9692 22.066 87.2366 21.7603 87.3503 18.8493C87.4648 15.9391 81.1583 15.4914 79.386 18.0346Z" stroke="#08B7F6"/>
  </g>
  <defs>
    <filter id="filter0_d_1_371" x="2.87158" y="9.86963" width="137.45" height="154.371" filterUnits="userSpaceOnUse" color-interpolation-filters="sRGB">
      <feFlood flood-opacity="0" result="BackgroundImageFix"/>
      <feColorMatrix in="SourceAlpha" type="matrix" values="0 0 0 0 0 0 0 0 0 0 0 0 0 0 0 0 0 0 127 0" result="hardAlpha"/>
      <feOffset dx="1" dy="6"/>
      <feGaussianBlur stdDeviation="6"/>
      <feColorMatrix type="matrix" values="0 0 0 0 0.0929574 0 0 0 0 0.0929574 0 0 0 0 0.0929574 0 0 0 0.603393 0"/>
      <feBlend mode="normal" in2="BackgroundImageFix" result="effect1_dropShadow_1_371"/>
      <feBlend mode="normal" in="SourceGraphic" in2="effect1_dropShadow_1_371" result="shape"/>
    </filter>
    <filter id="filter1_d_1_371" x="0.656738" y="0.621338" width="139.983" height="161.051" filterUnits="userSpaceOnUse" color-interpolation-filters="sRGB">
      <feFlood flood-opacity="0" result="BackgroundImageFix"/>
      <feColorMatrix in="SourceAlpha" type="matrix" values="0 0 0 0 0 0 0 0 0 0 0 0 0 0 0 0 0 0 127 0" result="hardAlpha"/>
      <feOffset dy="2"/>
      <feGaussianBlur stdDeviation="9.5"/>
      <feColorMatrix type="matrix" values="0 0 0 0 0.0831062 0 0 0 0 0.362286 0 0 0 0 0.386719 0 0 0 0.0628551 0"/>
      <feBlend mode="normal" in2="BackgroundImageFix" result="effect1_dropShadow_1_371"/>
      <feBlend mode="normal" in="SourceGraphic" in2="effect1_dropShadow_1_371" result="shape"/>
    </filter>
  </defs>
</svg>