<svg xmlns="http://www.w3.org/2000/svg" width="140" height="165" viewBox="0 0 140 165" fill="none">
  <g filter="url(#filter0_d_1_319)">
    <g filter="url(#filter1_d_1_319)">
      <path fill-rule="evenodd" clip-rule="evenodd" d="M69.1038 17.5769C68.3974 17.5769 67.8253 18.1481 67.8306 18.8524C67.8759 25.383 68.0446 54.9305 67.408 59.4323C66.9739 62.5041 63.1084 68.1232 63.1084 68.1232C63.1084 68.1232 67.2753 63.3216 69.8623 63.5319C72.2691 63.7277 75.8209 68.4451 75.8209 68.4451C75.8209 68.4451 71.8112 61.52 71.4108 59.6143C70.6784 56.1234 71.1409 25.5551 71.2513 18.8662C71.2628 18.1573 70.6891 17.5769 69.9781 17.5769H69.1038Z" fill="#24272B"/>
      <path fill-rule="evenodd" clip-rule="evenodd" d="M57.8039 70.6916C59.1778 76.8016 59.8618 81.4868 60.6727 92.4103C61.3403 101.416 62.0943 110.855 61.4299 119.914C60.7662 128.974 53.8171 134.211 50.4514 135.809C47.0857 137.406 42.0271 139.113 36.8049 138.828C31.5821 138.544 26.2214 137.406 20.8606 134.42C20.8606 134.42 19.8458 132.171 19.7012 122.914C19.5561 113.657 20.5703 102.327 22.309 94.8376C24.0478 87.3484 27.2899 76.8831 31.6096 71.5208C35.9293 66.1591 42.8372 59.4176 47.5696 56.602C52.3019 53.7864 54.0943 52.8596 54.0943 52.8596C54.0943 52.8596 55.3426 59.7468 57.8039 70.6916Z" fill="#24272B"/>
      <path fill-rule="evenodd" clip-rule="evenodd" d="M81.5711 70.6916C80.1972 76.8016 79.5132 81.4868 78.7023 92.4103C78.0347 101.416 77.2807 110.855 77.9451 119.914C78.6088 128.974 85.5579 134.211 88.9236 135.809C92.2893 137.406 97.3479 139.113 102.57 138.828C107.793 138.544 113.154 137.406 118.514 134.42C118.514 134.42 119.529 132.171 119.674 122.914C119.819 113.657 118.805 102.327 117.066 94.8376C115.327 87.3484 112.085 76.8831 107.765 71.5208C103.446 66.1591 96.5378 59.4176 91.8054 56.602C87.0731 53.7864 85.2807 52.8596 85.2807 52.8596C85.2807 52.8596 84.0324 59.7468 81.5711 70.6916Z" fill="#24272B"/>
    </g>
    <path d="M64.004 73.9297L64.1214 86.7156" stroke="#08B7F6"/>
    <path d="M57.2339 38.1836C35.9306 46.6007 27.5537 62.7567 23.6253 69.6864C18.0165 79.5794 10.7157 110.287 14.3649 136.168C15.0399 140.959 22.0868 144.169 28.1842 145.35C33.7608 146.432 41.452 146.007 46.8775 144.329C65.6667 138.515 66.5702 126.259 67.0595 117.282C67.4637 109.866 66.6553 99.2377 64.122 86.7157C62.8481 80.4214 61.1377 73.6476 58.9266 66.5634C52.5462 46.1182 57.2339 38.1836 57.2339 38.1836C62.2729 42.5684 63.8474 56.8875 63.8474 56.8875" stroke="#08B7F6"/>
    <path d="M32.3359 90.6417C36.2367 85.4563 42.2176 81.697 54.5696 73.9184C66.9216 66.1406 66.7912 57.9735 67.1586 54.8619C67.526 51.7503 67.1586 17.1849 67.1586 17.1849C67.1586 17.1849 69.4511 15.3786 71.8839 17.1849C71.8839 17.1849 71.5173 51.7503 71.8839 54.8619C72.2513 57.9735 72.1209 66.1406 84.4729 73.9184C96.8249 81.697 102.806 85.4563 106.707 90.6417" stroke="#08B7F6"/>
    <path d="M46.3256 79.1533C46.3256 79.1533 38.317 89.7346 41.3074 96.3454" stroke="#08B7F6"/>
    <path d="M55.8069 73.1097C55.8069 73.1097 52.2911 73.5685 47.1578 71.8441C44.0699 70.8072 41.1033 68.5658 40.2712 64.9732C39.0946 59.8948 39.7465 55.51 39.7465 55.51" stroke="#08B7F6"/>
    <path d="M40.271 64.9734C40.271 64.9734 41.3363 57.071 48.2291 53.5051" stroke="#08B7F6"/>
    <path d="M42.8268 69.3273C42.8268 69.3273 37.8891 68.6123 32.0371 73.9285" stroke="#08B7F6"/>
    <path d="M27.0298 82.811C27.0298 82.811 31.5886 84.2869 39.7461 83.6461" stroke="#08B7F6"/>
    <path d="M67.1585 115.107C67.1585 115.107 63.2354 121.897 51.2876 122.81" stroke="#08B7F6"/>
    <path d="M45.5857 124.095C45.5857 124.095 15.4546 129.552 14.3647 136.169" stroke="#08B7F6"/>
    <path d="M22.3389 120.028C22.3389 120.028 32.1285 124.443 38.732 115.768C45.3364 107.091 47.2009 99.887 47.2009 99.887C47.2009 99.887 53.6918 84.2396 55.8071 81.2955C57.9224 78.3521 66.1351 66.4709 67.159 65.7253C68.7688 64.5522 70.1977 64.7962 71.5966 65.7253C72.9948 66.6552 82.0849 78.814 84.3383 83.2699C86.5909 87.7251 92.574 100.971 93.8165 103.915C95.0597 106.859 98.7404 116.092 103.476 118.959C107.472 121.378 113.055 121.855 116.27 120.731" stroke="#08B7F6"/>
    <path d="M45.0269 135.26C45.0269 135.26 48.5296 128.812 48.5296 124.96C48.5296 121.109 47.452 113.407 47.5417 111.348C47.6315 109.288 47.0486 100.156 48.6953 96.3459" stroke="#08B7F6"/>
    <path d="M54.3682 113.497C54.3682 113.497 49.2418 112.333 49.8285 100.064L50.041 93.2241" stroke="#08B7F6"/>
    <path d="M29.9751 101.049C29.9751 101.049 38.9548 105.98 47.2004 99.8872" stroke="#08B7F6"/>
    <path d="M27.0298 115.107C27.0298 115.107 28.7601 121.005 34.4234 119.579" stroke="#08B7F6"/>
    <path d="M75.0452 73.1653L74.921 86.7159" stroke="#08B7F6"/>
    <path d="M81.8082 38.1836C103.112 46.6007 111.488 62.7567 115.417 69.6864C121.026 79.5794 128.326 110.287 124.677 136.168C124.002 140.959 116.955 144.169 110.858 145.35C105.281 146.432 97.5901 146.007 92.1646 144.329C73.3754 138.515 72.4719 126.259 71.9826 117.282C71.5784 109.866 72.3868 99.2377 74.9201 86.7157C76.194 80.4214 77.9043 73.6476 80.1155 66.5634C86.4959 46.1182 81.8082 38.1836 81.8082 38.1836C76.7692 42.5684 75.1946 56.8875 75.1946 56.8875" stroke="#08B7F6"/>
    <path d="M92.7168 79.1533C92.7168 79.1533 100.725 89.7346 97.7351 96.3454" stroke="#08B7F6"/>
    <path d="M83.2354 73.1097C83.2354 73.1097 86.7511 73.5685 91.8845 71.8441C94.9723 70.8072 97.9389 68.5658 98.7711 64.9732C99.9476 59.8948 99.2957 55.51 99.2957 55.51" stroke="#08B7F6"/>
    <path d="M98.7715 64.9734C98.7715 64.9734 97.7062 57.071 90.8135 53.5051" stroke="#08B7F6"/>
    <path d="M96.2153 69.3273C96.2153 69.3273 101.153 68.6123 107.005 73.9285" stroke="#08B7F6"/>
    <path d="M112.013 82.811C112.013 82.811 107.454 84.2869 99.2964 83.6461" stroke="#08B7F6"/>
    <path d="M71.8838 115.107C71.8838 115.107 75.8068 121.897 87.7547 122.81" stroke="#08B7F6"/>
    <path d="M93.457 124.095C93.457 124.095 123.588 129.552 124.678 136.169" stroke="#08B7F6"/>
    <path d="M94.0154 135.26C94.0154 135.26 90.5127 128.812 90.5127 124.961C90.5127 121.11 91.5903 113.407 91.5006 111.348C91.4108 109.288 92.1632 100.304 90.5173 96.4944" stroke="#08B7F6"/>
    <path d="M84.6743 113.497C84.6743 113.497 89.8007 112.333 89.214 100.063L89.0913 93.3608" stroke="#08B7F6"/>
    <path d="M109.067 101.049C109.067 101.049 100.254 105.899 92.0083 99.8069" stroke="#08B7F6"/>
    <path d="M112.013 115.107C112.013 115.107 110.282 121.005 104.619 119.579" stroke="#08B7F6"/>
    <path d="M67.2002 21.5198H71.8841" stroke="#08B7F6"/>
    <path d="M67.2417 26.5034H71.8006" stroke="#08B7F6"/>
    <path d="M67.2754 31.2261H71.7675" stroke="#08B7F6"/>
    <path d="M67.3008 35.773H71.7423" stroke="#08B7F6"/>
    <path d="M67.3179 40.6253H71.7241" stroke="#08B7F6"/>
    <path d="M67.3208 45.0847H71.8007" stroke="#08B7F6"/>
    <path d="M67.3208 49.9378H71.7247" stroke="#08B7F6"/>
    <path d="M67.1904 54.4835C67.1904 54.4835 70.47 54.2196 71.8007 54.4835" stroke="#08B7F6"/>
    <path d="M66.436 59.6139C66.436 59.6139 69.7578 58.7972 72.6063 59.6139" stroke="#08B7F6"/>
  </g>
  <defs>
    <filter id="filter0_d_1_319" x="1.88379" y="9.88232" width="137.274" height="154.562" filterUnits="userSpaceOnUse" color-interpolation-filters="sRGB">
      <feFlood flood-opacity="0" result="BackgroundImageFix"/>
      <feColorMatrix in="SourceAlpha" type="matrix" values="0 0 0 0 0 0 0 0 0 0 0 0 0 0 0 0 0 0 127 0" result="hardAlpha"/>
      <feOffset dx="1" dy="6"/>
      <feGaussianBlur stdDeviation="6"/>
      <feColorMatrix type="matrix" values="0 0 0 0 0.0929574 0 0 0 0 0.0929574 0 0 0 0 0.0929574 0 0 0 0.603393 0"/>
      <feBlend mode="normal" in2="BackgroundImageFix" result="effect1_dropShadow_1_319"/>
      <feBlend mode="normal" in="SourceGraphic" in2="effect1_dropShadow_1_319" result="shape"/>
    </filter>
    <filter id="filter1_d_1_319" x="0.6875" y="0.576904" width="138" height="159.283" filterUnits="userSpaceOnUse" color-interpolation-filters="sRGB">
      <feFlood flood-opacity="0" result="BackgroundImageFix"/>
      <feColorMatrix in="SourceAlpha" type="matrix" values="0 0 0 0 0 0 0 0 0 0 0 0 0 0 0 0 0 0 127 0" result="hardAlpha"/>
      <feOffset dy="2"/>
      <feGaussianBlur stdDeviation="9.5"/>
      <feColorMatrix type="matrix" values="0 0 0 0 0.0831062 0 0 0 0 0.362286 0 0 0 0 0.386719 0 0 0 0.0628551 0"/>
      <feBlend mode="normal" in2="BackgroundImageFix" result="effect1_dropShadow_1_319"/>
      <feBlend mode="normal" in="SourceGraphic" in2="effect1_dropShadow_1_319" result="shape"/>
    </filter>
  </defs>
</svg>