<svg xmlns="http://www.w3.org/2000/svg" width="136" height="156" viewBox="0 0 136 156" fill="none">
  <g filter="url(#filter0_d_1_552)">
    <g filter="url(#filter1_d_1_552)">
      <path fill-rule="evenodd" clip-rule="evenodd" d="M89.0617 116.331C100.851 116.733 99.8353 101.021 99.8353 101.021C99.8353 101.021 100.777 92.2852 100.355 86.8855C99.9338 81.4862 103.325 82.1866 103.325 82.1866C111.938 81.5076 111.244 77.7113 110.071 75.6519C109.262 74.2326 103.738 67.4315 100.943 64.3584C100.226 63.5691 99.8011 62.5644 99.7389 61.5059C99.1112 50.8391 99.3437 46.4436 92.3954 35.5747C86.8487 26.8988 74.3353 16.7841 55.1616 20.5438C49.5236 21.6494 44.66 24.15 40.6774 26.9982C30.4011 34.3475 23.916 45.8916 23.764 58.4042C23.7375 60.5968 23.9 62.8858 24.3323 65.2133C26.2274 75.4127 34.1241 79.8886 35.9464 83.4772C38.0021 87.5261 38.6331 92.3386 37.9775 96.2162L38.7028 112.75C38.7028 112.75 37.1726 122.184 46.6152 123.606C56.0583 125.027 60.8942 121.45 61.1562 120.416C61.4186 119.382 61.8316 109.513 61.8316 109.513C68.4986 111.746 82.5235 116.108 89.0617 116.331Z" fill="#24272B"/>
    </g>
    <path d="M74.9381 63.4063C74.2551 66.4769 80.635 67.4448 81.2752 63.1633C81.5685 61.2013 80.8206 59.857 79.9237 58.977C78.9247 57.9963 77.5654 57.471 76.1701 57.3903C64.3603 56.7037 66.2381 72.4464 75.5716 75.6277C85.6995 79.0803 94.6253 73.0875 96.4361 60.4418C98.4768 46.1948 82.6613 36.0069 77.7995 35.6005C72.9381 35.1941 60.8974 32.2202 45.5803 45.61C32.2664 57.2502 33.3649 77.6487 37.1432 89.3426C40.9932 101.261 51.4561 111.805 58.3438 117.088C60.334 118.614 62.6561 120.147 66.0824 121.315C74.5113 124.189 85.9417 126.746 94.2083 127.033C109.114 127.551 108.186 111.592 108.186 111.592C108.186 111.592 109.376 100.351 108.843 93.4033C108.31 86.4556 112.598 87.3568 112.598 87.3568C123.488 86.483 122.611 81.5982 121.127 78.9485C120.105 77.1218 113.121 68.3708 109.587 64.4161C108.679 63.4007 108.142 62.1081 108.063 60.7463C107.27 47.021 107.563 41.3648 98.7784 27.3794C91.7655 16.2159 75.9438 3.20096 51.7015 8.03871C44.5731 9.46104 38.4231 12.679 33.3881 16.3436C20.3947 25.7999 12.1952 40.6544 12.0035 56.7549C11.97 59.5763 12.1751 62.5212 12.7221 65.5168C15.1179 78.6408 24.0411 84.0727 26.3453 88.6907C28.9442 93.9002 29.7422 100.093 28.9128 105.082L29.2448 127.119C29.2448 127.119 34.385 134.854 46.3247 136.684C58.2639 138.513 64.8969 131.86 65.2283 130.53C65.5598 129.199 66.0824 121.315 66.0824 121.315" stroke="#08B7F6"/>
  </g>
  <defs>
    <filter id="filter0_d_1_552" x="0.5" y="0.499512" width="135" height="155" filterUnits="userSpaceOnUse" color-interpolation-filters="sRGB">
      <feFlood flood-opacity="0" result="BackgroundImageFix"/>
      <feColorMatrix in="SourceAlpha" type="matrix" values="0 0 0 0 0 0 0 0 0 0 0 0 0 0 0 0 0 0 127 0" result="hardAlpha"/>
      <feOffset dx="1" dy="6"/>
      <feGaussianBlur stdDeviation="6"/>
      <feColorMatrix type="matrix" values="0 0 0 0 0.0929574 0 0 0 0 0.0929574 0 0 0 0 0.0929574 0 0 0 0.603393 0"/>
      <feBlend mode="normal" in2="BackgroundImageFix" result="effect1_dropShadow_1_552"/>
      <feBlend mode="normal" in="SourceGraphic" in2="effect1_dropShadow_1_552" result="shape"/>
    </filter>
    <filter id="filter1_d_1_552" x="4.76123" y="2.73657" width="125" height="142.198" filterUnits="userSpaceOnUse" color-interpolation-filters="sRGB">
      <feFlood flood-opacity="0" result="BackgroundImageFix"/>
      <feColorMatrix in="SourceAlpha" type="matrix" values="0 0 0 0 0 0 0 0 0 0 0 0 0 0 0 0 0 0 127 0" result="hardAlpha"/>
      <feOffset dy="2"/>
      <feGaussianBlur stdDeviation="9.5"/>
      <feColorMatrix type="matrix" values="0 0 0 0 0.0831062 0 0 0 0 0.362286 0 0 0 0 0.386719 0 0 0 0.0628551 0"/>
      <feBlend mode="normal" in2="BackgroundImageFix" result="effect1_dropShadow_1_552"/>
      <feBlend mode="normal" in="SourceGraphic" in2="effect1_dropShadow_1_552" result="shape"/>
    </filter>
  </defs>
</svg>