<svg xmlns="http://www.w3.org/2000/svg" width="126" height="149" viewBox="0 0 126 149" fill="none">
  <g filter="url(#filter0_d_1_361)">
    <g filter="url(#filter1_d_1_361)">
      <path fill-rule="evenodd" clip-rule="evenodd" d="M60.6391 44.5977C60.6391 44.5977 71.7998 43.0628 77.9802 38.0551C82.5378 34.3617 91.8673 20.8364 91.8673 20.8364L97.9423 24.942C97.9423 24.942 88.4939 38.9275 86.3317 46.2645C85.09 50.4785 87.8322 59.5768 88.1559 64.3461C88.4797 69.1155 88.0929 77.1769 82.496 85.538C71.095 102.571 53.3432 107.344 45.7664 109.656C40.4766 111.27 33.6797 119.802 32.0552 122.085L25.6252 117.748C25.6252 117.748 31.6471 108.535 33.1578 104.411C35.4953 98.0308 34.5414 89.1563 33.8516 83.7006C33.1176 77.8962 34.3235 73.0131 34.9761 70.0974C36.1403 64.8921 42.0625 51.4145 55.2479 46.9688" fill="#24272B"/>
      <path fill-rule="evenodd" clip-rule="evenodd" d="M76.0761 49.0966C76.0761 49.0966 63.1517 53.0033 57.8337 55.5894C51.0501 58.887 47.4032 62.471 44.966 68.8535C40.08 81.6515 46.5226 87.0496 42.5354 98.5969C40.8836 103.382 36.6926 109.161 36.6926 109.161" fill="#24272B"/>
      <path fill-rule="evenodd" clip-rule="evenodd" d="M72.0216 59.2823C72.0216 59.2823 66.9585 62.5993 64.2105 68.1476C62.4526 71.6963 63.2046 73.0788 60.8845 77.2272C58.8473 80.8692 55.2624 84.0998 52.778 85.7887" fill="#24272B"/>
      <path fill-rule="evenodd" clip-rule="evenodd" d="M79.8622 61.3621C79.8622 61.3621 82.1082 86.1139 56.4504 95.2071L79.8622 61.3621Z" fill="#24272B"/>
    </g>
    <path d="M53.883 41.3143C53.8054 41.3863 53.6634 41.4388 53.6634 41.4388C53.6634 41.4388 73.3092 36.1928 78.3785 30.364C83.1103 24.925 90.5593 12.3053 90.5593 12.3053L105.998 22.866C105.998 22.866 96.7286 34.0123 94.0701 43.0327C92.5434 48.2132 93.72 56.9385 94.118 62.8016C94.516 68.6647 94.6675 81.3441 87.7869 91.6229C73.7704 112.563 54.4463 111.587 45.7782 116.009C40.2946 118.808 35.5382 126.894 33.8414 129.843L18.3345 119.383C18.3345 119.383 24.4962 110.878 26.3539 105.807C29.2272 97.9635 28.2077 93.3016 27.3592 86.5951C26.4568 79.459 27.9389 73.4563 28.7409 69.8716C30.1726 63.4725 37.4535 46.9035 53.6634 41.4388" stroke="#08B7F6"/>
    <path d="M79.2673 44.0543C79.2673 44.0543 63.3791 48.8572 56.8407 52.0357C48.5013 56.0903 44.0187 60.4961 41.0224 68.3425C35.0155 84.0761 42.936 90.7121 38.034 104.908C36.0029 110.79 30.8514 117.894 30.8514 117.894" stroke="#08B7F6"/>
    <path d="M74.2838 56.576C74.2838 56.576 68.0597 60.6532 64.6811 67.4745C62.5204 71.8368 63.4447 73.5366 60.5925 78.6363C58.0878 83.1138 53.681 87.0853 50.6267 89.1624" stroke="#08B7F6"/>
    <path d="M83.9219 59.1327C83.9219 59.1327 86.6825 89.5614 55.1401 100.74" stroke="#08B7F6"/>
  </g>
  <defs>
    <filter id="filter0_d_1_361" x="6.62598" y="5.59082" width="113.108" height="142.967" filterUnits="userSpaceOnUse" color-interpolation-filters="sRGB">
      <feFlood flood-opacity="0" result="BackgroundImageFix"/>
      <feColorMatrix in="SourceAlpha" type="matrix" values="0 0 0 0 0 0 0 0 0 0 0 0 0 0 0 0 0 0 127 0" result="hardAlpha"/>
      <feOffset dx="1" dy="6"/>
      <feGaussianBlur stdDeviation="6"/>
      <feColorMatrix type="matrix" values="0 0 0 0 0.0929574 0 0 0 0 0.0929574 0 0 0 0 0.0929574 0 0 0 0.603393 0"/>
      <feBlend mode="normal" in2="BackgroundImageFix" result="effect1_dropShadow_1_361"/>
      <feBlend mode="normal" in="SourceGraphic" in2="effect1_dropShadow_1_361" result="shape"/>
    </filter>
    <filter id="filter1_d_1_361" x="6.625" y="3.83643" width="110.317" height="139.249" filterUnits="userSpaceOnUse" color-interpolation-filters="sRGB">
      <feFlood flood-opacity="0" result="BackgroundImageFix"/>
      <feColorMatrix in="SourceAlpha" type="matrix" values="0 0 0 0 0 0 0 0 0 0 0 0 0 0 0 0 0 0 127 0" result="hardAlpha"/>
      <feOffset dy="2"/>
      <feGaussianBlur stdDeviation="9.5"/>
      <feColorMatrix type="matrix" values="0 0 0 0 0.0831062 0 0 0 0 0.362286 0 0 0 0 0.386719 0 0 0 0.0628551 0"/>
      <feBlend mode="normal" in2="BackgroundImageFix" result="effect1_dropShadow_1_361"/>
      <feBlend mode="normal" in="SourceGraphic" in2="effect1_dropShadow_1_361" result="shape"/>
    </filter>
  </defs>
</svg>