<svg xmlns="http://www.w3.org/2000/svg" width="126" height="156" viewBox="0 0 126 156" fill="none">
  <g filter="url(#filter0_d_1_83)">
    <path fill-rule="evenodd" clip-rule="evenodd" d="M100.255 115.012C98.5344 113.111 91.0415 107.987 87.733 105.851L87.7317 105.85L87.6978 105.828C87.4312 105.656 87.192 105.504 86.9867 105.376L77.3159 99.2137L75.0298 97.7512C75.0298 97.7512 75.1762 97.8469 75.4317 98.0131L74.9113 97.6816C74.9877 97.1986 75.0298 96.709 75.0298 96.2165V92.6483H75.0294C78.1193 90.1818 80.3925 87.1194 81.2809 84.8642C82.2677 82.3587 82.9745 80.0541 83.4726 77.9029C89.5489 74.5218 89.5721 69.3429 89.5721 66.0108C89.5721 63.0978 87.2315 62.7646 85.7346 62.8487C85.7389 62.7955 85.7428 62.7384 85.7466 62.6821C87.0408 62.0191 88.4304 59.8245 88.7666 56.5851C88.8696 55.5962 91.525 41.9072 84.9153 33.2317C84.9128 33.2274 84.9102 33.2214 84.9076 33.2171C83.7581 31.3677 81.5948 29.0219 80.1709 27.5577L80.1611 27.4765C80.1611 27.4765 74.5107 21.3654 66.8713 20.2541C59.232 19.1428 53.1577 21.921 50.5698 23.8653C47.9814 25.81 44.648 29.2821 44.648 29.2821C44.648 29.2821 37.5643 30.8103 36.1752 36.6436C34.881 42.0806 35.5758 54.2643 36.7592 57.8639C36.7592 57.8639 37.3848 60.1066 38.5326 61.7237C38.7705 62.0586 39.0869 62.2738 39.4553 62.3322C38.0701 62.2896 35.2975 62.5739 35.5985 65.5814C35.9304 68.901 35.6363 74.1053 41.7225 77.4868C42.2443 77.9145 42.8029 78.3507 43.3104 78.7376C44.1757 81.4059 45.2749 84.0316 46.6756 86.2984C48.7187 89.6051 50.7583 92.042 53.1556 93.7372C53.1556 93.7372 52.67 95.9241 53.1556 98.2192C53.1535 98.2205 46.6125 102.122 38.8576 106.273C31.101 110.424 24.1092 114.794 22.0335 121.021C19.9578 127.248 18.6469 133.585 19.084 135.66H106.7C107.246 125.063 102.33 117.307 100.255 115.012Z" fill="#24272B"/>
    <path d="M36.3589 54.4395C36.3589 54.4395 37.2496 71.3019 43.6843 81.5815C46.0052 85.2889 48.3223 88.0213 51.0457 89.9222C54.3086 92.1996 58.1545 93.283 63.2882 93.4202C72.7062 93.6715 80.9828 85.0193 82.9969 79.9729C86.0043 72.4363 86.7282 66.514 86.7057 61.2129C86.6745 53.6753 86.6696 55.4785 86.6696 55.4785" stroke="#08B7F6"/>
    <path d="M43.6846 53.4956H52.5324" stroke="#08B7F6" stroke-width="3" stroke-linecap="round"/>
    <path d="M71.1377 53.4956H79.2577" stroke="#08B7F6" stroke-width="3" stroke-linecap="round"/>
    <path d="M58.1807 67.5725C58.1807 67.5725 61.3499 72.656 65.9719 67.5725" stroke="#08B7F6"/>
    <path d="M58.1807 82.8284C58.1807 82.8284 62.0763 85.9527 65.9719 82.8284" stroke="#08B7F6"/>
    <path d="M53.9956 77.2578C53.9956 77.2578 61.7868 83.2537 69.578 76.7363" stroke="#08B7F6"/>
    <path fill-rule="evenodd" clip-rule="evenodd" d="M76.631 60.2243C76.631 61.259 75.989 62.0972 75.1973 62.0972C74.4056 62.0972 73.7642 61.259 73.7642 60.2243C73.7642 59.1901 74.4056 58.3513 75.1973 58.3513C75.989 58.3513 76.631 59.1901 76.631 60.2243Z" stroke="#08B7F6"/>
    <path fill-rule="evenodd" clip-rule="evenodd" d="M49.5416 60.2243C49.5416 61.259 48.8997 62.0972 48.108 62.0972C47.3163 62.0972 46.6748 61.259 46.6748 60.2243C46.6748 59.1901 47.3163 58.3513 48.108 58.3513C48.8997 58.3513 49.5416 59.1901 49.5416 60.2243Z" stroke="#08B7F6"/>
    <path d="M71.1377 41.2675C71.1377 41.2675 77.4523 40.8862 80.6709 38.0382C80.6709 38.0382 84.1514 53.7008 86.4357 55.1327C88.0787 56.1631 90.9655 53.3541 91.5011 48.2634C91.6255 47.0843 95.0333 29.7943 85.5655 20.2937" stroke="#08B7F6"/>
    <path d="M81.7249 15.6242C81.7249 15.6242 75.3059 8.77125 66.6273 7.52566C57.9488 6.27958 51.0483 9.39429 48.1083 11.5749C45.1678 13.7551 41.381 17.6488 41.381 17.6488C41.381 17.6488 33.3337 19.3619 31.7556 25.9033C30.2854 31.9998 31.0746 45.6614 32.419 49.6972C32.419 49.6972 33.1298 52.2124 34.4337 54.0257C35.5532 55.5828 38.2054 54.8635 40.2766 48.6288C40.2766 48.6288 43.1478 34.1578 43.6844 31.8217C43.6844 31.8217 55.9337 42.358 66.5059 41.2674" stroke="#08B7F6"/>
    <path d="M36.3434 54.778C36.3434 54.778 30.6468 53.8762 31.1004 58.3511C31.4863 62.1577 31.1234 68.1743 38.5307 71.9549" stroke="#08B7F6"/>
    <path d="M86.6697 55.4786C86.6697 55.4786 92.4156 53.9769 92.4156 58.8326C92.4156 62.658 92.3927 68.6558 84.9854 72.4364" stroke="#08B7F6"/>
    <path d="M51.0457 89.9222C51.0457 89.9222 50.4935 92.3744 51.0457 94.9479C51.6545 97.7867 57.7682 106.195 63.8906 105.772C67.3174 105.535 71.654 102.015 74.1457 98.4088C75.3047 96.7308 75.8955 94.7332 75.8955 92.7023V88.7017" stroke="#08B7F6"/>
    <path d="M51.0459 94.948C51.0459 94.948 43.6142 99.3232 34.8025 103.978C25.9913 108.633 18.0484 113.533 15.6903 120.516C13.3323 127.498 11.843 134.603 12.3396 136.931" stroke="#08B7F6"/>
    <path d="M37.8257 102.364L51.4028 115.289C52.4969 116.331 54.2535 116.249 55.2432 115.11L63.3481 105.788L70.8774 115.026C71.8384 116.206 73.611 116.333 74.735 115.303L88.7003 102.509L75.8954 94.4236C75.8954 94.4236 87.1218 101.651 88.7003 102.509C90.2789 103.366 102.193 111.206 104.552 113.778C106.91 116.351 112.494 125.048 111.874 136.931" stroke="#08B7F6"/>
  </g>
  <defs>
    <filter id="filter0_d_1_83" x="0.744141" y="0.740723" width="124.678" height="154.294" filterUnits="userSpaceOnUse" color-interpolation-filters="sRGB">
      <feFlood flood-opacity="0" result="BackgroundImageFix"/>
      <feColorMatrix in="SourceAlpha" type="matrix" values="0 0 0 0 0 0 0 0 0 0 0 0 0 0 0 0 0 0 127 0" result="hardAlpha"/>
      <feOffset dx="1" dy="6"/>
      <feGaussianBlur stdDeviation="6"/>
      <feColorMatrix type="matrix" values="0 0 0 0 0.0929574 0 0 0 0 0.0929574 0 0 0 0 0.0929574 0 0 0 0.603393 0"/>
      <feBlend mode="normal" in2="BackgroundImageFix" result="effect1_dropShadow_1_83"/>
      <feBlend mode="normal" in="SourceGraphic" in2="effect1_dropShadow_1_83" result="shape"/>
    </filter>
  </defs>
</svg>