<svg xmlns="http://www.w3.org/2000/svg" width="154" height="145" viewBox="0 0 154 145" fill="none">
  <g filter="url(#filter0_d_1_144)">
    <g filter="url(#filter1_d_1_144)">
      <path fill-rule="evenodd" clip-rule="evenodd" d="M21.915 119.094H131.039V89.6567H21.915V119.094Z" fill="#24272B"/>
      <path fill-rule="evenodd" clip-rule="evenodd" d="M21.915 81.1107H131.039V50.7241H21.915V81.1107Z" fill="#24272B"/>
      <path fill-rule="evenodd" clip-rule="evenodd" d="M28.5852 17.4888H61.1097C61.1097 17.4888 62.5334 24.6063 64.5239 27.4946C66.5144 30.383 72.9211 33.6618 77.5401 33.5396C80.9982 33.4479 88.2311 31.6405 90.4007 26.9933C90.4007 26.9933 92.9784 23.0033 93.3496 18.2851H125.539L131.039 23.1005V42.1778H21.915V23.1005L28.5852 17.4888Z" fill="#24272B"/>
    </g>
    <path d="M18.9175 15.3359H64.1528C64.1528 15.3359 64.0255 30.3239 77.5548 30.3239C89.7248 30.3239 90.6562 15.3359 90.6562 15.3359L134 16.2126" stroke="#08B7F6"/>
    <path d="M11 23.5371H66.114" stroke="#08B7F6"/>
    <path d="M87.9297 23.5371H108.619" stroke="#08B7F6"/>
    <path d="M117.194 23.5371H140.528" stroke="#08B7F6"/>
    <path d="M88.8159 36.2021H121.561" stroke="#08B7F6"/>
    <path d="M63.7182 36.2021H39.5522" stroke="#08B7F6"/>
    <path d="M15.9639 78.5621L28.9272 61.7292C28.9272 61.7292 33.3292 56.0455 38.2212 61.7292C43.1132 67.4128 48.9832 74.1899 48.9832 74.1899C48.9832 74.1899 53.8745 81.6229 59.7452 74.1899" stroke="#08B7F6"/>
    <path d="M58.9404 75.1245L70.2638 61.7292C70.2638 61.7292 74.6664 56.0455 79.5584 61.7292C84.4498 67.4128 90.3198 74.1899 90.3198 74.1899C90.3198 74.1899 95.2118 81.6223 101.082 74.1899" stroke="#08B7F6"/>
    <path d="M100.427 74.9583L111.75 61.5629C111.75 61.5629 116.153 55.8793 121.045 61.5629C125.936 67.2466 131.806 74.0236 131.806 74.0236L135.564 78.2542" stroke="#08B7F6"/>
    <path fill-rule="evenodd" clip-rule="evenodd" d="M20.6269 96.2424C20.6269 97.567 19.5403 98.6407 18.1996 98.6407C16.8596 98.6407 15.7729 97.567 15.7729 96.2424C15.7729 94.9179 16.8596 93.8442 18.1996 93.8442C19.5403 93.8442 20.6269 94.9179 20.6269 96.2424Z" stroke="#08B7F6"/>
    <path fill-rule="evenodd" clip-rule="evenodd" d="M32.4458 96.2424C32.4458 97.567 31.3591 98.6407 30.0185 98.6407C28.6785 98.6407 27.5918 97.567 27.5918 96.2424C27.5918 94.9179 28.6785 93.8442 30.0185 93.8442C31.3591 93.8442 32.4458 94.9179 32.4458 96.2424Z" stroke="#08B7F6"/>
    <path fill-rule="evenodd" clip-rule="evenodd" d="M43.9385 96.2424C43.9385 97.567 42.8518 98.6407 41.5111 98.6407C40.1711 98.6407 39.0845 97.567 39.0845 96.2424C39.0845 94.9179 40.1711 93.8442 41.5111 93.8442C42.8518 93.8442 43.9385 94.9179 43.9385 96.2424Z" stroke="#08B7F6"/>
    <path fill-rule="evenodd" clip-rule="evenodd" d="M55.7573 96.2424C55.7573 97.567 54.6707 98.6407 53.33 98.6407C51.99 98.6407 50.9033 97.567 50.9033 96.2424C50.9033 94.9179 51.99 93.8442 53.33 93.8442C54.6707 93.8442 55.7573 94.9179 55.7573 96.2424Z" stroke="#08B7F6"/>
    <path fill-rule="evenodd" clip-rule="evenodd" d="M66.5747 96.2424C66.5747 97.567 65.488 98.6407 64.1474 98.6407C62.8074 98.6407 61.7207 97.567 61.7207 96.2424C61.7207 94.9179 62.8074 93.8442 64.1474 93.8442C65.488 93.8442 66.5747 94.9179 66.5747 96.2424Z" stroke="#08B7F6"/>
    <path fill-rule="evenodd" clip-rule="evenodd" d="M78.3936 96.2424C78.3936 97.567 77.3069 98.6407 75.9662 98.6407C74.6262 98.6407 73.5396 97.567 73.5396 96.2424C73.5396 94.9179 74.6262 93.8442 75.9662 93.8442C77.3069 93.8442 78.3936 94.9179 78.3936 96.2424Z" stroke="#08B7F6"/>
    <path fill-rule="evenodd" clip-rule="evenodd" d="M89.8862 96.2424C89.8862 97.567 88.7996 98.6407 87.4589 98.6407C86.1189 98.6407 85.0322 97.567 85.0322 96.2424C85.0322 94.9179 86.1189 93.8442 87.4589 93.8442C88.7996 93.8442 89.8862 94.9179 89.8862 96.2424Z" stroke="#08B7F6"/>
    <path fill-rule="evenodd" clip-rule="evenodd" d="M101.705 96.2424C101.705 97.567 100.618 98.6407 99.2777 98.6407C97.9377 98.6407 96.8511 97.567 96.8511 96.2424C96.8511 94.9179 97.9377 93.8442 99.2777 93.8442C100.618 93.8442 101.705 94.9179 101.705 96.2424Z" stroke="#08B7F6"/>
    <path fill-rule="evenodd" clip-rule="evenodd" d="M112.443 96.2424C112.443 97.567 111.357 98.6407 110.016 98.6407C108.676 98.6407 107.589 97.567 107.589 96.2424C107.589 94.9179 108.676 93.8442 110.016 93.8442C111.357 93.8442 112.443 94.9179 112.443 96.2424Z" stroke="#08B7F6"/>
    <path fill-rule="evenodd" clip-rule="evenodd" d="M124.263 96.2424C124.263 97.567 123.176 98.6407 121.835 98.6407C120.495 98.6407 119.409 97.567 119.409 96.2424C119.409 94.9179 120.495 93.8442 121.835 93.8442C123.176 93.8442 124.263 94.9179 124.263 96.2424Z" stroke="#08B7F6"/>
    <path fill-rule="evenodd" clip-rule="evenodd" d="M135.755 96.2424C135.755 97.567 134.669 98.6407 133.328 98.6407C131.988 98.6407 130.901 97.567 130.901 96.2424C130.901 94.9179 131.988 93.8442 133.328 93.8442C134.669 93.8442 135.755 94.9179 135.755 96.2424Z" stroke="#08B7F6"/>
    <path fill-rule="evenodd" clip-rule="evenodd" d="M20.6269 109.993C20.6269 111.318 19.5403 112.391 18.1996 112.391C16.8596 112.391 15.7729 111.318 15.7729 109.993C15.7729 108.668 16.8596 107.595 18.1996 107.595C19.5403 107.595 20.6269 108.668 20.6269 109.993Z" stroke="#08B7F6"/>
    <path fill-rule="evenodd" clip-rule="evenodd" d="M32.4458 109.993C32.4458 111.318 31.3591 112.391 30.0185 112.391C28.6785 112.391 27.5918 111.318 27.5918 109.993C27.5918 108.668 28.6785 107.595 30.0185 107.595C31.3591 107.595 32.4458 108.668 32.4458 109.993Z" stroke="#08B7F6"/>
    <path fill-rule="evenodd" clip-rule="evenodd" d="M43.9385 109.993C43.9385 111.318 42.8518 112.391 41.5111 112.391C40.1711 112.391 39.0845 111.318 39.0845 109.993C39.0845 108.668 40.1711 107.595 41.5111 107.595C42.8518 107.595 43.9385 108.668 43.9385 109.993Z" stroke="#08B7F6"/>
    <path fill-rule="evenodd" clip-rule="evenodd" d="M55.7573 109.993C55.7573 111.318 54.6707 112.391 53.33 112.391C51.99 112.391 50.9033 111.318 50.9033 109.993C50.9033 108.668 51.99 107.595 53.33 107.595C54.6707 107.595 55.7573 108.668 55.7573 109.993Z" stroke="#08B7F6"/>
    <path fill-rule="evenodd" clip-rule="evenodd" d="M66.5747 109.993C66.5747 111.318 65.488 112.391 64.1474 112.391C62.8074 112.391 61.7207 111.318 61.7207 109.993C61.7207 108.668 62.8074 107.595 64.1474 107.595C65.488 107.595 66.5747 108.668 66.5747 109.993Z" stroke="#08B7F6"/>
    <path fill-rule="evenodd" clip-rule="evenodd" d="M78.3936 109.993C78.3936 111.318 77.3069 112.391 75.9662 112.391C74.6262 112.391 73.5396 111.318 73.5396 109.993C73.5396 108.668 74.6262 107.595 75.9662 107.595C77.3069 107.595 78.3936 108.668 78.3936 109.993Z" stroke="#08B7F6"/>
    <path fill-rule="evenodd" clip-rule="evenodd" d="M89.8862 109.993C89.8862 111.318 88.7996 112.391 87.4589 112.391C86.1189 112.391 85.0322 111.318 85.0322 109.993C85.0322 108.668 86.1189 107.595 87.4589 107.595C88.7996 107.595 89.8862 108.668 89.8862 109.993Z" stroke="#08B7F6"/>
    <path fill-rule="evenodd" clip-rule="evenodd" d="M101.705 109.993C101.705 111.318 100.618 112.391 99.2777 112.391C97.9377 112.391 96.8511 111.318 96.8511 109.993C96.8511 108.668 97.9377 107.595 99.2777 107.595C100.618 107.595 101.705 108.668 101.705 109.993Z" stroke="#08B7F6"/>
    <path fill-rule="evenodd" clip-rule="evenodd" d="M112.443 109.993C112.443 111.318 111.357 112.391 110.016 112.391C108.676 112.391 107.589 111.318 107.589 109.993C107.589 108.668 108.676 107.595 110.016 107.595C111.357 107.595 112.443 108.668 112.443 109.993Z" stroke="#08B7F6"/>
    <path fill-rule="evenodd" clip-rule="evenodd" d="M124.263 109.993C124.263 111.318 123.176 112.391 121.835 112.391C120.495 112.391 119.409 111.318 119.409 109.993C119.409 108.668 120.495 107.595 121.835 107.595C123.176 107.595 124.263 108.668 124.263 109.993Z" stroke="#08B7F6"/>
    <path fill-rule="evenodd" clip-rule="evenodd" d="M135.755 109.993C135.755 111.318 134.669 112.391 133.328 112.391C131.988 112.391 130.901 111.318 130.901 109.993C130.901 108.668 131.988 107.595 133.328 107.595C134.669 107.595 135.755 108.668 135.755 109.993Z" stroke="#08B7F6"/>
    <path fill-rule="evenodd" clip-rule="evenodd" d="M20.6269 123.743C20.6269 125.068 19.5403 126.142 18.1996 126.142C16.8596 126.142 15.7729 125.068 15.7729 123.743C15.7729 122.419 16.8596 121.345 18.1996 121.345C19.5403 121.345 20.6269 122.419 20.6269 123.743Z" stroke="#08B7F6"/>
    <path fill-rule="evenodd" clip-rule="evenodd" d="M32.4458 123.743C32.4458 125.068 31.3591 126.142 30.0185 126.142C28.6785 126.142 27.5918 125.068 27.5918 123.743C27.5918 122.419 28.6785 121.345 30.0185 121.345C31.3591 121.345 32.4458 122.419 32.4458 123.743Z" stroke="#08B7F6"/>
    <path fill-rule="evenodd" clip-rule="evenodd" d="M43.9385 123.743C43.9385 125.068 42.8518 126.142 41.5111 126.142C40.1711 126.142 39.0845 125.068 39.0845 123.743C39.0845 122.419 40.1711 121.345 41.5111 121.345C42.8518 121.345 43.9385 122.419 43.9385 123.743Z" stroke="#08B7F6"/>
    <path fill-rule="evenodd" clip-rule="evenodd" d="M55.7573 123.743C55.7573 125.068 54.6707 126.142 53.33 126.142C51.99 126.142 50.9033 125.068 50.9033 123.743C50.9033 122.419 51.99 121.345 53.33 121.345C54.6707 121.345 55.7573 122.419 55.7573 123.743Z" stroke="#08B7F6"/>
    <path fill-rule="evenodd" clip-rule="evenodd" d="M66.5747 123.743C66.5747 125.068 65.488 126.142 64.1474 126.142C62.8074 126.142 61.7207 125.068 61.7207 123.743C61.7207 122.419 62.8074 121.345 64.1474 121.345C65.488 121.345 66.5747 122.419 66.5747 123.743Z" stroke="#08B7F6"/>
    <path fill-rule="evenodd" clip-rule="evenodd" d="M78.3936 123.743C78.3936 125.068 77.3069 126.142 75.9662 126.142C74.6262 126.142 73.5396 125.068 73.5396 123.743C73.5396 122.419 74.6262 121.345 75.9662 121.345C77.3069 121.345 78.3936 122.419 78.3936 123.743Z" stroke="#08B7F6"/>
    <path fill-rule="evenodd" clip-rule="evenodd" d="M89.8862 123.743C89.8862 125.068 88.7996 126.142 87.4589 126.142C86.1189 126.142 85.0322 125.068 85.0322 123.743C85.0322 122.419 86.1189 121.345 87.4589 121.345C88.7996 121.345 89.8862 122.419 89.8862 123.743Z" stroke="#08B7F6"/>
    <path fill-rule="evenodd" clip-rule="evenodd" d="M101.705 123.743C101.705 125.068 100.618 126.142 99.2777 126.142C97.9377 126.142 96.8511 125.068 96.8511 123.743C96.8511 122.419 97.9377 121.345 99.2777 121.345C100.618 121.345 101.705 122.419 101.705 123.743Z" stroke="#08B7F6"/>
    <path fill-rule="evenodd" clip-rule="evenodd" d="M112.443 123.743C112.443 125.068 111.357 126.142 110.016 126.142C108.676 126.142 107.589 125.068 107.589 123.743C107.589 122.419 108.676 121.345 110.016 121.345C111.357 121.345 112.443 122.419 112.443 123.743Z" stroke="#08B7F6"/>
    <path fill-rule="evenodd" clip-rule="evenodd" d="M124.263 123.743C124.263 125.068 123.176 126.142 121.835 126.142C120.495 126.142 119.409 125.068 119.409 123.743C119.409 122.419 120.495 121.345 121.835 121.345C123.176 121.345 124.263 122.419 124.263 123.743Z" stroke="#08B7F6"/>
    <path fill-rule="evenodd" clip-rule="evenodd" d="M135.755 123.743C135.755 125.068 134.669 126.142 133.328 126.142C131.988 126.142 130.901 125.068 130.901 123.743C130.901 122.419 131.988 121.345 133.328 121.345C134.669 121.345 135.755 122.419 135.755 123.743Z" stroke="#08B7F6"/>
  </g>
  <defs>
    <filter id="filter0_d_1_144" x="0" y="8.82642" width="153.528" height="135.815" filterUnits="userSpaceOnUse" color-interpolation-filters="sRGB">
      <feFlood flood-opacity="0" result="BackgroundImageFix"/>
      <feColorMatrix in="SourceAlpha" type="matrix" values="0 0 0 0 0 0 0 0 0 0 0 0 0 0 0 0 0 0 127 0" result="hardAlpha"/>
      <feOffset dx="1" dy="6"/>
      <feGaussianBlur stdDeviation="6"/>
      <feColorMatrix type="matrix" values="0 0 0 0 0.0929574 0 0 0 0 0.0929574 0 0 0 0 0.0929574 0 0 0 0.603393 0"/>
      <feBlend mode="normal" in2="BackgroundImageFix" result="effect1_dropShadow_1_144"/>
      <feBlend mode="normal" in="SourceGraphic" in2="effect1_dropShadow_1_144" result="shape"/>
    </filter>
    <filter id="filter1_d_1_144" x="2.91504" y="0.48877" width="147.124" height="139.605" filterUnits="userSpaceOnUse" color-interpolation-filters="sRGB">
      <feFlood flood-opacity="0" result="BackgroundImageFix"/>
      <feColorMatrix in="SourceAlpha" type="matrix" values="0 0 0 0 0 0 0 0 0 0 0 0 0 0 0 0 0 0 127 0" result="hardAlpha"/>
      <feOffset dy="2"/>
      <feGaussianBlur stdDeviation="9.5"/>
      <feColorMatrix type="matrix" values="0 0 0 0 0.0831062 0 0 0 0 0.362286 0 0 0 0 0.386719 0 0 0 0.0628551 0"/>
      <feBlend mode="normal" in2="BackgroundImageFix" result="effect1_dropShadow_1_144"/>
      <feBlend mode="normal" in="SourceGraphic" in2="effect1_dropShadow_1_144" result="shape"/>
    </filter>
  </defs>
</svg>