<svg xmlns="http://www.w3.org/2000/svg" width="163" height="165" viewBox="0 0 163 165" fill="none">
  <g filter="url(#filter0_d_1_411)">
    <g filter="url(#filter1_d_1_411)">
      <path fill-rule="evenodd" clip-rule="evenodd" d="M19.3354 80.2637V140.538C19.3354 141.308 20.0257 141.932 20.8768 141.932H24.9191C25.613 141.932 26.2209 141.513 26.4051 140.908L29.0655 133.467C29.5279 131.946 31.0583 130.891 32.8035 130.891H129.575C131.575 130.891 133.33 132.096 133.866 133.837L136.399 140.734C136.618 141.442 137.331 141.932 138.143 141.932H141.459C142.458 141.932 143.269 141.199 143.269 140.295V122.405C143.269 118.903 142.923 118.002 139.92 118.06H57.8371H51.3281C49.5319 118.06 48.2971 117.743 48.9487 116.23L51.6688 109.914C52.0693 108.984 51.3907 107.964 50.2942 107.855C47.7947 107.604 43.384 107.379 38.5612 108.132C34.1279 108.825 31.5774 109.818 30.1344 110.637C29.3422 111.088 28.3098 110.611 28.2828 109.765L27.3429 80.2176C27.3152 79.3532 26.5325 78.6653 25.5758 78.6653H21.1032C20.1269 78.6653 19.3354 79.3809 19.3354 80.2637Z" fill="#24272B"/>
      <path fill-rule="evenodd" clip-rule="evenodd" d="M81.23 35.9939L80.9377 37.335C80.8326 37.8205 81.1521 38.2965 81.6413 38.3817L90.861 39.9975C91.0593 40.032 91.1254 40.2832 90.9704 40.411L77.9043 51.1811C77.2727 51.7019 77.5584 52.725 78.3692 52.8425L93.6255 55.0562C94.1631 55.1348 94.667 54.7734 94.7647 54.2387L94.9123 53.4367C95.0159 52.8726 94.6317 52.335 94.064 52.2505L83.7294 50.7081C83.5266 50.678 83.4561 50.421 83.6155 50.2924L96.8616 39.5796C97.48 39.0801 97.2273 38.0857 96.4459 37.9417L82.2428 35.3204C81.7786 35.2345 81.3306 35.5327 81.23 35.9939Z" fill="#24272B"/>
      <path fill-rule="evenodd" clip-rule="evenodd" d="M58.3198 62.394L58.3852 63.3069C58.4087 63.6374 58.7025 63.8813 59.0315 63.8445L65.2341 63.1468C65.367 63.1321 65.4566 63.2797 65.3809 63.3906L59.044 72.7352C58.7377 73.1869 59.113 73.7877 59.6536 73.7113L69.8303 72.2622C70.1895 72.2115 70.4436 71.8854 70.4054 71.5248L70.3496 70.9843C70.3099 70.6045 69.9625 70.3321 69.5843 70.3849L62.6818 71.339C62.5467 71.3574 62.4534 71.2068 62.5312 71.0944L68.9945 61.7528C69.2956 61.3165 68.9475 60.7282 68.4209 60.7826L58.8413 61.7726C58.5284 61.8049 58.2978 62.0804 58.3198 62.394Z" fill="#24272B"/>
      <path fill-rule="evenodd" clip-rule="evenodd" d="M45.3948 21.5697L45.5851 23.3185C45.6541 23.9516 46.2365 24.4004 46.8667 24.3056L58.7334 22.5187C58.9883 22.4797 59.1704 22.7581 59.0338 22.977L47.5307 41.387C46.9747 42.2772 47.7385 43.4046 48.7712 43.2181L68.2205 39.7022C68.9065 39.578 69.3714 38.9339 69.273 38.2443L69.1261 37.2094C69.0225 36.4816 68.3365 35.9843 67.6123 36.1121L54.4199 38.4418C54.1614 38.4881 53.9719 38.2039 54.1129 37.9828L65.8584 19.5691C66.4064 18.7105 65.6947 17.6044 64.6855 17.7469L46.3518 20.3388C45.7533 20.4232 45.3295 20.9682 45.3948 21.5697Z" fill="#161616"/>
      <path fill-rule="evenodd" clip-rule="evenodd" d="M61.0777 113.328C59.0662 113.305 57.7496 111.175 58.5962 109.313C60.9374 104.169 65.1961 95.5162 68.559 92.648C73.4578 88.4686 78.301 86.5461 86.0138 86.4777C93.7258 86.4101 103.025 86.4741 117.178 90.6063C128.208 93.8262 135.39 101.422 137.727 106.194C138.625 108.025 139.247 109.637 139.672 110.925C140.206 112.544 139.032 114.217 137.358 114.199L61.0777 113.328Z" fill="#24272B"/>
      <path fill-rule="evenodd" clip-rule="evenodd" d="M41.1819 90.3437C41.1819 90.3437 39.8031 92.3976 39.3102 96.2481C39.1071 97.8273 39.7128 100.813 39.7128 100.813C39.7128 100.813 46.7263 99.6704 54.1283 101.199C54.1283 101.199 57.1974 93.3986 60.9352 90.3542C60.9352 90.3542 58.0286 85.6009 51.1615 85.5986C44.0724 85.5956 41.1819 90.3437 41.1819 90.3437Z" fill="#24272B"/>
    </g>
    <path fill-rule="evenodd" clip-rule="evenodd" d="M16.3672 146.354V69.3665H29.9144V120.251H145.56V146.354H134.656L131.021 133.467H30.9052L27.6015 146.354H16.3672Z" stroke="#08B7F6"/>
    <path d="M29.9141 114.937L145.56 116.049C145.56 116.049 146.971 92.993 114.85 85.149C101.402 81.8644 89.8683 81.365 81.7246 82.3176C77.0769 82.8611 69.0492 83.8644 62.8929 91.8847C56.8777 99.7222 53.1936 107.914 51.2524 115.142" stroke="#08B7F6"/>
    <path d="M55.5373 103.52C55.5373 103.52 39.0442 100.376 29.9141 105.473" stroke="#08B7F6"/>
    <path d="M37.5558 103.052C37.5558 103.052 31.8189 90.331 44.0125 84.5552C56.8069 78.4944 63.9561 90.5903 63.9561 90.5903" stroke="#08B7F6"/>
    <path d="M69.4756 100.832C69.4756 100.832 72.4245 92.4024 79.808 91.6158C84.773 91.0862 96.4818 90.3187 109.133 93.5077" stroke="#08B7F6"/>
    <path d="M47.0098 22.2853L63.4632 20.0364L50.0828 40.8694L67.6063 37.9103" stroke="#08B7F6"/>
    <path d="M82.0781 36.835L94.9591 39.2051L79.7998 51.5154L93.6577 53.6174" stroke="#08B7F6"/>
    <path d="M58.9355 62.8121L67.5919 61.8984L60.2466 72.5981L69.4758 71.3297" stroke="#08B7F6"/>
    <path d="M145.56 119.986V116.05" stroke="#08B7F6"/>
  </g>
  <defs>
    <filter id="filter0_d_1_411" x="4.86719" y="11.7344" width="154.202" height="153.119" filterUnits="userSpaceOnUse" color-interpolation-filters="sRGB">
      <feFlood flood-opacity="0" result="BackgroundImageFix"/>
      <feColorMatrix in="SourceAlpha" type="matrix" values="0 0 0 0 0 0 0 0 0 0 0 0 0 0 0 0 0 0 127 0" result="hardAlpha"/>
      <feOffset dx="1" dy="6"/>
      <feGaussianBlur stdDeviation="6"/>
      <feColorMatrix type="matrix" values="0 0 0 0 0.0929574 0 0 0 0 0.0929574 0 0 0 0 0.0929574 0 0 0 0.603393 0"/>
      <feBlend mode="normal" in2="BackgroundImageFix" result="effect1_dropShadow_1_411"/>
      <feBlend mode="normal" in="SourceGraphic" in2="effect1_dropShadow_1_411" result="shape"/>
    </filter>
    <filter id="filter1_d_1_411" x="0.335449" y="0.734375" width="161.933" height="162.198" filterUnits="userSpaceOnUse" color-interpolation-filters="sRGB">
      <feFlood flood-opacity="0" result="BackgroundImageFix"/>
      <feColorMatrix in="SourceAlpha" type="matrix" values="0 0 0 0 0 0 0 0 0 0 0 0 0 0 0 0 0 0 127 0" result="hardAlpha"/>
      <feOffset dy="2"/>
      <feGaussianBlur stdDeviation="9.5"/>
      <feColorMatrix type="matrix" values="0 0 0 0 0.0831062 0 0 0 0 0.362286 0 0 0 0 0.386719 0 0 0 0.0628551 0"/>
      <feBlend mode="normal" in2="BackgroundImageFix" result="effect1_dropShadow_1_411"/>
      <feBlend mode="normal" in="SourceGraphic" in2="effect1_dropShadow_1_411" result="shape"/>
    </filter>
  </defs>
</svg>