<svg xmlns="http://www.w3.org/2000/svg" width="117" height="159" viewBox="0 0 117 159" fill="none">
  <g filter="url(#filter0_d_1_192)">
    <g filter="url(#filter1_d_1_192)">
      <path fill-rule="evenodd" clip-rule="evenodd" d="M44.6131 109.404C44.6131 109.404 46.3861 111.417 46.3861 113.747C46.3861 116.078 46.0701 123.873 46.0701 123.873L45.6363 134.963V137.213C45.6363 137.213 64.547 138.74 70.785 137.213V112.863C70.785 112.863 70.2463 109.955 71.6099 108.609C71.6099 108.609 68.6905 103.783 67.2315 101.773C65.9025 99.9433 64.0882 98.6547 62.1927 98.2525C60.2979 97.851 58.8491 97.8475 56.6525 97.9433C54.9012 98.0204 53.4138 98.3985 52.1503 99.2821C50.8869 100.166 48.1983 103.336 47.3335 104.667C45.9395 106.812 44.5333 109.532 44.6131 109.404Z" fill="#24272B"/>
      <path fill-rule="evenodd" clip-rule="evenodd" d="M35.118 22.031L44.8739 17.4262C46.2346 16.7836 47.8951 17.3072 48.5472 18.5885C50.5511 22.5229 54.4819 30.1619 55.4283 31.4097C57.2544 33.8166 60.555 33.3487 62.0724 30.8444C62.8464 29.5675 66.5824 22.2627 68.5004 18.4967C69.1355 17.2502 70.7292 16.7153 72.0776 17.2907L82.0556 21.5474C83.5839 22.1994 84.11 23.9745 83.1567 25.2615L78.4505 31.6173C77.2492 33.4481 76.7014 35.5828 76.9024 37.7187C77.0796 39.5963 77.4284 42.107 78.1166 44.926C78.1166 44.926 79.5809 47.8874 78.2515 49.8904C76.9222 51.8934 72.9886 58.1175 71.6593 59.5343C70.3299 60.9511 67.0157 64.5171 64.0579 65.8414C61.1334 67.1512 57.3525 67.8912 52.8582 65.4793C48.3632 63.068 42.3392 54.8573 42.3392 54.8573C42.3392 54.8573 39.2648 49.8752 39.0114 48.4635C38.7579 47.0524 39.8154 44.3449 40.0246 43.2193C40.3387 41.5303 41.2749 36.7362 40.2624 34.7952C39.5715 33.4722 36.1741 28.6154 34.081 25.6578C33.1931 24.4031 33.6769 22.7109 35.118 22.031Z" fill="#24272B"/>
      <path fill-rule="evenodd" clip-rule="evenodd" d="M55.5948 78.7802C57.5969 79.3037 59.7645 79.3482 61.7916 78.8858C65.3577 78.0713 72.0141 75.7318 76.5968 69.0102C81.5478 61.7479 83.9189 58.1181 84.8787 56.622C85.5357 55.5985 86.6516 53.819 87.3715 52.8132C90.0278 49.1036 92.8822 48.6058 94.645 50.5402C95.4114 51.3814 94.8329 53.5971 94.8072 55.4496C94.7741 57.7891 94.0204 62.8367 94.0204 66.0925C94.0204 70.5389 95.6554 74.7341 96.3097 76.4118C96.964 78.0895 98.1631 81.5296 97.7271 84.2978C97.2912 87.0665 94.1292 93.0229 91.7304 95.7075C89.3316 98.3926 85.1315 101.948 81.2565 102.186C77.5593 102.414 76.4244 101.034 74.5711 99.1884C72.717 97.3429 70.035 94.0968 68.4649 92.7288C67.424 91.8216 65.1103 90.3239 59.7726 90.3796C55.4684 90.4246 51.6482 91.3543 49.9037 92.3606C48.1591 93.3675 46.8506 94.7939 45.8698 95.8008C44.8884 96.8071 43.1628 98.6659 41.3993 100.377C39.4669 102.253 34.8369 104.001 27.4019 97.3858C19.5268 90.3796 19.2544 81.9347 20.2055 78.3414C21.0125 75.2908 23.264 71.46 23.3674 69.8681C23.5235 67.4621 23.2585 62.3175 22.9314 60.1361C22.6043 57.9546 22.3859 55.3542 22.3859 54.6828C22.3859 54.0955 21.7763 46.9152 27.2032 49.9604C28.4705 50.6714 29.8946 52.7982 30.6199 53.8645C32.7578 57.0105 38.8451 65.9162 40.987 68.5258C43.2507 71.2827 49.1946 77.1062 55.5948 78.7802Z" fill="#24272B"/>
    </g>
    <path fill-rule="evenodd" clip-rule="evenodd" d="M54.9314 73.4005C57.2013 74.1753 59.6595 74.241 61.958 73.5563C66.0013 72.3516 72.7822 68.8896 77.9788 58.9424C83.5924 48.1967 86.2808 42.8246 87.3694 40.6109C88.1137 39.096 89.0376 37.6756 90.1534 36.4118C92.2997 33.9824 95.7582 31.8832 98.1045 35.0313C99.2417 36.5573 99.4226 37.7206 99.3932 40.4617C99.3557 43.923 98.501 51.3935 98.501 56.2109C98.501 62.7914 100.355 68.9982 101.097 71.4815C101.839 73.9648 103.199 79.0547 102.704 83.1512C102.21 87.2484 98.6246 96.0633 95.9045 100.036C93.1845 104.009 88.4219 109.27 84.0278 109.622C79.836 109.959 77.3602 109.099 75.2587 106.367C73.1573 103.636 70.1151 98.8324 68.3351 96.8078C67.1553 95.4657 64.5317 93.2491 58.4797 93.3318C53.5994 93.3983 52.0165 94.2005 50.0386 95.6903C48.0608 97.1801 46.5772 99.2911 45.4643 100.781C44.3515 102.271 42.3949 105.021 40.3958 107.554C38.2046 110.329 31.395 112.307 22.9643 102.519C14.0348 92.1507 13.7266 79.6538 14.8049 74.337C15.72 69.8225 18.2723 64.1535 18.39 61.798C18.5672 58.2377 18.2664 50.6246 17.8949 47.3968C17.5242 44.1689 17.2771 40.3199 17.2771 39.3272C17.2771 38.4578 18.8864 30.8402 24.5891 34.2719C26.1102 35.1878 27.3238 36.5381 28.1461 38.1165C30.5704 42.7714 37.472 55.9502 39.9007 59.8118C42.467 63.892 47.6746 70.9238 54.9314 73.4005Z" stroke="#08B7F6"/>
    <path d="M28.4805 90.415C28.4805 90.415 33.8036 96.5627 36.6427 97.4535C39.4812 98.3443 47.6493 97.975 47.6493 97.975" stroke="#08B7F6"/>
    <path d="M88.4794 90.415C88.4794 90.415 83.1563 96.5627 80.3171 97.4535C77.4787 98.3443 69.3105 97.975 69.3105 97.975" stroke="#08B7F6"/>
    <path d="M41.6313 46.5737C41.6313 46.5737 56.5716 52.7458 57.1387 70.9775" stroke="#08B7F6"/>
    <path d="M40.4019 52.366C40.4019 52.366 50.7089 55.7844 53.8291 68.5089" stroke="#08B7F6"/>
    <path d="M42.8604 60.0574C42.8604 60.0574 48.0805 62.2415 50.0465 67.1793" stroke="#08B7F6"/>
    <path d="M50.8032 50.3719L56.7603 47.1433" stroke="#08B7F6"/>
    <path d="M75.3745 46.5737C75.3745 46.5737 60.4343 52.7458 59.8672 70.9775" stroke="#08B7F6"/>
    <path d="M76.604 52.366C76.604 52.366 66.2969 55.7844 63.1768 68.5089" stroke="#08B7F6"/>
    <path d="M74.1457 60.0574C74.1457 60.0574 68.9256 62.2415 66.9595 67.1793" stroke="#08B7F6"/>
    <path d="M66.2027 50.3719L60.2456 47.1433" stroke="#08B7F6"/>
    <path d="M35.485 47.1434C35.485 47.1434 37.66 39.7371 36.525 36.5085C35.3901 33.28 33.8778 30.7162 32.7429 29.3866C31.608 28.0571 29.5279 25.1136 28.9608 24.1637C28.3929 23.2146 26.5019 19.511 29.7169 17.5175C32.9319 15.5231 42.8602 10.965 42.8602 10.965C42.8602 10.965 47.4941 9.06599 49.3852 12.9593C51.2762 16.8527 54.9642 25.6831 54.9642 25.6831C54.9642 25.6831 55.7468 27.4758 56.4265 28.4995C57.1061 29.5233 58.6014 31.1933 60.4366 28.823L67.5044 13.3486C67.5044 13.3486 69.4749 8.98031 73.9609 10.8232C78.4462 12.6661 87.4168 17.307 87.4168 17.307C87.4168 17.307 90.7474 19.6957 88.3002 23.5174C85.8538 27.3391 81.3008 34.1641 81.3008 34.1641C81.3008 34.1641 80.213 36.2116 80.4167 38.8729C80.6212 41.535 81.3008 47.1434 81.3008 47.1434" stroke="#08B7F6"/>
    <path d="M74.9601 109.82C74.9601 109.82 73.7803 110.747 73.8502 111.932C73.9193 113.116 73.8472 115.973 73.8472 115.973C73.8472 115.973 74.073 117.183 72.1842 117.436C62.8171 118.69 53.3802 118.595 44.3596 117.436C44.3596 117.436 43.0415 117.366 43.1106 116.182C43.1797 114.997 43.1077 112.21 43.1077 112.21C43.1077 112.21 43.1797 110.705 42.0698 109.82" stroke="#08B7F6"/>
    <path d="M74.9601 120.628C74.9601 120.628 73.7803 121.555 73.8502 122.74C73.9193 123.924 73.8472 126.781 73.8472 126.781C73.8472 126.781 74.073 127.992 72.1842 128.244C62.8171 129.499 53.3802 129.403 44.3596 128.244C44.3596 128.244 43.0415 128.175 43.1106 126.99C43.1797 125.806 43.1077 123.019 43.1077 123.019C43.1077 123.019 43.1797 121.513 42.0698 120.628" stroke="#08B7F6"/>
    <path d="M74.9601 131.219C74.9601 131.219 73.7803 132.146 73.8502 133.331C73.9193 134.515 73.8472 137.372 73.8472 137.372C73.8472 137.372 74.073 138.583 72.1842 138.835C62.8171 140.09 53.3802 139.994 44.3596 138.835C44.3596 138.835 43.0415 138.766 43.1106 137.581C43.1797 136.396 43.1077 133.609 43.1077 133.609C43.1077 133.609 43.1797 132.104 42.0698 131.219" stroke="#08B7F6"/>
  </g>
  <defs>
    <filter id="filter0_d_1_192" x="2.86865" y="3.86963" width="113.441" height="154.371" filterUnits="userSpaceOnUse" color-interpolation-filters="sRGB">
      <feFlood flood-opacity="0" result="BackgroundImageFix"/>
      <feColorMatrix in="SourceAlpha" type="matrix" values="0 0 0 0 0 0 0 0 0 0 0 0 0 0 0 0 0 0 127 0" result="hardAlpha"/>
      <feOffset dx="1" dy="6"/>
      <feGaussianBlur stdDeviation="6"/>
      <feColorMatrix type="matrix" values="0 0 0 0 0.0929574 0 0 0 0 0.0929574 0 0 0 0 0.0929574 0 0 0 0.603393 0"/>
      <feBlend mode="normal" in2="BackgroundImageFix" result="effect1_dropShadow_1_192"/>
      <feBlend mode="normal" in="SourceGraphic" in2="effect1_dropShadow_1_192" result="shape"/>
    </filter>
    <filter id="filter1_d_1_192" x="0.820312" y="0.0595703" width="116" height="158.832" filterUnits="userSpaceOnUse" color-interpolation-filters="sRGB">
      <feFlood flood-opacity="0" result="BackgroundImageFix"/>
      <feColorMatrix in="SourceAlpha" type="matrix" values="0 0 0 0 0 0 0 0 0 0 0 0 0 0 0 0 0 0 127 0" result="hardAlpha"/>
      <feOffset dy="2"/>
      <feGaussianBlur stdDeviation="9.5"/>
      <feColorMatrix type="matrix" values="0 0 0 0 0.0831062 0 0 0 0 0.362286 0 0 0 0 0.386719 0 0 0 0.0628551 0"/>
      <feBlend mode="normal" in2="BackgroundImageFix" result="effect1_dropShadow_1_192"/>
      <feBlend mode="normal" in="SourceGraphic" in2="effect1_dropShadow_1_192" result="shape"/>
    </filter>
  </defs>
</svg>